<svg xmlns="http://www.w3.org/2000/svg" viewBox="0 0 24 24" width="24" height="24">
  <path fill="#FF7A59" d="M17.09 7.37V5.12a2.13 2.13 0 0 0 1.23-1.92 2.14 2.14 0 0 0-2.14-2.14 2.14 2.14 0 0 0-2.14 2.14c0 .84.5 1.57 1.21 1.92v2.25a5.15 5.15 0 0 0-2.42 1.16l-6.4-4.99a2.56 2.56 0 0 0 .08-.62 2.56 2.56 0 0 0-2.56-2.56A2.56 2.56 0 0 0 1.39 2.92a2.56 2.56 0 0 0 3.42 2.41l6.29 4.9a5.2 5.2 0 0 0-.14 6.52l-1.97 1.97a1.72 1.72 0 0 0-.5-.08 1.73 1.73 0 1 0 1.73 1.73c0-.18-.03-.34-.08-.5l1.95-1.95a5.18 5.18 0 1 0 5-10.55zm-.91 7.95a2.87 2.87 0 1 1 0-5.74 2.87 2.87 0 0 1 0 5.74z"/>
</svg>
