<svg viewBox="0 0 90 90" xmlns="http://www.w3.org/2000/svg"><circle cx="55" cy="30" r="10" fill="#5B5FC7"/><circle cx="70" cy="35" r="8" fill="#5B5FC7" opacity="0.7"/><path d="M30 42h38c3.3 0 6 2.7 6 6v16c0 3.3-2.7 6-6 6H30c-3.3 0-6-2.7-6-6V48c0-3.3 2.7-6 6-6z" fill="#5B5FC7"/><path d="M72 46h6c2.2 0 4 1.8 4 4v12c0 2.2-1.8 4-4 4h-6V46z" fill="#5B5FC7" opacity="0.7"/><rect x="14" y="32" width="30" height="30" rx="3" fill="#4B53BC"/><text x="29" y="53" font-family="Arial,sans-serif" font-size="18" font-weight="bold" fill="#fff" text-anchor="middle">T</text></svg>
