<svg viewBox="0 0 90 90" xmlns="http://www.w3.org/2000/svg"><path d="M52.5 18v20.25L63 45l-10.5 6.75V72L81 45 52.5 18z" fill="#0078D4"/><path d="M52.5 38.25V18L9 31.5v27L9 31.5 52.5 38.25z" fill="#0559C9"/><path d="M52.5 51.75V72L9 58.5v-27L9 58.5 52.5 51.75z" fill="#0559C9"/><circle cx="30" cy="45" r="15" fill="#0078D4"/><path d="M25.5 39h9c.83 0 1.5.67 1.5 1.5v9c0 .83-.67 1.5-1.5 1.5h-9c-.83 0-1.5-.67-1.5-1.5v-9c0-.83.67-1.5 1.5-1.5z" fill="none" stroke="#fff" stroke-width="1.5"/><path d="M24 42l6 4 6-4" fill="none" stroke="#fff" stroke-width="1.5" stroke-linecap="round"/></svg>
