<svg width="64" height="64" viewBox="0 0 64 64" fill="none" xmlns="http://www.w3.org/2000/svg">
<g clip-path="url(#clip0_1807_5139)">
<path d="M64 0H0V64H64V0Z" fill="#3A57FC"/>
<path d="M34.8001 15.2436H17.1042V22.6494H34.8001V26.7017L27.7077 27.4004C17.5255 28.3786 14.2953 30.8239 14.2953 38.2995V40.2557C14.2953 45.9848 18.4385 48.9891 23.5647 48.9891C25.882 48.9891 28.4099 48.4302 30.938 47.1027L34.8003 45.1464V48.57H42.2437V22.6494L34.8001 15.2436ZM34.8001 37.8804L30.025 40.3257C28.1993 41.3737 26.3033 41.9326 24.8286 41.9326C23.0029 41.9326 21.7388 41.3037 21.7388 38.9982V37.4611C21.8793 35.0157 23.4944 34.3869 28.9717 33.8279L34.8001 33.1991V37.8802V37.8804Z" fill="white"/>
<path d="M42.2435 15.2436H34.8001V22.6494H42.2435V15.2436Z" fill="#FF8D00"/>
<path d="M49.6873 22.6489H42.2437V48.5699H49.6873V22.6489Z" fill="#FF8D00"/>
</g>
<defs>
<clipPath id="clip0_1807_5139">
<rect width="64" height="64" fill="white"/>
</clipPath>
</defs>
</svg>
