<svg width="319" height="319" viewBox="0 0 319 319" fill="none" xmlns="http://www.w3.org/2000/svg">
<rect width="319" height="319" rx="75.9524" fill="#062217"/>
<path d="M119.945 124.512V138.703C113.642 128.472 103.855 122.202 91.7465 122.202C65.8703 122.202 51.2734 141.508 51.2734 167.414C51.2734 193.485 66.0361 213.451 92.0782 213.451C104.187 213.451 113.808 207.181 119.945 196.951V211.141H140.181V124.512H119.945ZM96.0592 196.29C81.2965 196.29 72.8369 182.595 72.8369 167.414C72.8369 152.563 81.1306 139.528 96.3909 139.528C108.997 139.528 119.779 148.603 119.779 167.084C119.779 185.235 109.495 196.29 96.0592 196.29Z" fill="#F8FFFA"/>
<path d="M152.543 150.913C152.543 177.81 171.121 196.951 197.827 196.951C224.698 196.951 243.11 177.81 243.11 150.913C243.11 124.512 224.698 105.701 197.827 105.701C171.121 105.701 152.543 124.512 152.543 150.913ZM221.546 150.913C221.546 167.744 212.423 179.79 197.827 179.79C183.064 179.79 174.107 167.744 174.107 150.913C174.107 134.743 183.064 123.027 197.827 123.027C212.423 123.027 221.546 134.743 221.546 150.913Z" fill="#F8FFFA"/>
<circle cx="253.802" cy="197.16" r="13.9246" fill="#F8FFFA"/>
</svg>
