<svg width="64" height="54" viewBox="0 0 64 54" fill="none" xmlns="http://www.w3.org/2000/svg">
<path d="M28.5647 0.675254L4.71512 10.5439C3.38884 11.0928 3.40258 12.9766 4.73718 13.5056L28.6866 23.0029C30.791 23.8375 33.1344 23.8375 35.2384 23.0029L59.1882 13.5056C60.5224 12.9766 60.5365 11.0928 59.2099 10.5439L35.3606 0.675254C33.1846 -0.225085 30.7403 -0.225085 28.5647 0.675254Z" fill="#1D1F25"/>
<path d="M34.0873 28.1892V51.9148C34.0873 53.0433 35.2252 53.816 36.2742 53.4002L62.9611 43.0415C63.5704 42.8 63.9699 42.2114 63.9699 41.5562V17.8306C63.9699 16.7021 62.832 15.9294 61.7831 16.3452L35.0962 26.7038C34.4873 26.9454 34.0873 27.534 34.0873 28.1892Z" fill="#1D1F25"/>
<path d="M27.8557 29.4134L19.9356 33.2375L19.1315 33.6262L2.41266 41.637C1.35286 42.1483 0.000183105 41.376 0.000183105 40.1986V17.9303C0.000183105 17.5043 0.218579 17.1366 0.51146 16.8596C0.633675 16.737 0.772161 16.6362 0.91607 16.5563C1.31562 16.3165 1.88547 16.2525 2.36999 16.4442L27.7227 26.4893C29.0113 27.0005 29.1126 28.8063 27.8557 29.4134Z" fill="#1D1F25"/>
</svg>
