<svg width="220" height="220" viewBox="0 0 220 220" fill="none" xmlns="http://www.w3.org/2000/svg">
<rect width="220" height="220" fill="#F8FF2C"/>
<path d="M116.868 91.27L116.847 40.3315C114.596 40.1134 112.31 40 110.003 40C104.393 40 98.9408 40.663 93.7152 41.9105L109.248 90.8207C110.12 93.5731 106.775 95.7017 104.655 93.7388L64.5993 56.7192C58.9201 61.561 54.0216 67.2925 50.1308 73.7045L101.196 100.714C108.31 104.478 116.873 99.3177 116.868 91.27Z" fill="black"/>
<path d="M102.958 128.97L102.98 179.651C105.287 179.882 107.63 180 109.998 180C115.525 180 120.899 179.359 126.054 178.146L110.583 129.419C109.71 126.667 113.056 124.538 115.176 126.501L155.175 163.468C160.876 158.648 165.796 152.934 169.717 146.54L118.635 119.522C111.52 115.758 102.958 120.918 102.962 128.966L102.958 128.97Z" fill="black"/>
<path d="M126.298 104.857L163.388 64.7272C158.55 59.0262 152.814 54.1103 146.402 50.1976L119.319 101.402C115.555 108.516 120.715 117.079 128.763 117.075L179.649 117.053C179.88 114.732 180.002 112.381 180.002 110C180.002 104.464 179.357 99.0773 178.144 93.9128L129.216 109.45C126.464 110.322 124.335 106.977 126.298 104.857Z" fill="black"/>
<path d="M91.0629 103.164L40.3292 103.185C40.1112 105.427 39.9977 107.7 39.9977 109.994C39.9977 115.591 40.6564 121.034 41.8995 126.251L90.6092 110.784C93.3616 109.912 95.4903 113.257 93.5274 115.377L56.6342 155.293C61.4585 160.972 67.1726 165.871 73.5585 169.775L100.502 118.832C104.266 111.717 99.1063 103.155 91.0585 103.159L91.0629 103.164Z" fill="black"/>
</svg>
