<?xml version="1.0" encoding="UTF-8"?>
<svg version="1.1" xmlns="http://www.w3.org/2000/svg" width="1000" height="1000">
<path d="M0 0 C1.36204382 -0.00134951 2.72408727 -0.00313502 4.08613002 -0.00531223 C7.8120937 -0.01001198 11.53803275 -0.00855045 15.26399759 -0.00603446 C19.3241557 -0.00439429 23.3843087 -0.00854811 27.44446516 -0.01194364 C34.55513775 -0.01708764 41.66580354 -0.01851657 48.77647781 -0.01748753 C59.35080312 -0.01596097 69.9251209 -0.02012798 80.49944475 -0.02536215 C100.48623332 -0.03502908 120.47301932 -0.03784615 140.45980996 -0.03841921 C155.89699706 -0.03887892 171.33418316 -0.04093816 186.77136993 -0.04411983 C191.21655385 -0.04501739 195.66173776 -0.04590721 200.10692167 -0.04679471 C201.21204361 -0.04701576 202.31716555 -0.04723681 203.45577603 -0.04746456 C234.538073 -0.05361817 265.62036963 -0.05756518 296.70266724 -0.05712128 C297.87436172 -0.0571057 299.04605621 -0.05709012 300.25325659 -0.05707407 C306.19174754 -0.05699096 312.1302385 -0.05689192 318.06872946 -0.05678936 C319.83780257 -0.05675944 319.83780257 -0.05675944 321.64261452 -0.05672892 C324.0276129 -0.05668848 326.41261127 -0.05664669 328.79760965 -0.05660353 C365.89710776 -0.05599089 402.99659673 -0.06349543 440.09609222 -0.07717609 C481.78846507 -0.09254412 523.4808319 -0.10114187 565.17320776 -0.10021287 C569.62090651 -0.10013824 574.06860526 -0.10008954 578.51630402 -0.10005856 C580.15897654 -0.10004107 580.15897654 -0.10004107 581.83483437 -0.10002324 C599.44126792 -0.09999249 617.04769352 -0.1063724 634.65412471 -0.11499082 C652.3567684 -0.12347696 670.05940049 -0.12444973 687.76204509 -0.1178815 C698.27140063 -0.1141922 708.78072086 -0.11599965 719.29007264 -0.12582384 C726.32041623 -0.13183908 733.35073435 -0.13051126 740.38107679 -0.12335334 C744.37989246 -0.11948484 748.37863999 -0.11865834 752.37745076 -0.12681069 C807.07401899 -0.23077199 807.07401899 -0.23077199 828.17910004 11.12863445 C829.63896332 11.90013836 829.63896332 11.90013836 831.12831879 12.6872282 C853.1715517 24.90838038 870.57424755 44.87211743 878.11660004 69.0622282 C882.40692974 84.65681054 883.33448215 100.85645629 883.30773449 116.94953442 C883.309084 118.31157824 883.31086951 119.67362169 883.31304672 121.03566444 C883.31774647 124.76162812 883.31628494 128.48756717 883.31376895 132.21353201 C883.31212878 136.27369012 883.3162826 140.33384312 883.31967813 144.39399958 C883.32482213 151.50467217 883.32625106 158.61533796 883.32522202 165.72601223 C883.32369546 176.30033753 883.32786247 186.87465532 883.33309664 197.44897916 C883.34276357 217.43576773 883.34558064 237.42255374 883.3461537 257.40934438 C883.34661341 272.84653148 883.34867265 288.28371757 883.35185432 303.72090435 C883.35275188 308.16608826 883.3536417 312.61127218 883.3545292 317.05645609 C883.35475025 318.16157803 883.3549713 319.26669996 883.35519904 320.40531044 C883.36135266 351.48760742 883.36529967 382.56990404 883.36485577 413.65220165 C883.36484019 414.82389614 883.36482461 415.99559062 883.36480856 417.202791 C883.36472545 423.14128196 883.36462641 429.07977292 883.36452385 435.01826388 C883.36449393 436.78733698 883.36449393 436.78733698 883.36446341 438.59214894 C883.36442297 440.97714731 883.36438118 443.36214569 883.36433802 445.74714407 C883.36372538 482.84664218 883.37122992 519.94613115 883.38491058 557.04562664 C883.40027861 598.73799948 883.40887636 640.43036632 883.40794736 682.12274218 C883.40787273 686.57044093 883.40782402 691.01813968 883.40779305 695.46583843 C883.40777556 697.10851096 883.40777556 697.10851096 883.40775773 698.78436879 C883.40772698 716.39080234 883.41410689 733.99722794 883.42272531 751.60365913 C883.43121145 769.30630282 883.43218422 787.0089349 883.42561599 804.7115795 C883.42192669 815.22093504 883.42373414 825.73025528 883.43355833 836.23960706 C883.43957357 843.26995065 883.43824575 850.30026877 883.43108783 857.3306112 C883.42721932 861.32942688 883.42639283 865.32817441 883.43454518 869.32698518 C883.53850648 924.0235534 883.53850648 924.0235534 872.17910004 945.12863445 C871.6647641 946.10187664 871.15042816 947.07511883 870.62050629 948.0778532 C858.39935411 970.12108612 838.43561706 987.52378197 814.24550629 995.06613445 C798.65092395 999.35646416 782.4512782 1000.28401657 766.35820007 1000.25726891 C764.99615625 1000.25861842 763.6341128 1000.26040392 762.27207005 1000.26258114 C758.54610637 1000.26728088 754.82016732 1000.26581936 751.09420248 1000.26330337 C747.03404437 1000.26166319 742.97389137 1000.26581702 738.91373491 1000.26921254 C731.80306232 1000.27435655 724.69239653 1000.27578548 717.58172226 1000.27475643 C707.00739696 1000.27322988 696.43307917 1000.27739689 685.85875533 1000.28263106 C665.87196676 1000.29229799 645.88518075 1000.29511506 625.89839011 1000.29568812 C610.46120301 1000.29614783 595.02401691 1000.29820707 579.58683014 1000.30138874 C575.14164623 1000.3022863 570.69646231 1000.30317611 566.2512784 1000.30406362 C565.14615646 1000.30428467 564.04103453 1000.30450571 562.90242405 1000.30473346 C531.82012707 1000.31088707 500.73783045 1000.31483409 469.65553284 1000.31439018 C467.89799111 1000.31436681 467.89799111 1000.31436681 466.10494349 1000.31434297 C460.16645253 1000.31425987 454.22796157 1000.31416083 448.28947061 1000.31405827 C446.52039751 1000.31402835 446.52039751 1000.31402835 444.71558555 1000.31399783 C442.33058718 1000.31395739 439.9455888 1000.31391559 437.56059042 1000.31387244 C400.46109231 1000.3132598 363.36160334 1000.32076433 326.26210785 1000.334445 C284.56973501 1000.34981302 242.87736817 1000.35841078 201.18499231 1000.35748178 C196.73729356 1000.35740715 192.28959481 1000.35735844 187.84189606 1000.35732746 C186.19922353 1000.35730998 186.19922353 1000.35730998 184.5233657 1000.35729215 C166.91693215 1000.3572614 149.31050655 1000.36364131 131.70407536 1000.37225973 C114.00143167 1000.38074586 96.29879959 1000.38171864 78.59615499 1000.3751504 C68.08679945 1000.37146111 57.57747921 1000.37326856 47.06812743 1000.38309274 C40.03778384 1000.38910798 33.00746572 1000.38778016 25.97712328 1000.38062225 C21.97830761 1000.37675374 17.97956008 1000.37592725 13.98074931 1000.3840796 C-40.71581891 1000.4880409 -40.71581891 1000.4880409 -61.82089996 989.12863445 C-62.79414215 988.61429852 -63.76738434 988.09996258 -64.77011871 987.5700407 C-86.81335163 975.34888852 -104.21604748 955.38515147 -111.75839996 931.1950407 C-116.04872967 915.60045836 -116.97628208 899.40081262 -116.94953442 883.30773449 C-116.95088393 881.94569067 -116.95266943 880.58364722 -116.95484665 879.22160447 C-116.95954639 875.49564079 -116.95808487 871.76970174 -116.95556888 868.0437369 C-116.9539287 863.98357878 -116.95808253 859.92342579 -116.96147805 855.86326933 C-116.96662206 848.75259674 -116.96805099 841.64193095 -116.96702194 834.53125668 C-116.96549539 823.95693137 -116.9696624 813.38261359 -116.97489657 802.80828974 C-116.9845635 782.82150117 -116.98738057 762.83471517 -116.98795363 742.84792453 C-116.98841334 727.41073743 -116.99047258 711.97355133 -116.99365425 696.53636456 C-116.99455181 692.09118064 -116.99544162 687.64599673 -116.99632913 683.20081282 C-116.99655018 682.09569088 -116.99677123 680.99056894 -116.99699897 679.85195846 C-117.00315258 648.76966149 -117.0070996 617.68736486 -117.00665569 586.60506725 C-117.00664011 585.43337277 -117.00662454 584.26167828 -117.00660848 583.0544779 C-117.00652538 577.11598695 -117.00642634 571.17749599 -117.00632378 565.23900503 C-117.00630383 564.05962296 -117.00628389 562.88024089 -117.00626334 561.66511997 C-117.0062229 559.28012159 -117.0061811 556.89512322 -117.00613795 554.51012484 C-117.00552531 517.41062673 -117.01302985 480.31113776 -117.02671051 443.21164227 C-117.04207853 401.51926942 -117.05067629 359.82690258 -117.04974729 318.13452673 C-117.04967266 313.68682798 -117.04962395 309.23912923 -117.04959297 304.79143047 C-117.04958132 303.69631546 -117.04956966 302.60120044 -117.04955766 301.47290012 C-117.04952691 283.86646657 -117.05590682 266.26004096 -117.06452524 248.65360978 C-117.07301137 230.95096609 -117.07398415 213.248334 -117.06741592 195.5456894 C-117.06372662 185.03633386 -117.06553407 174.52701363 -117.07535826 164.01766185 C-117.0813735 156.98731826 -117.08004567 149.95700014 -117.07288776 142.9266577 C-117.06901925 138.92784203 -117.06819276 134.9290945 -117.07634511 130.93028373 C-117.18030641 76.2337155 -117.18030641 76.2337155 -105.82089996 55.12863445 C-105.04939606 53.66877117 -105.04939606 53.66877117 -104.26230621 52.1794157 C-92.04115403 30.13618279 -72.07741698 12.73348694 -47.88730621 5.19113445 C-32.29272387 0.90080475 -16.09307813 -0.02674766 0 0 Z " fill="#FBFBFB" transform="translate(116.8208999633789,-0.12863445281982422)"/>
<path d="M0 0 C1.65773941 -0.0076664 1.65773941 -0.0076664 3.34896851 -0.01548767 C6.9862008 -0.02933682 10.62324259 -0.02843022 14.26049805 -0.02612305 C16.80104136 -0.03001284 19.34158402 -0.0343481 21.88212585 -0.03910828 C27.20220314 -0.04656068 32.52221117 -0.04642579 37.84228516 -0.04101562 C43.96690043 -0.03498242 50.09128559 -0.04727682 56.21586162 -0.06858569 C62.13613436 -0.08841642 68.05633668 -0.0913646 73.97664452 -0.08785057 C76.48232755 -0.08836211 78.98801439 -0.09356821 81.49367714 -0.10366249 C85.00637873 -0.11607652 88.51855604 -0.10920477 92.03125 -0.09765625 C93.05446854 -0.10529999 94.07768707 -0.11294373 95.13191223 -0.12081909 C106.60335823 -0.03796764 116.03917408 2.62080164 124.7097168 10.2746582 C130.72445791 17.55538282 135.58374824 25.71113783 140.4597168 33.7746582 C141.86772313 36.08586807 143.27909629 38.39501718 144.69018555 40.7043457 C145.37516113 41.82679688 146.06013672 42.94924805 146.76586914 44.10571289 C149.39674862 48.39468747 152.07562616 52.65178814 154.7722168 56.8996582 C155.72673548 58.40611058 156.68116107 59.91262196 157.63549805 61.41918945 C158.12356934 62.18956543 158.61164063 62.95994141 159.11450195 63.75366211 C188.06454448 109.50483125 188.06454448 109.50483125 184.09643555 128.1574707 C181.69041258 134.58059809 177.76690134 140.35351964 174.08813477 146.10668945 C171.83434882 149.6514325 169.62085462 153.22124852 167.39990234 156.78662109 C161.67808426 165.96730594 155.91620232 175.12212959 150.12866211 184.26147461 C146.45217224 190.07663256 142.82413578 195.92075464 139.2097168 201.7746582 C134.63686661 209.18083445 130.02020052 216.55708543 125.36328125 223.91064453 C119.4122648 233.31284405 113.52525229 242.75496412 107.63305664 252.1940918 C104.49382456 257.22212307 101.35164529 262.24831161 98.2097168 267.2746582 C96.95970216 269.27464906 95.70970217 271.27464906 94.4597168 273.2746582 C60.7097168 327.2746582 60.7097168 327.2746582 26.9597168 381.2746582 C26.34032227 382.26570557 25.72092773 383.25675293 25.08276367 384.27783203 C23.83933267 386.26728922 22.59584358 388.25671011 21.35229492 390.24609375 C18.12629916 395.40709459 14.90147466 400.56882208 11.6784668 405.73168945 C11.01395508 406.79581055 10.34944336 407.85993164 9.66479492 408.95629883 C8.40790404 410.96908213 7.15136434 412.98208479 5.89526367 414.99536133 C4.17023675 417.75733181 2.44105701 420.51664132 0.7097168 423.2746582 C0.09217529 424.26079102 -0.52536621 425.24692383 -1.16162109 426.26293945 C-1.77255615 427.23231445 -2.38349121 428.20168945 -3.01293945 429.20043945 C-3.55958252 430.06967041 -4.10622559 430.93890137 -4.66943359 431.83447266 C-11.44207994 442.03067694 -19.33227898 447.63098925 -31.2902832 450.2746582 C-35.19103575 450.67662739 -39.05616942 450.70563204 -42.9753418 450.69458008 C-44.09869431 450.70304962 -45.22204681 450.71151917 -46.37944031 450.72024536 C-50.06598459 450.74350471 -53.75210882 450.74464014 -57.4387207 450.7434082 C-60.01885136 450.75051622 -62.59898045 450.75821615 -65.17910767 450.76647949 C-70.57722008 450.77989882 -75.97517031 450.78168718 -81.37329102 450.77563477 C-87.58441831 450.76899815 -93.79495114 450.79185871 -100.00595796 450.8289485 C-106.0159871 450.86351574 -112.02570378 450.86996894 -118.03584671 450.86585999 C-120.57699987 450.86754613 -123.11816124 450.87713949 -125.65925217 450.89500427 C-129.22211778 450.91729859 -132.78357209 450.90743728 -136.34643555 450.88989258 C-137.38161819 450.90315582 -138.41680084 450.91641907 -139.48335266 450.93008423 C-150.7765999 450.80176825 -159.97267659 446.58590556 -168.03881836 438.78686523 C-171.78764096 434.60389142 -174.63984828 430.04302495 -177.4777832 425.2121582 C-178.77292328 423.07517707 -180.06850883 420.93846586 -181.36450195 418.80200195 C-182.01467285 417.71773926 -182.66484375 416.63347656 -183.3347168 415.51635742 C-186.42348082 410.39618156 -189.60946407 405.33795189 -192.7902832 400.2746582 C-194.0329391 398.28666966 -195.27512497 396.29838724 -196.5168457 394.30981445 C-199.0912856 390.19030773 -201.66993976 386.07347526 -204.2512207 381.95825195 C-207.39219249 376.94926536 -210.52398499 371.93467729 -213.64672852 366.91430664 C-214.68508985 365.24663541 -215.72579831 363.58042125 -216.76977539 361.91625977 C-224.78721728 349.11952207 -229.65805538 339.02191224 -226.1887207 323.62231445 C-224.44699237 316.93335836 -221.33990476 311.74152 -217.5402832 306.0246582 C-216.1804725 303.91556405 -214.82111006 301.80618084 -213.4621582 299.6965332 C-212.76799805 298.63112305 -212.07383789 297.56571289 -211.35864258 296.46801758 C-208.10444556 291.44383239 -204.95059644 286.35820485 -201.7902832 281.2746582 C-200.54081053 279.27432872 -199.29080924 277.27432933 -198.0402832 275.2746582 C-197.4215332 274.2846582 -196.8027832 273.2946582 -196.1652832 272.2746582 C-190.5402832 263.2746582 -190.5402832 263.2746582 -188.66552734 260.27514648 C-187.41459652 258.27359201 -186.16378285 256.27196431 -184.91308594 254.27026367 C-181.80328052 249.29344225 -178.69149989 244.31787852 -175.57543945 239.3449707 C-169.04043255 228.91074588 -162.54432692 218.45438003 -156.1027832 207.9621582 C-151.05129724 199.73521074 -145.96079887 191.53648312 -140.79077148 183.38354492 C-136.82790072 177.13373698 -132.89766873 170.86401022 -128.9777832 164.5871582 C-128.34735107 163.57766113 -127.71691895 162.56816406 -127.06738281 161.52807617 C-125.78268171 159.47053048 -124.49809576 157.41291289 -123.21362305 155.35522461 C-120.07439097 150.32719334 -116.93221169 145.3010048 -113.7902832 140.2746582 C-112.54026857 138.27466735 -111.29026858 136.27466734 -110.0402832 134.2746582 C-97.5402832 114.2746582 -85.0402832 94.2746582 -72.5402832 74.2746582 C-71.61179565 72.78905396 -71.61179565 72.78905396 -70.66455078 71.2734375 C-69.41705073 69.27746992 -68.16949233 67.28153881 -66.921875 65.28564453 C-63.1162132 59.19728129 -59.31254568 53.10767968 -55.51123047 47.01660156 C-54.24920737 44.99675112 -52.98540143 42.9780134 -51.71972656 40.96044922 C-48.76858221 36.25566429 -45.8377396 31.5416919 -42.9621582 26.7902832 C-42.17264771 25.50118042 -42.17264771 25.50118042 -41.3671875 24.18603516 C-40.39947754 22.60521861 -39.44157746 21.01832715 -38.49658203 19.42382812 C-32.77500971 10.14324209 -24.36107766 3.2274244 -13.64252663 0.67878151 C-9.11777714 -0.09858562 -4.57940091 -0.01102223 0 0 Z " fill="#1C1D1F" transform="translate(454.290283203125,276.725341796875)"/>
<path d="M0 0 C0.73307373 0.01888275 1.46614746 0.0377655 2.22143555 0.05722046 C3.00589554 0.0497731 3.79035553 0.04232574 4.59858704 0.03465271 C7.18675127 0.019164 9.77147061 0.05410919 12.359375 0.09115601 C14.1667305 0.0940615 15.97409166 0.09444489 17.78144836 0.09242249 C21.57051446 0.09563913 25.35842084 0.12259807 29.1472168 0.16757202 C33.98136638 0.22403886 38.81406072 0.23244996 43.64848614 0.22416401 C47.38317635 0.22135183 51.1175476 0.23905461 54.85215187 0.26329613 C56.63295163 0.27344666 58.41378763 0.27860417 60.19461632 0.2784977 C77.97844336 0.30700034 77.97844336 0.30700034 86.28515625 4.91537476 C87.83203125 5.75068726 87.83203125 5.75068726 89.41015625 6.60287476 C97.06608647 12.76090558 102.3116583 20.648686 107.34765625 28.97787476 C108.66122516 31.11473686 109.97503401 33.25145148 111.2890625 35.38803101 C111.95180176 36.4722937 112.61454102 37.5565564 113.29736328 38.67367554 C116.42584702 43.77561695 119.60681745 48.84440182 122.78515625 53.91537476 C124.02503307 55.89826419 125.26461514 57.88133796 126.50390625 59.86459351 C127.12136719 60.85249878 127.73882813 61.84040405 128.375 62.85824585 C130.35624453 66.02914872 132.33642401 69.2007148 134.31640625 72.37240601 C134.98091797 73.4365271 135.64542969 74.50064819 136.33007812 75.59701538 C137.58696901 77.60979868 138.8435087 79.62280135 140.09960938 81.63607788 C140.67646484 82.55969116 141.25332031 83.48330444 141.84765625 84.43490601 C142.40960693 85.3347522 142.97155762 86.23459839 143.55053711 87.16171265 C145.93805165 90.95182898 148.37104223 94.71240923 150.81079102 98.46908569 C155.78173007 106.71694284 156.68736611 115.59634478 154.60693359 124.97177124 C152.26411751 132.90649659 149.02466148 139.34813959 144.47265625 146.22787476 C143.12199411 148.32787685 141.77174533 150.42814485 140.421875 152.52865601 C139.73399902 153.58778198 139.04612305 154.64690796 138.33740234 155.73812866 C135.09363646 160.7600617 131.94254325 165.83887348 128.78515625 170.91537476 C127.54604184 172.89874071 126.30645646 174.8818125 125.06640625 176.86459351 C122.46100728 181.03309587 119.85704584 185.20249237 117.25390625 189.37240601 C116.58939453 190.4365271 115.92488281 191.50064819 115.24023438 192.59701538 C113.98334349 194.60979868 112.7268038 196.62280135 111.47070312 198.63607788 C108.50695647 203.38138398 105.5333577 208.12040126 102.54296875 212.84896851 C101.9927002 213.71964966 101.44243164 214.59033081 100.87548828 215.48739624 C95.10500056 224.29726735 87.68666606 230.34991962 77.40338898 233.48998451 C75.02476759 233.96766684 72.83165773 234.0533844 70.40515137 234.0692749 C69.42412445 234.07787537 68.44309753 234.08647583 67.43234253 234.09533691 C66.36218903 234.09959686 65.29203552 234.10385681 64.18945312 234.10824585 C63.05722321 234.11642334 61.92499329 234.12460083 60.75845337 234.13302612 C57.006943 234.15786048 53.25547052 234.17439397 49.50390625 234.18881226 C48.22070999 234.19413593 46.93751373 234.19945961 45.61543274 234.20494461 C40.21779738 234.22617225 34.82017427 234.24530009 29.42250824 234.256567 C21.71435019 234.27276749 14.00669925 234.30585387 6.29873228 234.36296785 C0.20760667 234.40654413 -5.88332223 234.42233307 -11.97459412 234.42869949 C-14.55484114 234.43539613 -17.13508126 234.45057642 -19.71522522 234.4745903 C-23.3385307 234.50638086 -26.96057475 234.50625653 -30.58398438 234.49887085 C-31.63794403 234.51527618 -32.69190369 234.53168152 -33.77780151 234.54858398 C-44.74802332 234.45765443 -54.26433014 230.5675811 -62.171875 222.91146851 C-67.19334694 216.99523352 -71.05915924 210.32881212 -75.04052734 203.68832397 C-78.03696861 198.72571389 -81.13420384 193.82597748 -84.21484375 188.91537476 C-85.47684277 186.89471643 -86.73856345 184.87388425 -88 182.85287476 C-93.20747092 174.52092129 -98.45820287 166.21636445 -103.71484375 157.91537476 C-98.86753688 148.45462231 -93.14752198 139.58956205 -87.44042969 130.63412476 C-84.40255836 125.84780117 -81.40356196 121.0372343 -78.40234375 116.22787476 C-77.77271729 115.21958618 -77.14309082 114.21129761 -76.49438477 113.17245483 C-75.20883256 111.11371173 -73.92343283 109.05487341 -72.63818359 106.99594116 C-69.49895152 101.96790989 -66.35677224 96.94172135 -63.21484375 91.91537476 C-61.96482911 89.9153839 -60.71482913 87.9153839 -59.46484375 85.91537476 C-51.96484375 73.91537476 -44.46484375 61.91537476 -36.96484375 49.91537476 C-36.03551025 48.42832031 -36.03551025 48.42832031 -35.08740234 46.91122437 C-33.84583335 44.92487584 -32.60397457 42.93870842 -31.36181641 40.95272827 C-28.10533938 35.74536047 -24.85496947 30.53430756 -21.61328125 25.31771851 C-20.93974609 24.23555054 -20.26621094 23.15338257 -19.57226562 22.03842163 C-18.28783987 19.97448231 -17.0051749 17.90944575 -15.72460938 15.84310913 C-14.8496582 14.43835327 -14.8496582 14.43835327 -13.95703125 13.00521851 C-13.19688721 11.78113281 -13.19688721 11.78113281 -12.42138672 10.53231812 C-11.85822754 9.66872681 -11.29506836 8.8051355 -10.71484375 7.91537476 C-10.39098348 7.3356831 -10.0671232 6.75599144 -9.73344898 6.15873337 C-7.11594315 1.86296804 -5.3404958 0.12055002 0 0 Z " fill="#1C1D1F" transform="translate(619.71484375,493.0846252441406)"/>
<path d="M0 0 C7.1718748 2.27546306 11.5510731 12.79954178 15.1472168 19.00756836 C19.43633013 26.28085736 23.84253813 33.46002919 28.3972168 40.57006836 C33.55528135 48.63289196 38.68618316 56.71155874 43.7722168 64.82006836 C44.40812744 65.82908203 45.04403809 66.8380957 45.69921875 67.87768555 C55.06524419 82.83391081 55.06524419 82.83391081 53.5847168 91.82006836 C50.19497993 101.88093122 43.13758895 110.99388564 37.4284668 119.84350586 C33.61232901 125.75968288 29.87090322 131.72038397 26.1472168 137.69506836 C25.21437866 139.19021973 25.21437866 139.19021973 24.26269531 140.71557617 C23.00011507 142.73948269 21.73782696 144.76357147 20.47583008 146.7878418 C17.34928255 151.80097377 14.21671518 156.81034079 11.0847168 161.82006836 C9.83468753 163.82005007 8.58468754 165.82005007 7.3347168 167.82006836 C-0.1652832 179.82006836 -0.1652832 179.82006836 -2.04003906 182.81958008 C-3.29096989 184.82113455 -4.54178355 186.82276225 -5.79248047 188.82446289 C-8.90228589 193.80128431 -12.01406652 198.77684804 -15.13012695 203.74975586 C-21.66513385 214.18398068 -28.16123948 224.64034654 -34.6027832 235.13256836 C-40.12942184 244.13335863 -45.71764037 253.09073059 -51.37231445 262.01147461 C-60.22547303 275.98354872 -68.94824286 290.03679176 -77.6027832 304.13256836 C-82.65430013 312.35949725 -87.74476722 320.55824295 -92.91479492 328.71118164 C-96.87766669 334.96099116 -100.80767351 341.2308551 -104.7277832 347.50756836 C-105.35096436 348.50473877 -105.97414551 349.50190918 -106.61621094 350.52929688 C-109.92653618 355.82810873 -113.23082462 361.13060189 -116.52856445 366.43725586 C-117.20040771 367.516604 -117.87225098 368.59595215 -118.56445312 369.70800781 C-119.84648666 371.76784744 -121.12670707 373.82881707 -122.40478516 375.89111328 C-124.05799055 378.54541752 -125.72783783 381.18742163 -127.4152832 383.82006836 C-127.8807959 384.55 -128.34630859 385.27993164 -128.82592773 386.03198242 C-130.1184082 387.96459961 -130.1184082 387.96459961 -132.4152832 390.82006836 C-136.0402832 391.44506836 -136.0402832 391.44506836 -139.4152832 390.82006836 C-142.05347512 388.65927565 -143.68099367 386.00317334 -145.4621582 383.12084961 C-146.05182373 382.17161621 -146.64148926 381.22238281 -147.24902344 380.24438477 C-147.88138916 379.21748535 -148.51375488 378.19058594 -149.1652832 377.13256836 C-150.52582124 374.93847171 -151.8865022 372.74446369 -153.24731445 370.55053711 C-153.94163574 369.42824707 -154.63595703 368.30595703 -155.35131836 367.1496582 C-157.893779 363.04815854 -160.45553382 358.95896937 -163.01904297 354.87060547 C-168.76393304 345.70524564 -174.47483628 336.51895609 -180.15310669 327.31219482 C-181.20558872 325.60604718 -182.2595172 323.90079208 -183.31347656 322.19555664 C-184.27072632 320.64070557 -184.27072632 320.64070557 -185.24731445 319.05444336 C-185.81168213 318.13888672 -186.3760498 317.22333008 -186.95751953 316.2800293 C-189.35004074 312.2426748 -190.7352068 309.4396221 -190.8527832 304.69506836 C-190.89274414 303.82624023 -190.93270508 302.95741211 -190.97387695 302.06225586 C-189.50260583 293.52271019 -183.75805562 285.95997102 -179.1027832 278.82006836 C-173.73122795 270.48402949 -168.46978625 262.08927974 -163.2902832 253.63256836 C-158.22576454 245.37226363 -153.12406799 237.13972387 -147.93359375 228.95800781 C-143.16936725 221.44621417 -138.45877243 213.90126053 -133.75292969 206.3527832 C-130.19483633 200.64995965 -126.60775487 194.96687364 -122.99414062 189.29907227 C-120.97421258 186.12753224 -118.97037119 182.94634013 -116.9777832 179.75756836 C-116.5758374 179.114729 -116.1738916 178.47188965 -115.75976562 177.80957031 C-110.87009723 169.97154776 -106.04084908 162.09605194 -101.21240234 154.22021484 C-97.01167464 147.3776579 -92.74689021 140.58048353 -88.4152832 133.82006836 C-84.0029931 126.92300294 -79.66418934 119.9875153 -75.3840332 113.00756836 C-73.02662628 109.1908143 -70.61346867 105.41177654 -68.1965332 101.63256836 C-66.24122134 98.54523384 -64.32563492 95.43541116 -62.4152832 92.32006836 C-59.3925965 87.39076389 -56.3117909 82.50369857 -53.1965332 77.63256836 C-51.24122134 74.54523384 -49.32563492 71.43541116 -47.4152832 68.32006836 C-44.3925965 63.39076389 -41.3117909 58.50369857 -38.1965332 53.63256836 C-36.24122134 50.54523384 -34.32563492 47.43541116 -32.4152832 44.32006836 C-29.3925965 39.39076389 -26.3117909 34.50369857 -23.1965332 29.63256836 C-21.24122134 26.54523384 -19.32563492 23.43541116 -17.4152832 20.32006836 C-16.75012695 19.23983398 -16.0849707 18.15959961 -15.3996582 17.04663086 C-14.09175054 14.91999359 -12.78952193 12.78985163 -11.4934082 10.65600586 C-10.89012695 9.67889648 -10.2868457 8.70178711 -9.6652832 7.69506836 C-9.13418945 6.82624023 -8.6030957 5.95741211 -8.0559082 5.06225586 C-4.12686289 -0.3074394 -4.12686289 -0.3074394 0 0 Z " fill="#FAFAFA" transform="translate(569.415283203125,306.179931640625)"/>
<path d="M0 0 C2.74315679 0.43911369 3.69241638 0.9776119 5.53857422 3.09985352 C6.0801416 3.91381592 6.62170898 4.72777832 7.1796875 5.56640625 C8.09016846 6.9265686 8.09016846 6.9265686 9.01904297 8.31420898 C12.01581311 12.95364436 14.96965597 17.61522081 17.875 22.3125 C19.19395145 24.43363042 20.51296363 26.55472308 21.83203125 28.67578125 C22.50057129 29.7529541 23.16911133 30.83012695 23.85791016 31.93994141 C27.08314768 37.13264409 30.32276252 42.3163363 33.5625 47.5 C34.48603271 48.97980347 34.48603271 48.97980347 35.42822266 50.48950195 C38.41742966 55.27532462 41.41900043 60.05252159 44.44921875 64.8125 C45.00714111 65.68994873 45.56506348 66.56739746 46.13989258 67.47143555 C47.18503169 69.11275561 48.23288967 70.75234872 49.28393555 72.38989258 C49.97483276 73.47500122 49.97483276 73.47500122 50.6796875 74.58203125 C51.08171387 75.20956299 51.48374023 75.83709473 51.89794922 76.48364258 C53.83724238 79.86553337 54.1203729 82.92600051 54.25 86.75 C54.32347656 88.20599609 54.32347656 88.20599609 54.3984375 89.69140625 C53.17956933 97.83235412 47.90752025 105.00552182 43.5 111.8125 C42.43553892 113.47744344 41.37176989 115.14282949 40.30859375 116.80859375 C39.75026855 117.68112793 39.19194336 118.55366211 38.61669922 119.45263672 C35.5674871 124.24059217 32.56684264 129.05881247 29.5625 133.875 C28.94165527 134.86870605 28.32081055 135.86241211 27.68115234 136.88623047 C24.34618397 142.22440374 21.01660573 147.56589256 17.69140625 152.91015625 C17.01053955 154.00303955 16.32967285 155.09592285 15.62817383 156.22192383 C14.32049132 158.32106903 13.01427184 160.42112655 11.7097168 162.5222168 C11.119729 163.4687915 10.52974121 164.41536621 9.921875 165.390625 C9.40463867 166.22239258 8.88740234 167.05416016 8.35449219 167.91113281 C7.86625977 168.66233398 7.37802734 169.41353516 6.875 170.1875 C6.3893457 170.93741211 5.90369141 171.68732422 5.40332031 172.45996094 C3.875 174.1875 3.875 174.1875 0.375 174.625 C-3.44271129 174.14778609 -3.80564144 173.97126894 -6.125 171.1875 C-7.17901087 169.64666134 -8.19049828 168.07636891 -9.171875 166.48828125 C-9.76162109 165.53888672 -10.35136719 164.58949219 -10.95898438 163.61132812 C-11.90741211 162.0712207 -11.90741211 162.0712207 -12.875 160.5 C-14.23426788 158.3085273 -15.5936459 156.11712292 -16.953125 153.92578125 C-17.64728516 152.80381348 -18.34144531 151.6818457 -19.05664062 150.52587891 C-22.23044514 145.40328649 -25.42832471 140.29583786 -28.625 135.1875 C-29.85941679 133.2109636 -31.09379152 131.23440093 -32.328125 129.2578125 C-34.97700577 125.0187729 -37.63463555 120.78534935 -40.296875 116.5546875 C-40.97943359 115.46800781 -41.66199219 114.38132812 -42.36523438 113.26171875 C-43.67160252 111.18219395 -44.98008083 109.10399275 -46.29101562 107.02734375 C-54.55406407 93.86065016 -54.55406407 93.86065016 -54.625 87.9375 C-54.6559375 87.08671875 -54.686875 86.2359375 -54.71875 85.359375 C-53.2060158 77.27818968 -47.9665273 70.0644831 -43.5625 63.25 C-42.49468863 61.5781908 -41.4269832 59.90631395 -40.359375 58.234375 C-39.81990234 57.39326172 -39.28042969 56.55214844 -38.72460938 55.68554688 C-36.23712939 51.80094748 -33.77450821 47.90077409 -31.3125 44 C-30.83014893 43.2371167 -30.34779785 42.4742334 -29.85083008 41.68823242 C-26.96841366 37.12514767 -24.10176355 32.55253052 -21.24609375 27.97265625 C-20.58262939 26.90877686 -19.91916504 25.84489746 -19.2355957 24.7487793 C-17.94766877 22.68204691 -16.66097243 20.61454695 -15.37573242 18.54614258 C-3.96889743 0.23813385 -3.96889743 0.23813385 0 0 Z " fill="#FBFBFB" transform="translate(704.125,522.8125)"/>
</svg>
