<svg width="526" height="525" viewBox="0 0 526 525" fill="none" xmlns="http://www.w3.org/2000/svg">
<path d="M422.656 469.583C423.351 469.583 423.657 470.468 423.103 470.891C378.872 504.826 323.523 525 263.464 525C203.405 525 148.057 504.831 103.826 470.891C103.272 470.468 103.578 469.583 104.273 469.583H422.656ZM491.129 393.264C481.961 409.194 471.165 424.069 458.978 437.665C458.516 438.181 457.855 438.472 457.165 438.472H69.769C69.0787 438.472 68.4176 438.181 67.9558 437.665C55.7641 424.069 44.9725 409.194 35.8045 393.264C35.4301 392.618 35.9017 391.806 36.6503 391.806H490.283C491.032 391.806 491.504 392.618 491.129 393.264ZM520.772 314.709C517.651 330.162 513.174 345.125 507.472 359.47C507.176 360.209 506.456 360.695 505.659 360.695H21.2698C20.4725 360.695 19.7531 360.209 19.4566 359.47C13.7545 345.129 9.27743 330.167 6.1566 314.709C6.03507 314.106 6.49688 313.542 7.11424 313.542H519.815C520.427 313.542 520.894 314.106 520.772 314.709ZM261.69 0.00585192C407.479 -0.956646 525.964 116.935 525.964 262.5C525.964 268.898 525.735 275.241 525.288 281.527C525.254 282.037 524.826 282.431 524.316 282.431H2.61772C2.1073 282.431 1.67953 282.037 1.6455 281.527C1.19828 275.324 0.969806 269.058 0.964945 262.739C0.838557 119.915 118.871 0.953767 261.69 0.00585192Z" fill="#FF631F"/>
</svg>
