<?xml version="1.0" encoding="UTF-8"?>
<svg version="1.1" xmlns="http://www.w3.org/2000/svg" width="160" height="160">
<path d="M0 0 C0.97704895 -0.00861557 1.9540979 -0.01723114 2.96075439 -0.02610779 C6.16047375 -0.04863593 9.35930774 -0.04205228 12.55908203 -0.03295898 C14.80290992 -0.03820081 17.0467356 -0.04447933 19.29055786 -0.05174255 C23.98254804 -0.06212291 28.67423451 -0.05761979 33.36621094 -0.04296875 C39.35349467 -0.02579545 45.33981738 -0.04927176 51.32699394 -0.08445835 C55.95812232 -0.10651084 60.58902359 -0.10497166 65.22018814 -0.09669304 C67.42640359 -0.09587762 69.6326364 -0.10266193 71.83880234 -0.11746407 C87.05635384 -0.20391742 99.14418581 0.17446285 110.71923828 11.28735352 C118.20455132 19.8102347 120.99344762 28.27032857 120.98242188 39.41918945 C120.9891391 40.39886688 120.99585632 41.37854431 121.0027771 42.38790894 C121.02173623 45.61876534 121.02568046 48.84941373 121.02783203 52.08032227 C121.03426206 54.33465662 121.04099058 56.58899014 121.04800415 58.84332275 C121.05997219 63.56752455 121.06368552 68.29165326 121.0625 73.01586914 C121.062297 79.05262748 121.08958269 85.08891409 121.12404442 91.12556076 C121.14634587 95.78230925 121.15033652 100.43894486 121.14928055 105.09574127 C121.15163224 107.32036207 121.16043128 109.54498619 121.17594528 111.76955414 C121.19566773 114.89007523 121.18974196 118.00958761 121.17773438 121.13012695 C121.18897339 122.03852325 121.2002124 122.94691956 121.21179199 123.88284302 C121.10546302 134.8252811 116.52164967 143.33750148 109.13720703 151.18579102 C97.58171667 162.05016353 84.33084154 161.26102382 69.43798828 161.16235352 C67.16837958 161.16318336 64.89877095 161.16564711 62.62916565 161.16966248 C57.88760142 161.17251135 53.14651194 161.15790675 48.4050293 161.13037109 C42.34704125 161.09627112 36.28990036 161.10232215 30.2318716 161.12103367 C25.55020669 161.13163363 20.86873674 161.12263886 16.18708992 161.10764885 C13.95411827 161.10248992 11.72112607 161.10292083 9.48815727 161.1091938 C6.36088579 161.11468298 3.23480191 161.09415254 0.10766602 161.06689453 C-1.25717171 161.07668335 -1.25717171 161.07668335 -2.64958191 161.08666992 C-13.59122246 160.92562286 -22.10695042 156.36810379 -29.96044922 148.97875977 C-40.82482174 137.4232694 -40.03568203 124.17239427 -39.93701172 109.27954102 C-39.93784157 107.00993232 -39.94030531 104.74032368 -39.94432068 102.47071838 C-39.94716955 97.72915416 -39.93256495 92.98806467 -39.9050293 88.24658203 C-39.87092932 82.18859399 -39.87698035 76.13145309 -39.89569187 70.07342434 C-39.90629183 65.39175942 -39.89729706 60.71028947 -39.88230705 56.02864265 C-39.87714812 53.79567101 -39.87757903 51.5626788 -39.88385201 49.32971001 C-39.88934118 46.20243853 -39.86881075 43.07635465 -39.84155273 39.94921875 C-39.84807861 39.03932693 -39.85460449 38.12943512 -39.86132812 37.19197083 C-39.70573367 26.62078404 -35.47527589 18.16963498 -28.30810547 10.53344727 C-20.18066506 2.94670975 -10.97245116 -0.07965214 0 0 Z " fill="#222220" transform="translate(39.30810546875,-0.533447265625)"/>
<path d="M0 0 C8.95159816 5.42809676 15.71633506 11.94751121 18.8359375 22.11328125 C19.31627148 26.32550492 19.37841645 30.49649484 19.35235786 34.73399925 C19.33957925 36.82452051 19.35114748 38.91374998 19.36839294 41.00422668 C19.39492859 44.68606391 19.40069459 48.36757701 19.39929199 52.04949951 C19.39705186 57.95145652 19.41132511 63.8530148 19.45487785 69.75481606 C19.46466178 71.80560832 19.45603189 73.85576153 19.44618225 75.90653992 C19.45306564 77.15836563 19.45994904 78.41019135 19.46704102 79.69995117 C19.46607925 80.79643478 19.46511749 81.8929184 19.46412659 83.02262878 C20.13214668 88.57549955 22.97563448 93.14574759 26.8359375 97.11328125 C32.97060578 100.67138885 39.14013213 101.2851548 46.04296875 99.5625 C51.38698788 97.40649993 54.07702485 93.75837144 56.76953125 88.76953125 C58.99301931 83.23117271 58.41796771 78.95127139 56.6484375 73.36328125 C53.78783576 68.23392641 50.14963937 64.61343717 44.8359375 62.11328125 C41.40439978 61.61223554 37.98728197 61.51145938 34.5234375 61.42578125 C33.59208984 61.39162109 32.66074219 61.35746094 31.70117188 61.32226562 C29.41317409 61.24013237 27.12457637 61.17502128 24.8359375 61.11328125 C24.8359375 57.48328125 24.8359375 53.85328125 24.8359375 50.11328125 C28.48258714 50.00451622 32.12593671 49.92559365 35.7734375 49.86328125 C36.79501953 49.82976562 37.81660156 49.79625 38.86914062 49.76171875 C48.71415774 49.63590383 55.79689665 52.36096214 63.04296875 59.04296875 C69.92442932 66.98888183 71.53729456 75.93061585 70.8359375 86.11328125 C68.91268316 95.50137025 62.64752485 102.9617132 55.27734375 108.703125 C47.5149175 113.1867024 38.50163676 112.93532387 29.8359375 112.11328125 C20.8342128 109.50138186 14.51779121 103.3604946 9.9609375 95.36328125 C7.51077893 90.72258356 6.71212947 87.19402787 6.70996094 81.93286133 C6.70615417 80.65756058 6.70234741 79.38225983 6.69842529 78.0683136 C6.69823143 77.38671991 6.69803757 76.70512623 6.69783783 76.00287819 C6.69441213 73.12693583 6.6730325 70.25121746 6.65260696 67.37535381 C6.61466385 62.02453905 6.58331577 56.67396281 6.58544922 51.32299805 C6.58623972 47.5974251 6.56272868 43.8726725 6.5235672 40.14731407 C6.51315479 38.73330061 6.51154796 37.3191919 6.51921844 35.9051609 C6.55827921 27.90311151 6.58175728 21.17750584 0.8359375 15.11328125 C-4.5226923 10.75570506 -10.53766304 9.64814953 -17.33984375 10.33203125 C-23.42284378 11.52342862 -26.13848198 14.65364776 -29.9140625 19.23828125 C-32.93125818 23.76407476 -32.83676449 28.88283428 -32.1640625 34.11328125 C-29.80239768 40.42412001 -26.27337779 45.05862361 -20.1640625 48.11328125 C-18.57144184 48.26503674 -16.97341394 48.3622845 -15.375 48.4296875 C-14.43398438 48.47158203 -13.49296875 48.51347656 -12.5234375 48.55664062 C-11.04617187 48.61561523 -11.04617187 48.61561523 -9.5390625 48.67578125 C-8.05019531 48.74055664 -8.05019531 48.74055664 -6.53125 48.80664062 C-4.07569217 48.91289072 -1.61989599 49.0136058 0.8359375 49.11328125 C0.8359375 53.07328125 0.8359375 57.03328125 0.8359375 61.11328125 C-2.64408685 61.22212649 -6.12064313 61.30100282 -9.6015625 61.36328125 C-11.06239258 61.41355469 -11.06239258 61.41355469 -12.55273438 61.46484375 C-22.28101715 61.594988 -29.25554928 58.71436125 -36.375 52.10546875 C-42.8286587 44.91908024 -45.63873117 36.45870595 -45.40625 26.9140625 C-44.67656368 18.4755933 -41.04844361 12.13345577 -35.1640625 6.11328125 C-25.34774532 -1.7532195 -12.04491424 -5.54907621 0 0 Z " fill="#F6F5E3" transform="translate(67.1640625,24.88671875)"/>
<path d="M0 0 C0.66 0.33 1.32 0.66 2 1 C-0.97 3.97 -3.94 6.94 -7 10 C-7 7 -7 7 -4.625 4.4375 C-3.75875 3.633125 -2.8925 2.82875 -2 2 C-1.34 1.34 -0.68 0.68 0 0 Z " fill="#42423E" transform="translate(44,36)"/>
</svg>
