<svg width="160" height="160" viewBox="0 0 160 160" fill="none" xmlns="http://www.w3.org/2000/svg">
<g clip-path="url(#clip0_2982_3898)">
<mask id="mask0_2982_3898" style="mask-type:luminance" maskUnits="userSpaceOnUse" x="0" y="0" width="160" height="160">
<path d="M160 0H0V160H160V0Z" fill="white"/>
</mask>
<g mask="url(#mask0_2982_3898)">
<path d="M26.6251 139.962C8.87503 122.823 0 103.27 0 81.3033C0 34.3639 36.4083 0 79.7251 0C123.491 0 160 34.3639 160 81.3033C160 125.67 120.857 160 86.6697 160C72.51 160 62.2817 154.645 56.9326 146.307C55.0394 143.356 53.3517 138.598 53.0109 135.714C52.7837 133.792 52.7837 127.414 53.0109 116.58C53.0109 110.268 53.0109 102.202 53.0109 92.3825C53.2123 77.7668 54.772 58.4302 48.9769 62.8876C47.2586 64.5459 46.5669 66.2702 42.8869 66.4276C39.2043 66.159 38.1686 62.2133 38.7771 60.0905C40.962 52.4716 47.3863 46.3682 57.5929 47.4699C67.7994 48.5716 71.7251 55.329 71.9949 64.4516C71.9949 75.4822 71.7251 87.5179 71.7251 88.9165V90.0976C71.7754 91.1936 71.6166 92.0802 72.9071 91.3456C74.2271 90.4482 75.3657 89.6702 76.3226 89.0122C83.3086 83.7179 100.452 78.133 113.757 91.3456C118.82 96.3739 125.054 107.292 121.424 124.139C120.841 125.904 121.308 126.138 122.825 124.84C124.079 123.591 141.254 108.118 141.254 78.8385C141.254 46.0173 112.477 18.6172 79.7251 18.6172C51.1857 18.6172 18.5251 41.337 18.5251 81.3033C18.5251 93.7202 22.9751 109.078 33.8694 121.072C35.6491 123.117 36.998 124.552 37.916 125.38C42.8869 129.655 43.5411 135.036 40.2383 138.946C35.9923 143.23 31.4549 143.568 26.6251 139.962ZM86.8769 141.777C101.703 141.538 104.094 126.132 104.174 117.432C104.174 104.581 97.6377 100.032 87.8334 102.027C79.9423 103.624 71.9711 111.845 71.0946 123.259C70.9351 125.175 70.8554 128.288 71.0149 131.241C71.4131 139.063 77.9494 141.937 86.8769 141.777Z" fill="#F36600"/>
</g>
</g>
<defs>
<clipPath id="clip0_2982_3898">
<rect width="160" height="160" fill="white"/>
</clipPath>
</defs>
</svg>
