<svg width="160" height="160" viewBox="0 0 160 160" fill="none" xmlns="http://www.w3.org/2000/svg">
<path fill-rule="evenodd" clip-rule="evenodd" d="M65.0537 14.4857C65.0537 10.8493 62.2772 7.90137 58.8521 7.90137H44.1552C40.7302 7.90137 37.9536 10.8493 37.9536 14.4857V30.0896C37.9536 33.7261 35.1771 36.674 31.7521 36.674H17.9845C14.5595 36.674 11.783 39.6219 11.783 43.2583V139.426C11.783 143.062 14.5595 146.01 17.9845 146.01H32.6813C36.1062 146.01 38.8828 143.062 38.8828 139.426V43.2584C38.8828 39.6219 41.6593 36.674 45.0844 36.674H58.8521C62.2772 36.674 65.0537 33.7261 65.0537 30.0897V14.4857ZM119.253 14.4857C119.253 10.8493 116.476 7.90137 113.052 7.90137H98.3547C94.9296 7.90137 92.1532 10.8493 92.1532 14.4857V30.0897C92.1532 33.7261 94.9296 36.674 98.3547 36.674H112.122C115.547 36.674 118.324 39.6219 118.324 43.2584V139.426C118.324 143.062 121.101 146.01 124.525 146.01H139.222C142.647 146.01 145.424 143.062 145.424 139.426V43.2583C145.424 39.6219 142.647 36.674 139.222 36.674H125.455C122.03 36.674 119.253 33.726 119.253 30.0896V14.4857ZM92.1532 69.5646C92.1532 65.9287 89.3768 62.9802 85.9516 62.9802H71.2552C67.8301 62.9802 65.0537 65.9287 65.0537 69.5646V112.297C65.0537 115.934 67.8301 118.881 71.2552 118.881H85.9516C89.3768 118.881 92.1532 115.934 92.1532 112.297V69.5646Z" fill="#5353D3"/>
</svg>
