<svg width="1024" height="1024" viewBox="0 0 1024 1024" fill="none" xmlns="http://www.w3.org/2000/svg">
<g clip-path="url(#clip0_657_38514)">
<path d="M1024 0H0.1V1023.9H1024V0Z" fill="#000710"/>
<path d="M697.1 244.2C663.2 244.2 631.3 259.9 611.1 287L590.1 314.8C581.6 326.1 567.9 333 553.8 333H180V779.8H326.5C360.4 779.8 392.3 764.1 412.5 737L433.5 709.2C442 697.9 455.7 691 469.8 691H844V244.2H697.1ZM727.7 574.8H571.1C537.2 574.8 505.3 590.5 485.1 617.6L464.1 645.4C455.6 656.7 441.9 663.6 427.8 663.6H296.3V449.2H452.9C486.8 449.2 518.7 433.5 538.9 406.4L559.9 378.6C568.4 367.3 582.1 360.4 596.2 360.4H728.2L727.7 574.8Z" fill="#F3F3F7"/>
</g>
<defs>
<clipPath id="clip0_657_38514">
<rect width="1024" height="1024" fill="white"/>
</clipPath>
</defs>
</svg>
