<svg width="160" height="160" viewBox="0 0 160 160" fill="none" xmlns="http://www.w3.org/2000/svg">
<g clip-path="url(#clip0_3460_3911)">
<path d="M160 0H0V160H160V0Z" fill="#F5F5F5"/>
<path d="M188.475 -50.1699H-27.1187V181.694H188.475V-50.1699Z" fill="white"/>
<path d="M66.1153 147.167C56.8587 147.167 48.2387 145.49 40.2549 142.134C32.3869 138.778 25.5024 134.092 19.6014 128.076C13.7004 122.059 9.07211 115.001 5.71663 106.902C2.47686 98.8022 0.856964 89.9506 0.856964 80.347C0.856964 70.7433 2.47686 61.8918 5.71663 53.7924C8.95639 45.5772 13.5268 38.5192 19.4278 32.6182C25.3288 26.6015 32.2133 21.9731 40.0814 18.7334C48.0651 15.3779 56.7431 13.7002 66.1153 13.7002C75.4875 13.7002 83.8762 15.2622 91.2814 18.3863C98.8023 21.5104 105.166 25.6758 110.373 30.8826C115.58 36.0893 119.282 41.8747 121.481 48.2385L97.7031 59.6934C95.5047 53.4453 91.6285 48.2964 86.0746 44.2466C80.6364 40.0812 73.9833 37.9985 66.1153 37.9985C58.4787 37.9985 51.7677 39.792 45.9824 43.3788C40.197 46.9657 35.6845 51.9411 32.4448 58.3049C29.3207 64.5531 27.7587 71.9005 27.7587 80.347C27.7587 88.7935 29.3207 96.1988 32.4448 102.563C35.6845 108.926 40.197 113.902 45.9824 117.489C51.7677 121.076 58.4787 122.869 66.1153 122.869C73.9833 122.869 80.6364 120.844 86.0746 116.794C91.6285 112.629 95.5047 107.422 97.7031 101.174L121.481 112.629C119.282 118.993 115.58 124.778 110.373 129.985C105.166 135.192 98.8023 139.357 91.2814 142.481C83.8762 145.605 75.4875 147.167 66.1153 147.167Z" fill="#F24E1D"/>
<path d="M146.441 146.441C153.18 146.441 158.644 140.977 158.644 134.238C158.644 127.498 153.18 122.034 146.441 122.034C139.701 122.034 134.237 127.498 134.237 134.238C134.237 140.977 139.701 146.441 146.441 146.441Z" fill="#4262FF"/>
</g>
<defs>
<clipPath id="clip0_3460_3911">
<rect width="160" height="160" fill="white"/>
</clipPath>
</defs>
</svg>
