<svg width="160" height="160" viewBox="0 0 160 160" fill="none" xmlns="http://www.w3.org/2000/svg"><style>@media (prefers-color-scheme: dark) {         path { fill: #121F31 }         rect { fill: #22FFC0 }         }</style><path width="32" height="32" rx="16" fill="#121F31" d="M80 0H80A80 80 0 0 1 160 80V80A80 80 0 0 1 80 160H80A80 80 0 0 1 0 80V80A80 80 0 0 1 80 0z"/><path d="M30 72.47a49 49 0 0 1 4.69 -14.67 1.1 1.1 0 0 1 1.3 -0.535l19.515 6.215a1.1 1.1 0 0 0 1.22 -1.7L44.705 45.55a1.08 1.08 0 0 1 0.11 -1.425 51 51 0 0 1 11.93 -8.5 1.1 1.1 0 0 1 1.37 0.33l12.075 16.31a1.1 1.1 0 0 0 1.985 -0.655v-20.05c0 -0.55 0.4 -1.01 0.935 -1.08Q76.56 30 80.15 30c24.925 0 45.57 17.24 49.835 40.585a1.08 1.08 0 0 1 -1.075 1.265H102.95a1.15 1.15 0 0 1 -1.035 -0.69 23.2 23.2 0 0 0 -21.355 -13.9c-12.8 0 -23.18 10.185 -23.18 22.735s10.38 22.73 23.18 22.73c9.87 0 18.295 -6.055 21.635 -14.58h26.71c0.68 0 1.2 0.61 1.07 1.275C125.5 112.53 104.895 130 80.15 130c-5.11 0 -6.955 -0.285 -7.615 -0.47 -0.24 -0.065 -0.35 -0.28 -0.35 -0.53v-20.61a1.1 1.1 0 0 0 -1.99 -0.65l-12.08 16.305a1.075 1.075 0 0 1 -1.365 0.32c-3.915 -2.075 -8.63 -5.58 -11.89 -8.495a1.08 1.08 0 0 1 -0.14 -1.45l12.005 -16.2a1.1 1.1 0 0 0 -1.22 -1.7l-19.64 6.255a1 1 0 0 1 -1.18 -0.42c-0.94 -1.575 -3.21 -6.005 -4.535 -13.9a1.1 1.1 0 0 1 0.745 -1.215l19.445 -6.2a1.1 1.1 0 0 0 0 -2.09zc0 -0.015 0 0.01 0 0" fill="#22FFC0"/></svg>