<?xml version="1.0" encoding="UTF-8"?>
<svg xmlns="http://www.w3.org/2000/svg" xmlns:xlink="http://www.w3.org/1999/xlink" width="160px" height="160px" viewBox="0 0 160 160" version="1.1">
<defs>
<clipPath id="clip1">
  <path d="M 10.667969 0 L 149.332031 0 L 149.332031 160 L 10.667969 160 Z M 10.667969 0 "/>
</clipPath>
</defs>
<g id="surface1">
<g clip-path="url(#clip1)" clip-rule="nonzero">
<path style=" stroke:none;fill-rule:nonzero;fill:rgb(65.882355%,90.196079%,79.215688%);fill-opacity:1;" d="M 90.667969 160 C 46.398438 160 10.667969 124.265625 10.667969 80 C 10.667969 35.734375 46.398438 0 90.667969 0 C 112 0 132.265625 8.535156 147.199219 23.464844 C 149.867188 26.132812 149.867188 30.398438 147.199219 33.066406 C 144.535156 35.734375 140.265625 35.734375 137.601562 33.066406 C 124.800781 20.265625 108.265625 13.332031 90.667969 13.332031 C 53.867188 13.332031 24 43.199219 24 80 C 24 116.800781 53.867188 146.667969 90.667969 146.667969 C 108.265625 146.667969 125.332031 139.734375 137.601562 126.933594 C 140.265625 124.265625 144.535156 124.265625 147.199219 126.933594 C 149.867188 129.601562 149.867188 133.867188 147.199219 136.535156 C 132.265625 151.464844 112 160 90.667969 160 Z M 90.667969 160 "/>
</g>
<path style=" stroke:none;fill-rule:nonzero;fill:rgb(100%,80.784315%,47.843137%);fill-opacity:1;" d="M 89.605469 133.867188 C 60.269531 133.867188 36.269531 109.867188 36.269531 80.003906 C 36.269531 50.136719 60.269531 26.136719 89.605469 26.136719 C 104.003906 26.136719 117.335938 32.003906 127.472656 42.136719 C 130.136719 44.800781 130.136719 49.070312 127.472656 51.734375 C 124.804688 54.402344 120.539062 54.402344 117.871094 51.734375 C 110.402344 44.269531 100.269531 40.003906 89.070312 40.003906 C 66.671875 40.003906 48.539062 58.136719 48.539062 80.535156 C 48.539062 102.933594 66.671875 121.070312 89.070312 121.070312 C 99.738281 121.070312 109.871094 116.800781 117.871094 109.335938 C 120.539062 106.667969 124.804688 106.667969 127.472656 109.335938 C 130.136719 112.003906 130.136719 116.269531 127.472656 118.933594 C 117.871094 128.003906 104.003906 133.867188 89.605469 133.867188 Z M 89.605469 133.867188 "/>
<path style=" stroke:none;fill-rule:nonzero;fill:rgb(93.333334%,51.764709%,56.862748%);fill-opacity:1;" d="M 89.601562 108.796875 C 73.601562 108.796875 60.800781 95.996094 60.800781 79.996094 C 60.800781 63.996094 73.601562 51.199219 89.601562 51.199219 C 97.070312 51.199219 104.535156 54.398438 109.867188 59.730469 C 112.535156 62.398438 112.535156 66.664062 109.867188 69.332031 C 107.203125 71.996094 102.933594 71.996094 100.269531 69.332031 C 97.601562 66.664062 93.335938 65.066406 89.601562 65.066406 C 81.070312 65.066406 74.667969 71.996094 74.667969 79.996094 C 74.667969 87.996094 81.601562 94.929688 89.601562 94.929688 C 93.867188 94.929688 97.601562 93.332031 100.269531 90.664062 C 102.933594 87.996094 107.203125 87.996094 109.867188 90.664062 C 112.535156 93.332031 112.535156 97.597656 109.867188 100.265625 C 104.535156 105.597656 97.601562 108.796875 89.601562 108.796875 Z M 89.601562 108.796875 "/>
</g>
</svg>
