<svg width="128" height="128" viewBox="0 0 128 128" fill="none" xmlns="http://www.w3.org/2000/svg">
<path d="M50.9111 109.428C52.3184 108.758 52.1118 103.229 51.8325 100.548C51.8325 87.3128 50.9111 83.8782 54.5969 68.3808C58.2828 52.8834 67.9722 44.6182 72.1048 42.4122C78.2053 38.0324 82.1001 37.6966 88.8587 39.3128C97.0681 41.0719 102.011 44.4227 106.199 50.2028C110.388 55.9829 112.984 61.763 113.906 65.7002C114.643 68.8499 114.939 72.9882 114.995 74.6636C115.051 78.4053 115.146 86.6426 115.079 89.6583C114.995 93.4279 114.911 94.0981 114.744 94.852C114.61 95.4552 114.241 95.9969 114.073 96.1924C118.011 96.7787 119.351 96.4437 122.702 95.606C126.052 94.7683 126.052 93.2604 126.052 86.3913C126.052 80.896 125.103 72.7089 124.628 69.3023C123.791 59.5012 121.25 51.5152 120.272 48.695C114.576 34.1191 109.215 32.1086 104.607 29.1766C100 26.2447 91.9024 24.7089 87.9373 24.1505C81.6545 22.9777 80.4818 22.3913 73.0263 20.9672C65.5708 19.5431 58.6458 18.147 56.1048 17.5327C53.5917 16.8625 48.9006 16.6112 45.8849 17.1976C42.8692 17.784 38.0943 18.3871 32.0629 21.4698C15.4765 30.4332 11.3718 42.7473 8.3561 48.8625C5.34039 54.9777 3.41369 68.2133 2.65976 74.6636C1.40322 81.9515 2.15714 89.3232 2.32468 93.0091C2.49222 96.695 4.25138 97.3388 6.01055 97.9515C8.49571 98.8171 14.8231 100.984 20.2514 102.726C27.0367 104.904 34.6598 108.255 39.0996 110.266C43.5393 112.276 49.1519 110.266 50.9111 109.428Z" fill="#3BD4FE"/>
<path d="M81.152 37.3862C96.4818 33.114 109.801 41.6585 112.398 57.7422C112.679 59.4839 112.863 61.104 112.967 62.6072C111.661 59.0171 109.393 54.61 106.199 50.203C102.011 44.4229 97.0682 41.0721 88.8588 39.3129C82.1002 37.6967 78.2054 38.0325 72.1049 42.4124C67.9722 44.6183 58.2829 52.8836 54.597 68.381C50.9112 83.8783 51.8326 87.3129 51.8326 100.549C52.1118 103.229 52.3185 108.758 50.9111 109.428C49.152 110.266 43.5394 112.276 39.0996 110.266C34.6598 108.255 27.0368 104.905 20.2515 102.727C14.8232 100.984 8.4958 98.8173 6.01062 97.9517C4.25147 97.3389 2.49231 96.6951 2.32476 93.0092C2.29705 92.3995 2.25337 91.6889 2.20532 90.8946C2.64113 93.3943 3.47371 96.2584 4.83785 96.9045C7.22531 98.0354 18.4504 101.135 20.3352 101.596C24.3422 103.02 32.9509 106.228 35.33 107.669C38.3038 109.47 40.9426 110.308 42.7855 110.308C44.6284 110.308 51.5813 109.931 51.7488 107.041C51.9164 104.151 50.0735 81.2815 54.0106 68.381C57.9478 55.4804 65.8221 41.6585 81.152 37.3862Z" fill="#0081A3"/>
<path d="M104.733 44.6322C107.358 47.8992 113.11 57.2814 114.953 68.1715C116.796 79.0615 115.791 86.894 115.665 90.8312C115.372 92.4507 115.112 95.7401 116.419 95.9411C118.053 96.1924 123.086 95.4051 123.875 93.9306C124.668 92.4474 124.933 92.5069 126.008 84.143C126.036 84.9266 126.053 85.6815 126.053 86.3914C126.053 93.2605 126.053 94.7683 122.702 95.606C119.351 96.4437 118.011 96.7788 114.073 96.1924C114.241 95.997 114.61 95.4552 114.744 94.8521C114.911 94.0982 114.995 93.428 115.079 89.6584C115.146 86.6427 115.051 78.4053 114.995 74.6636C114.939 72.9882 114.643 68.85 113.906 65.7003C112.984 61.7631 110.388 55.983 106.199 50.2029C105.815 49.6731 105.425 49.1639 105.026 48.6743L104.733 44.6322Z" fill="#007596"/>
<path d="M79.9744 38.6601C82.4485 37.3945 88.7164 35.6649 95.6859 38.1401C104.649 41.3233 109.298 49.3652 111.686 59.25C111.727 59.4208 111.762 59.5828 111.79 59.7361C110.453 56.7852 108.584 53.494 106.199 50.2029C102.011 44.4228 97.0681 41.072 88.8587 39.3129C85.3656 38.4775 82.6374 38.1637 79.9744 38.6601Z" fill="#002E41"/>
<path d="M79.9744 38.66C82.4485 37.3944 88.7164 35.6649 95.6859 38.14C95.7138 38.1499 95.7417 38.1601 95.7695 38.1701C97.9211 40.0744 100.134 42.4801 101.626 45.1677C98.3198 42.351 94.3096 40.4808 88.8587 39.3128C85.3656 38.4775 82.6374 38.1636 79.9744 38.66Z" fill="#00070D"/>
<path opacity="0.8" d="M89.4417 24.3802C92.6198 24.9001 97.2244 25.8679 101.053 27.4047C99.6119 27.3465 98.1059 27.2922 96.6493 27.25C90.8693 27.0824 83.9163 24.8207 63.8116 38.8102C43.707 52.7997 42.1154 98.2028 42.5342 101.135C42.7018 109.093 42.953 109.344 41.1101 109.679C39.6358 109.947 39.6024 108.213 39.6443 106.915C39.8956 97.0719 39.6051 94.65 40.6913 86.5588C41.8833 77.6795 43.1755 68.6147 46.3039 60.2552C50.2058 49.8287 56.5187 40.5825 63.8954 35.1243C74.0442 27.6151 83.1963 24.9607 89.4417 24.3802Z" fill="#5BE0F8"/>
<path opacity="0.8" d="M90.4085 24.6531C93.5866 25.1731 97.2244 25.868 101.053 27.4048C99.6651 27.1243 97.4777 26.6221 96.0211 26.5798C90.241 26.4123 83.1205 24.6532 63.0158 38.6427C42.9112 52.6322 41.152 101.093 41.5708 104.025C41.9897 106.957 41.8221 108.758 41.0682 109.051C40.063 109.26 40.2305 107.92 40.2724 106.622C40.5237 96.7788 41.448 90.1684 42.5342 82.0772C45.2129 62.1232 50.688 45.8382 63.9792 36.0039C74.128 28.4948 84.1631 25.2337 90.4085 24.6531Z" fill="#77EAFF"/>
<path d="M88.8588 39.3128C97.0682 41.072 102.011 44.4228 106.199 50.2029C110.388 55.983 112.984 61.7631 113.906 65.7003C114.643 68.85 114.939 72.9882 114.995 74.6636C115.051 78.4053 115.146 86.6427 115.079 89.6584C114.995 93.428 114.911 94.0982 114.744 94.8521C114.61 95.4552 114.241 95.9969 114.073 96.1924L113.856 96.2884C112.773 96.7778 111.723 97.3914 107.874 97.784C103.77 98.2029 103.072 97.9795 102.932 97.8678C103.803 96.7955 103.965 94.517 103.937 93.5118C103.518 85.805 103.267 84.2133 101.843 75.8364C100.419 67.4594 98.8274 63.8573 97.4871 61.6793C96.1467 59.5013 88.9426 51.627 82.7436 52.716C76.5447 53.805 73.1101 57.6584 69.508 61.8469C65.9059 66.0353 64.5656 74.9149 64.3981 77.2605C64.264 79.1369 64.1188 87.4245 64.063 91.3338L64.2305 100.465C64.2305 102.643 64.2305 105.658 61.2148 106.077C59.9303 106.44 58.6179 106.747 55.2672 107.166C53.7136 107.36 52.6282 107.446 51.8357 107.433C52.1728 105.397 52.019 102.338 51.8326 100.548C51.8326 87.3128 50.9111 83.8783 54.597 68.3809C58.2829 52.8835 67.9722 44.6182 72.1049 42.4123C78.2041 38.0334 82.1013 37.6969 88.8588 39.3128Z" fill="#FF686D"/>
<path d="M72.1049 42.4122C78.2041 38.0333 82.1014 37.6968 88.8588 39.3127C89.8043 39.5153 90.7064 39.7394 91.569 39.9855L91.4556 39.9829C86.6808 39.1452 75.0703 39.7818 66.8274 49.03C56.5237 60.5902 55.1834 67.9619 53.7593 82.2865C52.6201 93.7462 52.8658 102.252 53.131 105.072C53.0752 105.574 53.1143 106.559 53.7174 106.475C54.4714 106.37 56.461 106.286 61.0054 105.072C62.707 104.617 63.6802 102.606 64.2268 100.263L64.2305 100.465C64.2305 102.643 64.2305 105.658 61.2148 106.077C59.9303 106.44 58.6179 106.747 55.2672 107.166C53.7136 107.36 52.6282 107.446 51.8357 107.433C52.1727 105.397 52.019 102.338 51.8326 100.548C51.8326 87.3127 50.9111 83.8781 54.597 68.3808C58.2829 52.8834 67.9722 44.6181 72.1049 42.4122Z" fill="#820000"/>
<path d="M115.09 88.9604C115.087 89.2159 115.083 89.4497 115.079 89.6584C114.995 93.428 114.911 94.0982 114.743 94.8521C114.609 95.4552 114.241 95.997 114.073 96.1924L113.856 96.2885C112.773 96.7778 111.723 97.3914 107.874 97.7841C103.77 98.2029 103.072 97.9795 102.932 97.8678C103.312 97.3999 103.557 96.7022 103.71 95.9809C103.918 96.6955 104.318 97.3652 105.026 97.3652C106.45 97.3652 112.377 96.2343 112.901 95.9411C113.335 95.6977 114.261 96.3206 115.09 88.9604Z" fill="#A40401"/>
<path d="M85.3403 51.9621C94.3875 51.7108 98.5341 59.3757 100.419 65.9516C101.064 68.2021 101.502 71.7642 101.792 75.539C100.381 67.3738 98.8113 63.8314 97.4869 61.6794C96.1466 59.5013 88.9424 51.627 82.7435 52.716C78.271 53.5017 75.2374 55.7264 72.5417 58.4778C75.26 55.5551 79.8368 52.115 85.3403 51.9621Z" fill="#A40401"/>
<path d="M82.7434 52.7159C88.9423 51.627 96.1465 59.5012 97.4869 61.6793C98.8272 63.8573 100.419 67.4594 101.843 75.8364C103.267 84.2133 103.518 85.805 103.937 93.5118C103.965 94.517 103.803 96.7955 102.932 97.8678C102.954 97.8852 102.989 97.9054 103.049 97.9254C100.984 100.235 94.6984 101.529 91.7906 101.889C86.1221 102.866 73.8303 104.854 70.0105 104.988C67.0498 105.092 64.9044 104.632 63.738 104.225C64.2301 103.095 64.2303 101.655 64.2303 100.465L64.0628 91.3337C64.1187 87.4245 64.2639 79.1369 64.3979 77.2604C64.5654 74.9148 65.9058 66.0353 69.5078 61.8468C73.1099 57.6584 76.5445 53.805 82.7434 52.7159Z" fill="url(#paint0_radial_13_579)"/>
<path d="M66.9111 69.2185C68.8546 61.7798 75.9303 58.0772 79.2253 57.1557C80.7453 56.5682 81.1802 57.1885 80.063 58.3704C79.2959 59.1818 77.6526 60.1132 76.0839 61.051C72.8101 63.0082 69.7029 68.48 67.9583 72.7368C65.864 77.8468 65.152 89.9515 64.8169 94.6845C65.0682 78.0143 64.4818 78.5169 66.9111 69.2185Z" fill="#FFEB30"/>
<path d="M103.741 90.1971C103.806 91.1784 103.869 92.2651 103.937 93.5118C103.965 94.517 103.803 96.7955 102.932 97.8678C102.954 97.8852 102.989 97.9054 103.049 97.9254C100.984 100.235 94.6984 101.529 91.7906 101.889C86.1221 102.866 73.8303 104.854 70.0105 104.988C67.0498 105.092 64.9044 104.632 63.738 104.225C64.2301 103.095 64.2303 101.655 64.2303 100.465L64.1975 98.6793C64.2335 98.8143 64.2594 98.9753 64.2722 99.1662C64.2024 100.409 64.4314 103.011 65.9057 103.48C67.7487 104.067 69.7592 104.569 73.6963 104.192C76.8461 103.891 88.0768 101.917 93.2984 100.967C96.1745 100.52 102.195 98.873 103.267 95.8573C103.63 94.8366 103.757 92.7441 103.741 90.1971Z" fill="#B56C00"/>
<path d="M82.7435 52.7159C85.7853 52.1816 89.0689 53.8059 91.7833 55.856C87.2317 54.2651 82.3564 54.159 73.7801 58.9149C67.1057 62.6162 64.7346 74.6085 64.2422 81.7352C64.2919 79.6958 64.3457 77.9915 64.3979 77.2604C64.5655 74.9148 65.9058 66.0353 69.5079 61.8468C73.11 57.6583 76.5446 53.8049 82.7435 52.7159Z" fill="#AF7B00"/>
<path d="M82.7436 52.7159C85.5587 52.2214 88.5812 53.5756 91.1676 55.4052C89.3502 54.3802 87.1968 53.594 84.7959 53.5536C80.2863 53.4779 75.2511 56.4421 72.5439 58.4758C75.2391 55.7253 78.2722 53.5015 82.7436 52.7159Z" fill="#090500"/>
<path opacity="0.5" d="M5.00526 92.7578C3.93301 90.0772 6.23388 74.4402 7.51835 66.9567C8.49901 60.846 13.8848 62.9358 12.7121 64.7787C11.5393 66.6217 12.8796 76.674 13.3822 81.3651C13.8848 86.0562 16.0629 87.0615 18.2409 91.2499C20.4189 95.4384 15.5602 98.7892 13.0472 98.119C10.5341 97.4489 6.34558 96.1086 5.00526 92.7578Z" fill="#25C5F6"/>
<path opacity="0.5" d="M22.0944 63.4384C21.4242 57.541 28.5167 55.1731 32.1467 54.7264C35.5687 53.9313 33.6546 64.6112 31.6441 67.4593C29.6337 70.3075 31.1415 75.3337 31.1415 83.208C31.1415 91.0824 29.131 92.2552 28.2933 90.4122C27.4556 88.5693 27.2881 86.3913 25.9478 83.8782C24.6075 81.3651 23.9373 78.852 25.2776 76.8415C26.6179 74.8311 22.9321 70.8101 22.0944 63.4384Z" fill="#44CAF3"/>
<path opacity="0.4" d="M20.0838 39.5641C16.8 39.4301 13.5218 46.0981 12.2932 49.4489C17.4869 40.0667 19.5962 42.0167 24.7061 42.8544C28.7941 43.5245 32.2323 39.0943 33.3213 37.0838C34.9688 35.3526 37.2996 33.251 40.7174 32.0447C44.9896 30.5369 44.7438 30.5808 46.0003 33.3452C47.0055 35.5567 53.525 34.5409 56.4848 33.5077C59.5843 32.2232 64.8838 28.8584 58.4503 30.9358C50.4084 33.5327 50.4084 33.1976 48.1466 32.2762C45.8848 31.3547 54.3456 27.25 45.8011 27.5851C37.2566 27.9202 32.733 34.2029 29.466 38.3076C26.199 42.4123 24.1885 39.7317 20.0838 39.5641Z" fill="#32C4F0"/>
<path opacity="0.4" d="M20.0838 39.5641C16.8 39.4301 13.5218 46.0981 12.2932 49.4489C17.4869 40.0667 19.1623 40.318 24.2723 41.1557C28.3602 41.8259 31.5602 37.9725 32.6492 35.962C34.2967 34.2308 38.4461 30.4667 41.8639 29.2605C46.1361 27.7526 45.8011 29.7631 47.0576 32.5275C48.0628 34.739 54.2339 33.2256 57.1937 32.1924C60.2932 30.9079 64.8838 28.8584 58.4503 30.9358C50.4084 33.5327 50.4084 33.1976 48.1466 32.2762C45.8848 31.3547 54.3456 27.25 45.8011 27.5851C37.2566 27.9202 32.733 34.2029 29.466 38.3076C26.199 42.4123 24.1885 39.7317 20.0838 39.5641Z" fill="#70DEFF"/>
<defs>
<radialGradient id="paint0_radial_13_579" cx="0" cy="0" r="1" gradientUnits="userSpaceOnUse" gradientTransform="translate(113.068 101.972) rotate(-136.513) scale(62.81 44.5302)">
<stop stop-color="#FFCC00"/>
<stop offset="0.756581" stop-color="#FFCE2D"/>
<stop offset="1" stop-color="#FFEE37"/>
</radialGradient>
</defs>
</svg>
