<?xml version="1.0" encoding="UTF-8"?>
<svg xmlns="http://www.w3.org/2000/svg" xmlns:xlink="http://www.w3.org/1999/xlink" width="160px" height="160px" viewBox="0 0 160 160" version="1.1">
<g id="surface1">
<path style=" stroke:none;fill-rule:nonzero;fill:rgb(42.352942%,27.843139%,100%);fill-opacity:1;" d="M 105 80 C 105 66.191406 93.808594 55 80 55 C 66.191406 55 55 66.191406 55 80 C 55 93.808594 66.191406 105 80 105 C 93.808594 105 105 93.808594 105 80 Z M 105 80 "/>
<path style=" stroke:none;fill-rule:nonzero;fill:rgb(72.941178%,69.411767%,100%);fill-opacity:1;" d="M 124.464844 13.484375 C 126.964844 15.160156 127.175781 18.679688 125.050781 20.808594 L 106.78125 39.078125 C 105.128906 40.726562 102.566406 40.988281 100.488281 39.925781 C 94.34375 36.777344 87.378906 35 80 35 C 55.148438 35 35 55.148438 35 80 C 35 87.378906 36.777344 94.34375 39.925781 100.488281 C 40.988281 102.566406 40.726562 105.128906 39.078125 106.78125 L 20.808594 125.050781 C 18.679688 127.175781 15.160156 126.964844 13.484375 124.464844 C 4.96875 111.75 0 96.453125 0 80 C 0 35.816406 35.816406 0 80 0 C 96.453125 0 111.75 4.96875 124.464844 13.484375 Z M 124.464844 13.484375 "/>
<path style=" stroke:none;fill-rule:nonzero;fill:rgb(42.352942%,27.843139%,100%);fill-opacity:1;" d="M 125.050781 139.191406 C 127.175781 141.320312 126.964844 144.839844 124.464844 146.515625 C 111.75 155.03125 96.453125 160 80 160 C 63.546875 160 48.25 155.03125 35.535156 146.515625 C 33.035156 144.839844 32.824219 141.320312 34.949219 139.191406 L 53.21875 120.921875 C 54.871094 119.273438 57.433594 119.011719 59.511719 120.074219 C 65.65625 123.222656 72.621094 125 80 125 C 87.378906 125 94.34375 123.222656 100.488281 120.074219 C 102.566406 119.011719 105.128906 119.273438 106.78125 120.921875 Z M 125.050781 139.191406 "/>
</g>
</svg>
