<svg width="160" height="160" viewBox="0 0 160 160" fill="none" xmlns="http://www.w3.org/2000/svg">
<path fill-rule="evenodd" clip-rule="evenodd" d="M16.0958 125.524C14.5295 123.614 14.8721 120.803 16.798 119.257L35.0423 104.609C36.6338 103.331 38.9603 103.619 40.2581 105.195C52.6501 120.239 65.8001 127.204 80.3551 127.204C94.8096 127.204 107.601 120.338 119.45 105.46C120.722 103.863 123.043 103.533 124.657 104.783L143.151 119.095C145.104 120.606 145.497 123.41 143.964 125.345C126.444 147.46 104.993 159.112 80.3551 159.112C55.7891 159.112 34.1466 147.533 16.0958 125.524Z" fill="url(#paint0_linear_2885_3898)"/>
<path fill-rule="evenodd" clip-rule="evenodd" d="M81.2383 42.9508C80.5505 42.3418 79.5168 42.3416 78.8285 42.9501L39.1575 78.0288C37.641 79.3698 35.3213 79.2141 33.9975 77.6826L18.5247 59.7803C17.2194 58.2703 17.3755 55.9901 18.8745 54.6718L77.6318 3.00137C79.0053 1.79357 81.062 1.79384 82.4352 3.00202L141.206 54.7116C142.706 56.0311 142.86 58.3138 141.551 59.8233L126.041 77.7163C124.716 79.2453 122.397 79.3983 120.883 78.0571L81.2383 42.9508Z" fill="url(#paint1_linear_2885_3898)"/>
<defs>
<linearGradient id="paint0_linear_2885_3898" x1="13.3338" y1="80.4063" x2="146.663" y2="80.4063" gradientUnits="userSpaceOnUse">
<stop offset="0.225962" stop-color="#6647F0"/>
<stop offset="0.793269" stop-color="#0091FF"/>
</linearGradient>
<linearGradient id="paint1_linear_2885_3898" x1="13.3338" y1="79.1116" x2="146.663" y2="79.1116" gradientUnits="userSpaceOnUse">
<stop stop-color="#FF02F0"/>
<stop offset="0.778846" stop-color="#F76808"/>
</linearGradient>
</defs>
</svg>
