<svg width="80" height="85" viewBox="0 0 80 85" fill="none" xmlns="http://www.w3.org/2000/svg">
<g clip-path="url(#clip0_104_192)">
<path d="M3.56836 25.3125C7.21956 24.0063 11.4032 24.0528 14.9599 25.4258L17.0951 26.2501C20.2433 27.4654 22.4864 29.5543 24.0376 31.9762C24.6225 30.9326 25.299 29.9344 26.0628 28.9938C29.0688 25.2918 33.2513 22.6985 37.9345 21.6327C42.6177 20.567 47.528 21.0912 51.8722 23.1205C52.9634 23.6302 54.0029 24.2274 54.9816 24.9034C59.8162 28.2424 66.161 30.7187 71.447 28.1309C76.733 25.5432 78.9786 19.0931 75.131 14.6771C71.2547 10.2281 66.4546 6.59642 61.0108 4.05344C52.3223 -0.00517625 42.5016 -1.05344 33.1353 1.07799C23.7689 3.20943 15.404 8.39608 9.39185 15.8C7.01826 18.7231 5.06613 21.9244 3.56836 25.3125Z" fill="#068EF1"/>
<path d="M77.4439 66.3807C80.8853 61.6493 78.0767 55.418 72.5817 53.2968L70.4465 52.4725C66.1307 50.8064 61.3503 53.0902 58.1397 56.389C56.1956 58.3864 53.872 59.9863 51.3017 61.0972C48.7313 62.2081 45.9645 62.8083 43.1592 62.8636C40.3538 62.9188 37.565 62.4281 34.9518 61.4193C32.3386 60.4105 29.9522 58.9034 27.929 56.9842C25.9057 55.0649 24.2852 52.771 23.1599 50.2334C22.0347 47.6959 21.4267 44.9644 21.3707 42.1949C21.2782 37.6209 19.3351 32.7416 15.0193 31.0756L12.8841 30.2513C7.38904 28.13 1.04392 30.8276 0.321513 36.6087C0.0730875 38.5967 -0.0321547 40.6041 0.00850594 42.6157C0.120465 48.1547 1.33643 53.6178 3.58696 58.6929C3.90618 59.4127 4.24533 60.1228 4.60388 60.8223L0.290313 77.2809C-0.808371 81.473 3.10168 85.2672 7.32839 84.1105L23.8104 79.6C24.9069 80.1346 26.0279 80.6234 27.1706 81.0645C32.397 83.0821 37.9748 84.0637 43.5854 83.9531C49.1961 83.8426 54.7297 82.6421 59.8704 80.4203C65.0112 78.1985 69.6583 74.9988 73.5464 71.004C74.9585 69.5532 76.2604 68.0078 77.4439 66.3807Z" fill="#3BCDAA"/>
</g>
<defs>
<clipPath id="clip0_104_192">
<rect width="79.768" height="84.375" fill="white"/>
</clipPath>
</defs>
</svg>
