<?xml version="1.0" encoding="UTF-8"?>
<svg xmlns="http://www.w3.org/2000/svg" xmlns:xlink="http://www.w3.org/1999/xlink" width="160px" height="160px" viewBox="0 0 160 160" version="1.1">
<g id="surface1">
<path style=" stroke:none;fill-rule:nonzero;fill:rgb(8.627451%,67.058825%,1.960784%);fill-opacity:1;" d="M 66.824219 102.273438 C 68.078125 105.410156 69.648438 108.863281 71.214844 112 C 72.46875 114.195312 74.039062 116.390625 75.609375 118.273438 C 90.667969 114.511719 104.15625 106.667969 114.824219 95.6875 C 112.3125 90.039062 109.175781 84.707031 105.410156 80 C 95.6875 91.609375 82.195312 99.765625 66.824219 102.273438 Z M 66.824219 102.273438 "/>
<path style=" stroke:none;fill-rule:nonzero;fill:rgb(36.862746%,20%,74.901962%);fill-opacity:1;" d="M 75.609375 41.726562 C 71.84375 46.746094 69.019531 52.078125 66.824219 57.726562 C 82.195312 60.234375 95.6875 68.390625 105.097656 80 C 108.863281 75.292969 112.3125 69.960938 114.511719 64.3125 C 104.15625 53.648438 90.667969 45.488281 75.609375 41.726562 Z M 75.609375 41.726562 "/>
<path style=" stroke:none;fill-rule:nonzero;fill:rgb(0%,0%,0%);fill-opacity:1;" d="M 66.824219 102.273438 C 62.117188 90.039062 61.488281 76.550781 64.941406 63.6875 C 65.570312 61.804688 66.195312 59.921875 66.824219 58.039062 C 63.371094 57.410156 59.921875 57.097656 56.15625 57.097656 C 53.648438 57.097656 51.136719 57.097656 48.628906 57.410156 C 44.550781 71.84375 44.234375 87.53125 48.628906 102.589844 C 51.136719 102.902344 53.648438 103.214844 56.15625 103.214844 C 59.921875 103.214844 63.371094 102.902344 66.824219 102.273438 Z M 66.824219 102.273438 "/>
</g>
</svg>
