<?xml version="1.0" encoding="UTF-8"?>
<svg xmlns="http://www.w3.org/2000/svg" xmlns:xlink="http://www.w3.org/1999/xlink" width="160px" height="160px" viewBox="0 0 160 160" version="1.1">
<g id="surface1">
<path style=" stroke:none;fill-rule:nonzero;fill:rgb(0%,87.058824%,65.098041%);fill-opacity:1;" d="M 10 10 L 150 10 L 150 150 L 10 150 Z M 10 10 "/>
<path style=" stroke:none;fill-rule:nonzero;fill:rgb(0%,0%,0%);fill-opacity:1;" d="M 117.636719 63.378906 C 121.308594 63.378906 124.5625 63.722656 127.5 64.402344 L 127.5 54.601562 C 124.417969 54.042969 121.136719 53.75 117.636719 53.75 C 107.875 53.75 99.773438 55.914062 92.871094 60.390625 C 88.542969 63.1875 84.625 66.859375 80.636719 71.964844 C 76.648438 66.859375 72.734375 63.1875 68.402344 60.390625 C 61.5 55.914062 53.375 53.75 43.636719 53.75 C 40.136719 53.75 36.882812 54.042969 33.773438 54.601562 L 33.773438 80.210938 L 43.441406 80.210938 L 43.441406 63.378906 C 43.488281 63.378906 43.5625 63.378906 43.613281 63.378906 C 58.980469 63.378906 67.03125 69.507812 74.738281 80.210938 C 67.03125 90.910156 58.980469 97.039062 43.613281 97.039062 C 39.941406 97.039062 36.6875 96.699219 33.75 96.019531 L 33.75 105.820312 C 36.832031 106.378906 40.113281 106.671875 43.613281 106.671875 C 53.375 106.671875 61.476562 104.503906 68.378906 100.03125 C 72.707031 97.234375 76.625 93.5625 80.613281 88.453125 C 84.601562 93.5625 88.515625 97.234375 92.847656 100.03125 C 99.75 104.503906 107.875 106.671875 117.613281 106.671875 C 121.113281 106.671875 124.367188 106.378906 127.476562 105.820312 L 127.476562 80.210938 L 117.832031 80.210938 L 117.832031 97.039062 C 117.785156 97.039062 117.710938 97.039062 117.664062 97.039062 C 102.292969 97.039062 94.242188 90.910156 86.535156 80.210938 C 94.242188 69.507812 102.292969 63.378906 117.636719 63.378906 Z M 117.636719 63.378906 "/>
</g>
</svg>
