<svg width="160" height="160" viewBox="0 0 160 160" fill="none" xmlns="http://www.w3.org/2000/svg">
<rect width="160" height="160" fill="white"/>
<g clip-path="url(#clip0_393_14765)">
<path d="M60.2808 57.4061V78.5622C48.4498 78.5622 38.7139 69.0112 38.7139 57.4061C38.7139 45.8011 48.4498 36.25 60.2808 36.25C72.1117 36.25 81.8477 45.8011 81.8477 57.4061H60.2808Z" fill="black"/>
<path d="M99.7174 102.594V123.75C87.8864 123.75 78.1505 114.199 78.1505 102.594C78.1505 90.9888 87.8864 81.4378 99.7174 81.4378C111.548 81.4378 121.284 90.9888 121.284 102.594H99.7174Z" fill="black"/>
<path d="M99.7174 77.946L121.9 36.8662H77.5343L99.7174 77.946Z" fill="black"/>
<path d="M60.2808 123.134L82.4639 82.054H38.0977L60.2808 123.134Z" fill="black"/>
</g>
<defs>
<clipPath id="clip0_393_14765">
<rect width="83.8028" height="87.5" fill="white" transform="translate(38.0977 36.25)"/>
</clipPath>
</defs>
</svg>
