<?xml version="1.0" encoding="UTF-8" standalone="no"?>
<svg xmlns="http://www.w3.org/2000/svg" xmlns:xlink="http://www.w3.org/1999/xlink" enable-background="new 0 0 159 159" id="Layer_1" version="1.1" viewBox="0 0 159 159" width="100%" x="0px" xml:space="preserve" y="0px">
<path d=" M73.000000,160.000000   C48.666668,160.000000 24.833340,160.000000 1.000006,160.000000   C1.000004,107.000008 1.000004,54.000019 1.000002,1.000021   C53.999985,1.000014 106.999969,1.000014 159.999969,1.000007   C159.999969,53.999981 159.999969,106.999962 159.999985,159.999969   C131.166672,160.000000 102.333336,160.000000 73.000000,160.000000  M54.736610,124.005013   C63.885223,123.959953 73.043701,124.164879 82.179871,123.804474   C92.810783,123.385117 98.382729,119.185791 100.596092,108.913429   C104.617432,90.250023 108.161201,71.476868 111.520142,52.680866   C112.911423,44.895580 108.607895,38.843796 100.835846,38.089546   C89.478409,36.987347 78.026375,36.859856 66.362083,36.304890   C60.525013,65.936226 54.853321,94.728027 49.086060,124.004997   C50.860199,124.004997 52.331371,124.004997 54.736610,124.005013  z" fill="#CF2129" opacity="1.000000" stroke="none"/>
<path d=" M54.269577,124.005005   C52.331371,124.004997 50.860199,124.004997 49.086060,124.004997   C54.853321,94.728027 60.525013,65.936226 66.362083,36.304890   C78.026375,36.859856 89.478409,36.987347 100.835846,38.089546   C108.607895,38.843796 112.911423,44.895580 111.520142,52.680866   C108.161201,71.476868 104.617432,90.250023 100.596092,108.913429   C98.382729,119.185791 92.810783,123.385117 82.179871,123.804474   C73.043701,124.164879 63.885223,123.959953 54.269577,124.005005  M74.883537,101.123459   C74.464485,103.527100 74.045425,105.930748 73.626366,108.334389   C74.112236,108.704964 74.598099,109.075546 75.083969,109.446121   C76.800591,107.706635 79.606628,106.211884 80.061081,104.188858   C83.623390,88.331039 86.816597,72.387337 89.823357,56.413601   C90.052109,55.198322 87.974098,53.548843 86.968338,52.101196   C85.931572,53.189651 84.221504,54.137630 83.960648,55.387970   C80.842377,70.333961 77.939362,85.324852 74.883537,101.123459  z" fill="#FEFCFD" opacity="1.000000" stroke="none"/>
<path d=" M74.931778,100.713730   C77.939362,85.324852 80.842377,70.333961 83.960648,55.387970   C84.221504,54.137630 85.931572,53.189651 86.968338,52.101196   C87.974098,53.548843 90.052109,55.198322 89.823357,56.413601   C86.816597,72.387337 83.623390,88.331039 80.061081,104.188858   C79.606628,106.211884 76.800591,107.706635 75.083969,109.446121   C74.598099,109.075546 74.112236,108.704964 73.626366,108.334389   C74.045425,105.930748 74.464485,103.527100 74.931778,100.713730  z" fill="#D12A32" opacity="1.000000" stroke="none"/>
</svg>
