<svg height="180" width="180" style="color: #e97a42" viewBox="0 0 180 180" xmlns="http://www.w3.org/2000/svg">
  <path fill="currentColor" fill-rule="evenodd" d="M 0 0 L 180 0 L 180 180 L 0 180 Z M 16.491 91.704 c -1.118 -56.662 44.604 -74.877 60.998 -67.647 2.187 0.965 4.732 2.431 7.042 2.96 5.295 1.213 13.432 -3.113 13.521 6.273 0.078 8.156 -3.389 13.108 -10.797 16.177 -7.539 3.124 -14.777 9.181 -19.95 15.493 -21.487 26.216 -31.231 68.556 -7.565 94.296 -13.679 -5.545 -42.418 -25.467 -43.248 -67.552 z M 107.6 164.323 c -0.053 0.008 -4.171 0.775 -4.171 0.775 0 0 -15.862 -22.957 -23.509 -21.719 11.291 16.04 12.649 22.625 12.649 22.625 -0.053 0.001 -0.107 0.001 -0.161 0.003 -51.831 2.131 -42.785 -64.026 -28.246 -86.502 -1.555 13.073 8.878 39.992 39.034 44.1 9.495 1.293 32.302 -3.275 41.015 -11.38 0.098 1.825 0.163 3.85 0.159 6.013 -0.046 23.538 -13.47 42.743 -36.77 46.085 z M 138.175 148.615 c 9.647 -9.263 12.869 -27.779 9.103 -44.137 -4.608 -20.011 -28.861 -32.383 -40.744 -35.564 5.766 -8.089 27.908 -14.274 39.567 5.363 -5.172 -10.519 -13.556 -23.023 -1.732 -33.128 12.411 13.329 19.411 29.94 20.161 48.7 0.75 18.753 -6.64 41.768 -26.355 58.765 z"/>
  <circle fill="currentColor" cx="71.927" cy="32.004" r="2.829"/>
</svg>
