<?xml version="1.0" encoding="UTF-8"?>
<svg id="Layer_1" xmlns="http://www.w3.org/2000/svg" version="1.1" viewBox="0 0 100 100.2">
  <!-- Generator: Adobe Illustrator 29.1.0, SVG Export Plug-In . SVG Version: 2.1.0 Build 142)  -->
  <defs>
    <style>
      .st0 {
        fill: #fffffe;
      }

      .st0, .st1, .st2, .st3 {
        fill-rule: evenodd;
      }

      .st1 {
        fill: #31d3db;
      }

      .st2 {
        fill: #2fa69f;
      }

      .st3 {
        fill: #2e3336;
      }
    </style>
  </defs>
  <path class="st3" d="M22.9,63.9c-3,1.4-8.9,4.6-8.5,8,.7,2.1,3.2-.2,4.1-.9,2.1-1.8,3.7-4.4,4.4-7.1ZM41.2,56.4c-2.1,5.5-7.8,8-9.6,7.1-.9-.5,0-2.1,0-3.4-1.1.5-3.2,1.4-4.4,1.8,2.8,2.3,4.4,6,4.4,9.6s-1.4,7.1-4.4,9.4c4.8,7.6,2.5,14-4.4,19l-.5.2-.2-.5c-.9-3.7-2.3-6.7-4.6-9.4s-2.5-2.8-3.9-4.1c-1.8-1.6-3.4-3.4-5-5.3C2,73.6-.7,61,.2,51.1c.5-5,1.8-9.9,4.1-14.4s4.1-6.9,6.9-9.9c6-6.4,13.8-11.7,22-14.2,7.3-2.3,15.6-2.5,22.7,1.1,1.1.7,2.8,1.6,3.7,2.5.7.5,1.1,1.1,1.8,1.6l.2.2L94.2,1.1c2.8-1.4,4.8-1.4,5.5-.5.9,1.1-.5,3.7-2.3,5l-28,20.9c.5,1.6-.2,4.1-1.6,5.5,3.7,1.4.5,6.9-1.1,8.9-4.6,5.7-13.3,10.1-20.9,13.3-1.6.9-2.8,1.4-4.6,2.1Z"/>
  <path class="st1" d="M66.7,36.9c2.1-2.8.7-4.4-.9-2.8-2.8,3-7.1,4.1-11,3.4-5.7-.9-6-1.8-5-2.8,6.7,2.5,14.7-.7,17.9-6.2,1.4-2.1-3.2-3.7-6.2-7.6C48.1,2.5,6.4,18.8,2.2,51.1c-1.1,9.6,1.4,20.4,8,28,4.8,5.7,10.1,8,13.1,17,5.7-5,4.8-11,.7-16.1,7.3-3.9,6.2-14,1.1-17.2-2.3,8.9-11,15.6-13.1,9.2-1.4-6.4,9.2-10.8,25.9-17.4,14.2-5.3,23.4-9.9,28.7-17.7Z"/>
  <path class="st0" d="M66.7,36.9c2.1-2.8.7-4.4-.9-2.8-2.5,2.5-6.2,3.7-9.6,3.7-5.7-.5-10.3-1.6-14.7-1.1-8.3.9-16.3,6.2-20.6,10.8-7.1,7.6-15.1,23.6-7.1,26.6-.7-.5-1.1-1.1-1.4-2.1-1.4-6.4,9.2-10.8,25.9-17.4,14-5.3,23.2-9.9,28.4-17.7Z"/>
  <path class="st1" d="M30.9,49.5c4.4,2.1,3.4,9.9,2.8,11.7,8.3-2.3,5.7-14.9,9.6-18.6-4.8-.2-13.8,4.6-12.4,6.9Z"/>
  <path class="st3" d="M44.7,26.8c1.1-.7,2.5-.2,3.2.9s.2,2.8-.9,3.2c-1.1.7-2.5.2-3.2-.9-.7-.9-.2-2.5.9-3.2Z"/>
  <path class="st1" d="M64.6,27.9L97.4,4.5c.9-.7,2.1-2.1,1.6-2.8s-1.8-.2-3.2.2l-35.5,19.7c-1.1,2.3,1.1,7.3,4.4,6.2Z"/>
  <path class="st0" d="M61.6,23.3L96,2.7c1.6-.9,2.1-.9,3-.9-.5-.7-1.8-.2-3,.2l-35.5,19.7c-.9,1.8.2,5.3,2.1,6.2-.7-1.6-1.1-3.2-.9-4.6Z"/>
  <path class="st2" d="M11.2,32.5c1.1-.2,2.1.7,2.1,1.8s-.9,2.3-2.1,2.5-2.1-.7-1.8-1.8c-.2-1.1.7-2.3,1.8-2.5Z"/>
  <path class="st2" d="M17.8,25c.9-.2,1.8.5,1.8,1.6s-.9,2.1-1.8,2.3c-1.1,0-1.8-.7-1.8-1.6s.7-2.1,1.8-2.3Z"/>
  <path class="st2" d="M37.8,15.1c.9,0,1.6.9,1.4,1.8s-1.1,1.8-2.3,1.8-1.6-.9-1.4-1.8c.5-1.1,1.4-2.1,2.3-1.8Z"/>
  <path class="st2" d="M44,13.9c.9.2,1.1.9.9,1.8-.2.7-1.4,1.4-2.1,1.1-.9-.2-1.1-.9-.9-1.8.5-.7,1.4-1.4,2.1-1.1Z"/>
  <path class="st2" d="M17.8,29.8c.7-.2,1.4.5,1.4,1.1s-.7,1.6-1.4,1.6c-.7.2-1.4-.5-1.4-1.1,0-.9.7-1.6,1.4-1.6Z"/>
  <path class="st2" d="M7.5,38.5c.7-.2,1.4.5,1.4,1.1s-.7,1.6-1.4,1.6c-.7.2-1.4-.5-1.4-1.1s.5-1.4,1.4-1.6Z"/>
  <path class="st2" d="M68.7,16.9l-1.6.9c.2,2.3,1.8,5,3.2,5.5-.9-1.8-1.8-4.6-1.6-6.4ZM77,12.3l-1.4.7c.2,2.1,1.8,4.6,2.5,4.6-.5-.9-1.4-3.7-1.1-5.3ZM85,7.7l-.9.7c0,1.4.9,3.4,2.1,3.7-.7-.9-1.1-2.5-1.1-4.4ZM92.8,3.6l-.9.5c0,.9,1.1,2.5,1.6,2.8,0-.7-.7-2.1-.7-3.2Z"/>
</svg>