<svg width="200" height="200" viewBox="0 0 200 200" fill="none" xmlns="http://www.w3.org/2000/svg">
<g clip-path="url(#clip0_2821_1264)">
<rect width="200" height="200" rx="40" fill="white"/>
<g clip-path="url(#clip1_2821_1264)">
<path d="M117.166 85.5697H111.36C110.918 85.5719 110.486 85.7012 110.115 85.9422C109.744 86.1831 109.451 86.5255 109.269 86.9286L99.1502 109.448L89.0343 86.9286C88.8528 86.5255 88.5592 86.1831 88.1885 85.9422C87.8178 85.7012 87.3857 85.5719 86.9436 85.5697H81.1166C80.7306 85.57 80.3509 85.6673 80.0123 85.8526C79.6737 86.038 79.3872 86.3055 79.179 86.6305C78.9709 86.9556 78.8477 87.3277 78.821 87.7128C78.7942 88.0978 78.8647 88.4834 79.0259 88.8342L94.8942 123.354C95.078 123.754 95.3727 124.093 95.7432 124.331C96.1138 124.569 96.5447 124.695 96.9849 124.695H101.295C101.735 124.695 102.166 124.569 102.536 124.331C102.907 124.093 103.202 123.754 103.385 123.354L119.257 88.8342C119.418 88.4834 119.488 88.0978 119.462 87.7128C119.435 87.3277 119.312 86.9556 119.104 86.6305C118.895 86.3055 118.609 86.038 118.27 85.8526C117.932 85.6673 117.552 85.57 117.166 85.5697Z" fill="#12222E"/>
<path d="M60.2754 84.6677C49.5532 84.6677 41.0799 93.4605 41.0799 104.705C41.0799 116.031 49.6278 125.538 61.0251 125.538C65.3767 125.538 70.6243 124.11 75.4986 120.162C76.4752 119.37 76.6246 118.34 75.7973 117.232L72.497 113.113C71.6726 112.083 70.7736 112.005 69.7223 112.638C67.4733 114.302 64.5494 115.807 61.1744 115.807C57.1244 115.807 52.9251 113.418 51.0495 108.361H77.4459C78.6406 108.361 79.3962 107.647 79.3216 106.303C78.5749 92.9827 70.699 84.6677 60.2754 84.6677ZM51.1272 100.429C51.9515 96.2471 55.5534 93.2216 60.0514 93.2216C62.1259 93.2072 64.1399 93.9203 65.7431 95.237C67.3463 96.5537 68.4373 98.3907 68.8263 100.429H51.1272Z" fill="#12222E"/>
<path d="M138.64 84.6677C127.918 84.6677 119.445 93.4605 119.445 104.705C119.445 116.031 127.993 125.538 139.39 125.538C143.742 125.538 148.989 124.11 153.864 120.162C154.84 119.37 154.99 118.34 154.162 117.232L150.862 113.113C150.038 112.083 149.139 112.005 148.087 112.638C145.838 114.302 142.914 115.807 139.539 115.807C135.489 115.807 131.29 113.418 129.414 108.361H155.814C157.008 108.361 157.764 107.647 157.689 106.303C156.94 92.9827 149.064 84.6677 138.64 84.6677ZM129.501 100.429C130.325 96.2471 133.927 93.2216 138.425 93.2216C140.5 93.2072 142.514 93.9203 144.117 95.237C145.72 96.5537 146.811 98.3907 147.2 100.429H129.501Z" fill="#12222E"/>
<path d="M35.5665 75.0207C25.4326 76.4423 17.5627 86.0953 17.5029 97.7733V122.393C17.5029 123.003 17.7455 123.589 18.1774 124.021C18.6092 124.453 19.1949 124.695 19.8057 124.695H25.6835C25.9859 124.695 26.2853 124.636 26.5647 124.52C26.8441 124.404 27.0979 124.235 27.3118 124.021C27.5256 123.807 27.6952 123.553 27.811 123.274C27.9267 122.994 27.9862 122.695 27.9862 122.393V108.26H34.321C34.9317 108.26 35.5175 108.017 35.9493 107.585C36.3811 107.153 36.6238 106.568 36.6238 105.957V101.689C36.6238 101.078 36.3811 100.492 35.9493 100.061C35.5175 99.6288 34.9317 99.3861 34.321 99.3861H27.9862V97.8928C27.9862 91.8985 31.5703 86.8958 36.3161 85.8475C36.8335 85.739 37.2982 85.4568 37.6329 85.0476C37.9676 84.6385 38.1522 84.1271 38.1559 83.5985V77.3085C38.1573 76.9813 38.0888 76.6577 37.955 76.3591C37.8211 76.0606 37.6251 75.7941 37.3799 75.5775C37.1347 75.3609 36.8461 75.1992 36.5334 75.1031C36.2206 75.0071 35.891 74.979 35.5665 75.0207Z" fill="#12222E"/>
<path d="M179.908 83.5985C169.771 85.0201 161.901 94.6702 161.841 106.351V122.393C161.841 123.003 162.084 123.589 162.515 124.021C162.947 124.453 163.533 124.695 164.144 124.695H170.025C170.635 124.695 171.221 124.453 171.653 124.021C172.085 123.589 172.327 123.003 172.327 122.393V106.471C172.327 100.473 175.911 95.4706 180.654 94.4252C181.172 94.3167 181.637 94.034 181.972 93.6242C182.307 93.2145 182.491 92.7024 182.494 92.1733V85.8863C182.496 85.5593 182.428 85.2356 182.294 84.9371C182.161 84.6386 181.965 84.372 181.72 84.1554C181.475 83.9387 181.187 83.7769 180.874 83.6809C180.561 83.5848 180.232 83.5567 179.908 83.5985Z" fill="#12222E"/>
</g>
</g>
<defs>
<clipPath id="clip0_2821_1264">
<rect width="200" height="200" fill="white"/>
</clipPath>
<clipPath id="clip1_2821_1264">
<rect width="165" height="50.5379" fill="white" transform="translate(17.5 75)"/>
</clipPath>
</defs>
</svg>
