<?xml version="1.0" encoding="UTF-8"?>
<svg xmlns="http://www.w3.org/2000/svg" xmlns:xlink="http://www.w3.org/1999/xlink" width="160px" height="160px" viewBox="0 0 160 160" version="1.1">
<g id="surface1">
<path style=" stroke:none;fill-rule:nonzero;fill:rgb(100%,28.627452%,17.254902%);fill-opacity:1;" d="M 160 80 C 160 35.816406 124.183594 0 80 0 C 35.816406 0 0 35.816406 0 80 C 0 124.183594 35.816406 160 80 160 C 124.183594 160 160 124.183594 160 80 Z M 160 80 "/>
<path style=" stroke:none;fill-rule:nonzero;fill:rgb(100%,100%,100%);fill-opacity:1;" d="M 114.625 61.28125 L 100.960938 61.28125 C 101.328125 59.136719 102.65625 57.9375 105.34375 56.574219 L 107.855469 55.296875 C 112.351562 52.992188 114.753906 50.382812 114.753906 46.128906 C 114.753906 43.457031 113.710938 41.34375 111.648438 39.824219 C 109.585938 38.304688 107.152344 37.550781 104.304688 37.550781 C 102.101562 37.527344 99.9375 38.144531 98.078125 39.328125 C 96.207031 40.480469 94.816406 41.96875 93.953125 43.824219 L 97.902344 47.792969 C 99.441406 44.6875 101.664062 43.167969 104.59375 43.167969 C 107.070312 43.167969 108.59375 44.449219 108.59375 46.222656 C 108.59375 47.710938 107.855469 48.945312 105.007812 50.382812 L 103.390625 51.167969 C 99.886719 52.945312 97.457031 54.976562 96.046875 57.28125 C 94.640625 59.585938 93.953125 62.480469 93.953125 65.984375 L 93.953125 66.945312 L 114.625 66.945312 Z M 114.625 61.28125 "/>
<path style=" stroke:none;fill-rule:nonzero;fill:rgb(100%,100%,100%);fill-opacity:1;" d="M 112.800781 73.472656 L 90.175781 73.472656 L 78.863281 93.054688 L 101.488281 93.054688 L 112.800781 112.65625 L 124.113281 93.054688 Z M 112.800781 73.472656 "/>
<path style=" stroke:none;fill-rule:nonzero;fill:rgb(100%,100%,100%);fill-opacity:1;" d="M 80.816406 106.128906 C 66.414062 106.128906 54.6875 94.398438 54.6875 80 C 54.6875 65.601562 66.414062 53.871094 80.816406 53.871094 L 89.761719 35.167969 C 86.816406 34.582031 83.820312 34.289062 80.816406 34.289062 C 55.566406 34.289062 35.105469 54.753906 35.105469 80 C 35.105469 105.246094 55.566406 125.710938 80.816406 125.710938 C 90.492188 125.730469 99.921875 122.660156 107.726562 116.945312 L 97.839844 99.792969 C 93.109375 103.878906 87.066406 106.128906 80.816406 106.128906 Z M 80.816406 106.128906 "/>
</g>
</svg>
