<svg width="160" height="160" viewBox="0 0 160 160" fill="none" xmlns="http://www.w3.org/2000/svg">
<g clip-path="url(#clip0_2517_2820)">
<path d="M130.664 7.79226C114.922 -4.62906 94.1968 -1.69636 75.7128 13.0078C57.2866 -1.68823 36.5491 -4.62906 20.8258 7.79226C-4.04643 27.46 -7.07039 78.1201 14.078 120.933C29.6665 152.51 54.0443 171 75.7449 170.659C97.4455 171 121.823 152.51 137.412 120.933C158.535 78.1201 155.536 27.46 130.664 7.79226ZM25.5126 111.899C21.1506 103.15 17.8604 93.6153 15.7537 83.6199C13.8806 74.9462 13.1645 65.9377 13.635 56.9657C14.5788 41.1486 19.6701 28.8248 27.9651 22.2608C36.2601 15.6967 47.226 15.3149 58.9045 21.1722C60.6797 22.0755 62.4176 23.0923 64.1113 24.2186C57.6202 31.7013 51.9769 40.2826 47.3416 49.7193C34.501 75.7155 30.5846 104.653 35.066 127.708C31.496 122.83 28.2974 117.537 25.5126 111.899ZM135.743 83.6199C133.633 93.6141 130.343 103.148 125.984 111.899C123.2 117.548 120.001 122.852 116.43 127.74C120.437 107.065 117.714 81.7434 107.891 57.9893C107.577 57.1949 107.01 56.6073 106.332 56.3732C105.655 56.1391 104.931 56.2807 104.341 56.7626L73.7161 80.9797C73.1524 81.4236 72.7515 82.1332 72.6022 82.9518C72.4528 83.7704 72.5671 84.6305 72.92 85.3422L77.4142 94.4328C77.765 95.1461 78.3258 95.6532 78.9727 95.8423C79.6197 96.0313 80.2994 95.8866 80.8619 95.4401L100.713 79.753C101.355 82.1902 101.997 84.5867 102.479 87.0644C104.352 95.7383 105.068 104.747 104.598 113.719C103.654 129.544 98.5626 141.868 90.2676 148.432C85.9891 151.742 81.0866 153.537 76.0723 153.631H75.4303C70.4158 153.539 65.5129 151.744 61.2351 148.432C52.9336 141.868 47.8423 129.544 46.8986 113.719C46.4318 104.747 47.1478 95.7391 49.0172 87.0644C53.3222 66.9991 62.2163 48.9903 74.5828 35.2995C79.9164 29.3731 85.9915 24.6099 92.5596 21.2047C104.206 15.3474 115.191 15.7292 123.493 22.2933C131.794 28.8573 136.879 41.1811 137.823 56.9982C138.3 65.9567 137.597 74.9532 135.743 83.6199ZM118.222 162.981V161.852C118.219 161.774 118.242 161.697 118.286 161.641C118.327 161.585 118.386 161.556 118.446 161.56H124.135C124.195 161.556 124.254 161.585 124.295 161.641C124.339 161.697 124.362 161.774 124.359 161.852V162.981C124.363 163.06 124.339 163.137 124.295 163.193C124.254 163.248 124.195 163.278 124.135 163.274H122.054V170.366C122.057 170.446 122.031 170.524 121.984 170.577C121.943 170.634 121.884 170.667 121.823 170.667H120.751C120.69 170.665 120.633 170.633 120.591 170.577C120.55 170.519 120.527 170.444 120.526 170.366V163.274H118.446C118.386 163.278 118.327 163.248 118.286 163.193C118.241 163.137 118.218 163.06 118.222 162.981ZM128.16 161.82L129.746 166.369L131.338 161.82C131.363 161.739 131.408 161.67 131.467 161.625C131.528 161.576 131.6 161.553 131.672 161.56H133.373C133.434 161.558 133.492 161.587 133.534 161.641C133.577 161.694 133.6 161.768 133.598 161.844V170.382C133.599 170.457 133.579 170.529 133.54 170.585C133.5 170.638 133.444 170.667 133.386 170.667H132.365C132.306 170.667 132.248 170.638 132.205 170.585C132.164 170.53 132.141 170.458 132.141 170.382V163.932L130.478 168.619C130.452 168.707 130.408 168.783 130.349 168.839C130.286 168.887 130.212 168.91 130.138 168.904H129.316C129.244 168.909 129.172 168.886 129.11 168.839C129.052 168.783 129.007 168.707 128.982 168.619L127.319 163.932V170.382C127.321 170.458 127.298 170.532 127.255 170.585C127.214 170.637 127.158 170.666 127.101 170.667H126.074C126.016 170.667 125.96 170.638 125.919 170.585C125.879 170.53 125.856 170.458 125.855 170.382V161.844C125.855 161.767 125.88 161.693 125.926 161.641C125.965 161.587 126.022 161.557 126.08 161.56H127.833C127.905 161.554 127.977 161.577 128.038 161.625C128.095 161.671 128.138 161.739 128.16 161.82Z" fill="#1BDBDB"/>
</g>
<defs>
<clipPath id="clip0_2517_2820">
<rect width="160" height="160" fill="white"/>
</clipPath>
</defs>
</svg>
