<?xml version="1.0" encoding="UTF-8"?>
<svg xmlns="http://www.w3.org/2000/svg" xmlns:xlink="http://www.w3.org/1999/xlink" width="160px" height="160px" viewBox="0 0 160 160" version="1.1">
<defs>
<linearGradient id="linear0" gradientUnits="userSpaceOnUse" x1="11.2699" y1="16.000299" x2="30.4" y2="16.000299" gradientTransform="matrix(5,0,0,5,0,0)">
<stop offset="0" style="stop-color:rgb(0%,49.411765%,95.686275%);stop-opacity:1;"/>
<stop offset="0.16" style="stop-color:rgb(0%,60%,91.764706%);stop-opacity:1;"/>
<stop offset="0.41" style="stop-color:rgb(0%,74.509804%,87.058824%);stop-opacity:1;"/>
<stop offset="0.64" style="stop-color:rgb(0%,85.098039%,83.529412%);stop-opacity:1;"/>
<stop offset="0.84" style="stop-color:rgb(0%,91.764706%,81.176471%);stop-opacity:1;"/>
<stop offset="1" style="stop-color:rgb(0%,94.117647%,80.784314%);stop-opacity:1;"/>
</linearGradient>
</defs>
<g id="surface1">
<path style=" stroke:none;fill-rule:nonzero;fill:rgb(12.54902%,48.627451%,92.54902%);fill-opacity:1;" d="M 79.976562 99.152344 L 85.019531 104.195312 L 99.671875 89.542969 C 102.230469 86.984375 103.636719 83.589844 103.636719 79.980469 C 103.636719 76.371094 102.230469 72.980469 99.671875 70.417969 L 84.988281 55.738281 L 79.945312 60.796875 L 94.613281 75.460938 C 95.816406 76.664062 96.476562 78.269531 96.476562 79.980469 C 96.476562 81.695312 95.816406 83.28125 94.613281 84.5 L 79.960938 99.152344 Z M 79.976562 99.152344 "/>
<path style=" stroke:none;fill-rule:nonzero;fill:rgb(12.54902%,48.627451%,92.54902%);fill-opacity:1;" d="M 55.839844 39.277344 C 57.566406 39.277344 59.140625 39.925781 60.359375 41.144531 L 62.765625 43.550781 L 36.59375 70.386719 C 34.03125 72.945312 32.613281 76.355469 32.613281 79.976562 C 32.613281 83.601562 34.03125 87.011719 36.515625 89.507812 L 62.71875 116.40625 L 60.34375 118.8125 C 59.125 120.03125 57.550781 120.679688 55.824219 120.679688 C 54.097656 120.679688 52.523438 120.03125 51.304688 118.8125 L 17.007812 84.511719 C 15.789062 83.292969 15.140625 81.722656 15.140625 79.992188 C 15.140625 78.265625 15.789062 76.695312 17.007812 75.476562 L 51.320312 41.160156 C 52.539062 39.941406 54.113281 39.292969 55.839844 39.292969 M 55.839844 32.167969 C 52.230469 32.167969 48.839844 33.570312 46.277344 36.132812 L 11.964844 70.433594 C 9.402344 72.992188 8 76.386719 8 79.992188 C 8 83.601562 9.402344 86.996094 11.964844 89.554688 L 46.277344 123.871094 C 48.839844 126.429688 52.230469 127.835938 55.839844 127.835938 C 59.449219 127.835938 62.84375 126.429688 65.402344 123.871094 L 72.726562 116.453125 L 41.652344 84.542969 C 40.433594 83.324219 39.769531 81.707031 39.769531 79.992188 C 39.769531 78.28125 40.433594 76.664062 41.652344 75.445312 L 72.773438 43.488281 L 72.789062 43.488281 L 72.757812 43.472656 L 65.402344 36.117188 C 62.84375 33.558594 59.449219 32.152344 55.839844 32.152344 Z M 55.839844 32.167969 "/>
<path style=" stroke:none;fill-rule:nonzero;fill:url(#linear0);" d="M 104.128906 39.277344 C 104.558594 39.277344 104.992188 39.324219 105.410156 39.402344 C 106.628906 39.648438 107.753906 40.25 108.664062 41.144531 L 142.960938 75.445312 C 144.164062 76.648438 144.8125 78.191406 144.828125 79.902344 L 144.828125 80.023438 C 144.828125 81.738281 144.164062 83.277344 142.960938 84.496094 L 108.648438 118.8125 C 107.429688 120.03125 105.855469 120.679688 104.128906 120.679688 C 102.402344 120.679688 100.828125 120.03125 99.640625 118.84375 L 97.234375 116.40625 L 97.3125 116.328125 L 123.375 89.570312 C 125.9375 87.011719 127.355469 83.601562 127.355469 79.976562 C 127.355469 76.355469 125.9375 72.945312 123.4375 70.449219 L 97.296875 43.644531 L 97.21875 43.566406 L 99.625 41.160156 C 100.84375 39.941406 102.417969 39.292969 104.144531 39.292969 M 104.144531 32.167969 C 100.535156 32.167969 97.140625 33.570312 94.582031 36.132812 L 87.226562 43.488281 L 87.226562 43.519531 L 60.3125 70.433594 C 57.753906 72.992188 56.347656 76.386719 56.347656 79.992188 C 56.347656 83.601562 57.753906 86.996094 60.3125 89.554688 L 91.3125 120.554688 L 94.597656 123.886719 C 97.15625 126.445312 100.550781 127.851562 104.160156 127.851562 C 107.769531 127.851562 111.160156 126.445312 113.722656 123.886719 L 148.035156 89.570312 C 150.597656 87.011719 152 83.617188 152 80.007812 C 152 76.402344 150.597656 73.007812 148.035156 70.449219 L 113.707031 36.117188 C 111.792969 34.203125 109.402344 32.925781 106.796875 32.414062 C 105.933594 32.246094 105.039062 32.152344 104.128906 32.152344 Z M 92.222656 111.378906 L 65.339844 84.496094 C 64.136719 83.292969 63.476562 81.691406 63.476562 79.976562 C 63.476562 78.265625 64.136719 76.679688 65.339844 75.460938 L 92.175781 48.625 L 92.191406 48.625 L 118.347656 75.429688 C 119.566406 76.648438 120.230469 78.265625 120.230469 79.976562 C 120.230469 81.691406 119.566406 83.308594 118.347656 84.527344 L 92.222656 111.347656 Z M 92.222656 111.378906 "/>
</g>
</svg>
