<?xml version="1.0" encoding="UTF-8"?>
<svg xmlns="http://www.w3.org/2000/svg" xmlns:xlink="http://www.w3.org/1999/xlink" width="160px" height="160px" viewBox="0 0 160 160" version="1.1">
<defs>
<clipPath id="clip1">
  <path d="M 80 0 C 124.183594 0 160 35.816406 160 80 C 160 124.183594 124.183594 160 80 160 C 35.816406 160 0 124.183594 0 80 C 0 35.816406 35.816406 0 80 0 Z M 80 0 "/>
</clipPath>
<clipPath id="clip2">
  <path d="M 0 80 C 0 35.816406 35.816406 0 80 0 C 124.183594 0 160 35.816406 160 80 C 160 124.183594 124.183594 160 80 160 C 35.816406 160 0 124.183594 0 80 Z M 0 80 "/>
</clipPath>
<clipPath id="clip3">
  <path d="M 27 36 L 136 36 L 136 141 L 27 141 Z M 27 36 "/>
</clipPath>
<clipPath id="clip4">
  <path d="M 80 0 C 124.183594 0 160 35.816406 160 80 C 160 124.183594 124.183594 160 80 160 C 35.816406 160 0 124.183594 0 80 C 0 35.816406 35.816406 0 80 0 Z M 80 0 "/>
</clipPath>
<clipPath id="clip5">
  <path d="M 0 80 C 0 35.816406 35.816406 0 80 0 C 124.183594 0 160 35.816406 160 80 C 160 124.183594 124.183594 160 80 160 C 35.816406 160 0 124.183594 0 80 Z M 0 80 "/>
</clipPath>
</defs>
<g id="surface1">
<g clip-path="url(#clip1)" clip-rule="nonzero">
<g clip-path="url(#clip2)" clip-rule="nonzero">
<path style=" stroke:none;fill-rule:nonzero;fill:rgb(83.529413%,16.862746%,11.764706%);fill-opacity:1;" d="M 0 80 C 0 35.816406 35.816406 0 80 0 C 124.183594 0 160 35.816406 160 80 C 160 124.183594 124.183594 160 80 160 C 35.816406 160 0 124.183594 0 80 Z M 0 80 "/>
<path style=" stroke:none;fill-rule:nonzero;fill:rgb(83.529413%,16.862746%,11.764706%);fill-opacity:1;" d="M 80 160 C 124 160 160 124 160 80 C 160 36 124 0 80 0 C 36 0 0 36 0 80 C 0 124 36 160 80 160 Z M 80 160 "/>
</g>
</g>
<g clip-path="url(#clip3)" clip-rule="nonzero">
<g clip-path="url(#clip4)" clip-rule="nonzero">
<g clip-path="url(#clip5)" clip-rule="nonzero">
<path style=" stroke:none;fill-rule:nonzero;fill:rgb(100%,100%,100%);fill-opacity:1;" d="M 62.222656 109.332031 C 52.890625 102.664062 44 95.554688 35.554688 88 C 32.445312 94.664062 29.777344 101.777344 27.113281 108.886719 C 40.445312 120.445312 58.667969 133.332031 71.113281 140.886719 C 87.113281 99.109375 112 72.445312 136 53.332031 C 132.890625 46.664062 128.890625 40.886719 123.554688 36 C 98.222656 55.554688 77.332031 80.886719 62.222656 109.332031 Z M 62.222656 109.332031 "/>
</g>
</g>
</g>
</g>
</svg>
