<svg width="200" height="200" viewBox="0 0 200 200" fill="none" xmlns="http://www.w3.org/2000/svg">
<g clip-path="url(#clip0_2189_4915)">
<path d="M100 200.002C155.235 200.002 200 155.225 200 100.002C200 44.7666 155.223 0.0019556 100 0.0019556C44.7768 -0.0102054 0 44.7666 0 99.9898C0 155.225 44.7768 200.002 100 200.002Z" fill="#2CA01C"/>
<path d="M66.6672 61.0957C45.1786 61.0957 27.7762 78.5224 27.7762 99.9866C27.7762 121.475 45.1786 138.878 66.6672 138.878C68.5156 138.878 70.3763 138.878 72.2247 138.878V124.43H66.6672C53.1806 124.43 42.2235 113.473 42.2235 99.9866C42.2235 86.5001 53.1806 75.543 66.6672 75.543H80.0199C80.0199 75.543 80.0199 149.677 80.0199 151.099C80.0199 159.077 86.4896 165.547 94.4672 165.547V61.0957C94.4672 61.0957 79.5213 61.0957 66.6672 61.0957Z" fill="white"/>
<path d="M133.358 138.882C154.847 138.882 172.249 121.455 172.249 99.9907C172.249 78.5022 154.847 61.0998 133.358 61.0998C131.51 61.0998 129.649 61.0998 127.801 61.0998V75.547H133.358C146.845 75.547 157.802 86.5041 157.802 99.9907C157.802 113.477 146.845 124.434 133.358 124.434H120.006C120.006 124.434 120.006 50.3008 120.006 48.8779C120.006 40.9003 113.536 34.4307 105.558 34.4307V138.882C105.558 138.882 120.516 138.882 133.358 138.882Z" fill="white"/>
</g>
<defs>
<clipPath id="clip0_2189_4915">
<rect width="200" height="200" fill="white"/>
</clipPath>
</defs>
</svg>
