<?xml version="1.0" encoding="UTF-8"?>
<svg xmlns="http://www.w3.org/2000/svg" xmlns:xlink="http://www.w3.org/1999/xlink" width="160px" height="160px" viewBox="0 0 160 160" version="1.1">
<g id="surface1">
<path style=" stroke:none;fill-rule:nonzero;fill:rgb(10.980392%,8.627451%,27.843139%);fill-opacity:1;" d="M 66.664062 122.382812 C 66.664062 122.714844 66.539062 123.035156 66.308594 123.269531 C 66.082031 123.503906 65.769531 123.636719 65.449219 123.636719 L 37.582031 123.636719 C 37.257812 123.636719 36.949219 123.503906 36.71875 123.269531 C 36.492188 123.035156 36.363281 122.714844 36.363281 122.382812 L 36.363281 81.253906 C 36.363281 80.921875 36.492188 80.601562 36.71875 80.367188 C 36.949219 80.132812 37.257812 80 37.582031 80 L 66.664062 80 Z M 126.035156 36.363281 C 126.257812 36.363281 126.480469 36.425781 126.671875 36.542969 C 126.863281 36.65625 127.019531 36.824219 127.128906 37.023438 C 127.234375 37.222656 127.285156 37.449219 127.273438 37.675781 C 127.261719 37.902344 127.1875 38.125 127.0625 38.3125 L 103.859375 73.484375 C 103.742188 73.664062 103.578125 73.8125 103.382812 73.910156 L 91.339844 79.996094 L 103.382812 86.082031 C 103.578125 86.183594 103.742188 86.332031 103.859375 86.515625 L 127.0625 121.6875 C 127.1875 121.875 127.261719 122.097656 127.273438 122.324219 C 127.285156 122.550781 127.234375 122.777344 127.128906 122.976562 C 127.019531 123.175781 126.863281 123.34375 126.671875 123.457031 C 126.480469 123.574219 126.257812 123.636719 126.035156 123.636719 L 92.777344 123.636719 C 92.339844 123.636719 91.90625 123.519531 91.53125 123.300781 C 91.152344 123.078125 90.839844 122.757812 90.625 122.375 L 66.664062 79.996094 L 90.625 37.625 C 90.839844 37.242188 91.152344 36.921875 91.53125 36.699219 C 91.90625 36.480469 92.339844 36.363281 92.777344 36.363281 Z M 51.515625 36.363281 C 59.882812 36.363281 66.664062 42.875 66.664062 50.910156 C 66.664062 58.941406 59.882812 65.453125 51.515625 65.453125 C 43.148438 65.453125 36.363281 58.941406 36.363281 50.910156 C 36.363281 42.875 43.148438 36.363281 51.515625 36.363281 Z M 51.515625 36.363281 "/>
</g>
</svg>
