<?xml version="1.0" encoding="UTF-8"?>
<svg id="Layer_1" data-name="Layer 1" xmlns="http://www.w3.org/2000/svg" viewBox="0 0 512 512">
  <defs>
    <style>
      .cls-1 {
        fill: #f2007d;
      }

      .cls-1, .cls-2 {
        stroke-width: 0px;
      }

      .cls-2 {
        fill: #fff;
      }
    </style>
  </defs>
  <rect class="cls-1" width="512" height="512"/>
  <path class="cls-2" d="m240.26,408.87h17.79v-34.27c0-2.31-.08-4.48-.23-6.51-.16-2.03-.52-3.96-1.08-5.79,1.11-.72,2.53-1.31,4.24-1.79,1.71-.48,3.04-.72,4-.72,3.58,0,6.11,1.19,7.58,3.58,1.47,2.39,2.2,6.45,2.2,12.18v33.31h17.8v-35.46c0-4.3-.36-8.2-1.08-11.7-.71-3.5-2.03-6.53-3.94-9.08-1.91-2.55-4.48-4.51-7.7-5.91-3.22-1.39-7.34-2.09-12.36-2.09-2.79,0-5.83.52-9.13,1.55-3.3,1.04-6.23,2.47-8.78,4.3-1.83-1.59-4.16-2.96-6.99-4.12-2.82-1.15-6.51-1.73-11.04-1.73-2.31,0-4.66.1-7.05.3-2.39.2-4.72.48-6.99.84-2.27.36-4.42.76-6.45,1.2-2.03.44-3.8.86-5.31,1.25v60.66h17.8v-48.48c1.11-.16,2.27-.3,3.46-.42,1.2-.12,2.35-.18,3.46-.18,3.58,0,6.11,1.19,7.58,3.58,1.47,2.39,2.21,6.45,2.21,12.18v33.31Zm-64.9-18.45c-2.19,3.22-5.31,4.84-9.37,4.84s-7.2-1.61-9.43-4.84c-2.23-3.22-3.34-7.58-3.34-13.08s1.12-9.81,3.34-12.96c2.23-3.14,5.37-4.72,9.43-4.72s7.18,1.57,9.37,4.72c2.19,3.15,3.29,7.46,3.29,12.96s-1.1,9.85-3.29,13.08m19.17-26.57c-1.51-4.06-3.63-7.52-6.33-10.39-2.71-2.87-5.95-5.1-9.73-6.69-3.79-1.59-7.94-2.39-12.48-2.39s-8.58.8-12.36,2.39c-3.79,1.59-7.05,3.82-9.79,6.69-2.75,2.86-4.9,6.33-6.45,10.39-1.55,4.06-2.33,8.56-2.33,13.49s.76,9.45,2.27,13.55c1.51,4.1,3.62,7.6,6.33,10.5,2.71,2.91,5.95,5.16,9.74,6.75,3.78,1.59,7.98,2.39,12.59,2.39s8.94-.79,12.72-2.39c3.78-1.59,7.02-3.84,9.73-6.75,2.7-2.9,4.78-6.41,6.21-10.5,1.43-4.1,2.15-8.62,2.15-13.55s-.75-9.43-2.27-13.49m-111.95,26.69c1.23,4.02,3.18,7.5,5.85,10.45,2.66,2.95,6.07,5.28,10.21,6.98,4.14,1.71,9.07,2.57,14.81,2.57,3.74,0,7.16-.32,10.27-.95,3.11-.64,5.69-1.39,7.76-2.27l-2.51-14.57c-2.07.88-4.34,1.51-6.8,1.91-2.47.4-4.78.6-6.93.6-6.05,0-10.29-1.55-12.72-4.66-2.43-3.1-3.64-7.48-3.64-13.13,0-5.33,1.29-9.63,3.88-12.9,2.59-3.27,6.51-4.9,11.76-4.9,2.47,0,4.69.24,6.69.71,1.99.48,3.82,1.04,5.49,1.67l3.7-14.21c-2.63-1.12-5.34-1.97-8.12-2.57-2.78-.6-5.85-.9-9.19-.9-5.1,0-9.63.88-13.61,2.63-3.98,1.75-7.37,4.12-10.15,7.1-2.78,2.98-4.92,6.49-6.39,10.51-1.47,4.02-2.21,8.3-2.21,12.84s.62,9.06,1.85,13.08m-8.24.72c-2.27-1.87-4.84-2.81-7.7-2.81s-5.43.94-7.7,2.81c-2.27,1.87-3.4,4.6-3.4,8.18s1.13,6.31,3.4,8.18c2.27,1.87,4.84,2.8,7.7,2.8s5.44-.94,7.7-2.8c2.27-1.87,3.4-4.6,3.4-8.18s-1.13-6.31-3.4-8.18m327.71-124.57c.24-1.51.62-3,1.13-4.48.52-1.47,1.26-2.77,2.21-3.88.95-1.11,2.15-2.01,3.58-2.69,1.43-.67,3.14-1.01,5.13-1.01s3.8.36,5.2,1.07c1.39.72,2.55,1.63,3.46,2.75.91,1.12,1.59,2.39,2.03,3.82.44,1.43.7,2.91.78,4.42h-23.52Zm-16.3,19.7c1.32,3.98,3.34,7.42,6.09,10.33,2.75,2.91,6.21,5.19,10.39,6.86,4.18,1.67,9.1,2.51,14.75,2.51,2.23,0,4.46-.12,6.69-.36,2.23-.24,4.32-.53,6.27-.89,1.95-.36,3.72-.78,5.31-1.26,1.59-.48,2.87-.96,3.82-1.43l-2.39-14.45c-1.99.88-4.56,1.61-7.7,2.21-3.15.6-6.35.9-9.61.9-5.09,0-9.16-1.07-12.18-3.22-3.02-2.15-4.74-5.05-5.13-8.72h40.36c.08-.96.16-2.05.24-3.29.08-1.23.12-2.37.12-3.4,0-10.59-2.59-18.61-7.76-24.06-5.18-5.45-12.22-8.18-21.13-8.18-3.82,0-7.54.72-11.17,2.15-3.62,1.43-6.83,3.54-9.61,6.33-2.79,2.79-5.04,6.27-6.75,10.45-1.72,4.18-2.57,9.06-2.57,14.63,0,4.62.66,8.92,1.97,12.9m-46.63-7.64c0,4.06.38,7.76,1.13,11.11.75,3.34,2.09,6.19,4,8.54,1.91,2.35,4.46,4.18,7.64,5.49,3.18,1.31,7.2,1.97,12.06,1.97,3.82,0,7.04-.32,9.67-.96,2.63-.63,5.02-1.39,7.16-2.27l-2.51-13.85c-1.67.64-3.52,1.13-5.55,1.49-2.03.36-4,.54-5.91.54-3.98,0-6.63-1.11-7.94-3.34-1.31-2.23-1.97-5.21-1.97-8.95v-22.09h21.37v-14.81h-21.37v-18.51l-17.79,2.87v52.78Zm-11.34-37.14h-17.79v48.48c-1.12.16-2.39.3-3.82.42-1.43.12-2.78.18-4.06.18-4.14,0-6.96-1.27-8.48-3.82-1.51-2.54-2.27-6.68-2.27-12.42v-32.84h-17.8v34.99c0,4.3.44,8.24,1.32,11.82.87,3.58,2.35,6.67,4.42,9.26,2.07,2.59,4.88,4.6,8.42,6.03,3.54,1.43,7.98,2.15,13.31,2.15s10.27-.38,15.05-1.13c4.78-.76,8.67-1.57,11.7-2.45v-60.66Zm-119.17,62.81h17.79v-48.48c1.12-.16,2.39-.3,3.82-.42,1.44-.12,2.79-.18,4.06-.18,4.14,0,6.96,1.19,8.48,3.58,1.51,2.39,2.27,6.45,2.27,12.18v33.31h17.79v-35.46c0-4.3-.44-8.2-1.31-11.7-.88-3.5-2.35-6.53-4.42-9.08-2.07-2.55-4.88-4.51-8.42-5.91-3.54-1.39-7.98-2.09-13.31-2.09s-10.27.38-15.05,1.13c-4.78.76-8.68,1.57-11.7,2.45v60.66Zm-13.43-88.66c-2.11-1.87-4.6-2.81-7.46-2.81s-5.36.94-7.47,2.81c-2.11,1.87-3.16,4.44-3.16,7.7s1.05,5.83,3.16,7.7c2.11,1.87,4.6,2.81,7.47,2.81s5.35-.94,7.46-2.81c2.11-1.87,3.16-4.44,3.16-7.7s-1.05-5.83-3.16-7.7m1.49,25.85h-17.79v62.81h17.79v-62.81Zm-81.43,62.81h17.79v-34.27c0-2.31-.08-4.48-.24-6.51-.16-2.03-.52-3.96-1.07-5.79,1.11-.72,2.52-1.31,4.24-1.79,1.71-.48,3.04-.72,4-.72,3.58,0,6.11,1.19,7.58,3.58,1.47,2.39,2.21,6.45,2.21,12.18v33.31h17.79v-35.46c0-4.3-.36-8.2-1.07-11.7-.72-3.5-2.03-6.53-3.94-9.08-1.91-2.55-4.48-4.51-7.7-5.91-3.23-1.39-7.35-2.09-12.36-2.09-2.79,0-5.83.52-9.13,1.55-3.3,1.04-6.23,2.47-8.78,4.3-1.83-1.59-4.16-2.96-6.98-4.12-2.83-1.15-6.51-1.73-11.05-1.73-2.31,0-4.66.1-7.05.3-2.39.2-4.72.48-6.99.84-2.27.36-4.41.76-6.45,1.2-2.03.44-3.8.86-5.31,1.25v60.66h17.79v-48.48c1.11-.16,2.27-.3,3.46-.42,1.2-.12,2.35-.18,3.46-.18,3.58,0,6.11,1.19,7.58,3.58,1.47,2.39,2.21,6.45,2.21,12.18v33.31Zm114.98-133.97c0,4.06.38,7.76,1.13,11.11.76,3.34,2.09,6.19,4,8.54,1.91,2.35,4.46,4.18,7.64,5.49,3.19,1.31,7.2,1.97,12.06,1.97,3.82,0,7.05-.32,9.68-.96,2.63-.63,5.02-1.39,7.16-2.27l-2.51-13.85c-1.67.64-3.52,1.13-5.55,1.49-2.03.36-4,.54-5.91.54-3.98,0-6.63-1.11-7.94-3.34-1.32-2.23-1.97-5.21-1.97-8.95v-22.09h21.37v-14.81h-21.37v-18.51l-17.79,2.87v52.78Zm-42.74,11.88c-3.19-.67-6.29-1.61-9.32-2.8l-2.99,14.45c1.43.64,4,1.43,7.7,2.39,3.7.96,8.34,1.43,13.91,1.43,8.52,0,15.11-1.59,19.76-4.76,4.66-3.18,6.99-7.87,6.99-14.06,0-2.62-.3-4.92-.9-6.91-.6-1.99-1.63-3.79-3.11-5.42-1.47-1.63-3.48-3.14-6.03-4.55-2.55-1.4-5.77-2.83-9.67-4.27-1.91-.72-3.49-1.38-4.72-1.99-1.24-.6-2.21-1.16-2.93-1.68-.71-.52-1.2-1.06-1.43-1.61-.24-.56-.36-1.19-.36-1.91,0-3.11,2.79-4.66,8.36-4.66,3.03,0,5.75.28,8.18.84,2.43.56,4.68,1.19,6.75,1.91l3.11-13.85c-2.07-.79-4.86-1.53-8.36-2.21-3.5-.68-7.17-1.02-10.99-1.02-7.64,0-13.65,1.71-18.03,5.14-4.38,3.42-6.57,8.08-6.57,13.97,0,3.03.44,5.61,1.31,7.76.87,2.15,2.11,4,3.7,5.55,1.59,1.55,3.52,2.89,5.79,4,2.27,1.12,4.8,2.19,7.59,3.22,3.58,1.36,6.25,2.57,8,3.64,1.75,1.07,2.62,2.33,2.62,3.76,0,1.83-.68,3.07-2.03,3.7-1.36.64-3.66.96-6.93.96s-6.25-.34-9.43-1.02m-53.44-50.39c-2.03.2-3.96.44-5.79.71-1.83.28-3.52.6-5.07.96-1.55.36-2.85.7-3.88,1.01l2.27,14.33c2.15-.79,4.7-1.41,7.64-1.85,2.95-.44,5.93-.66,8.96-.66,4.53,0,7.72.92,9.55,2.75,1.83,1.83,2.74,4.26,2.74,7.28v1.67c-1.11-.32-2.56-.58-4.36-.78-1.79-.2-3.84-.3-6.15-.3-3.42,0-6.73.34-9.91,1.02-3.19.68-6.01,1.77-8.48,3.28-2.47,1.51-4.44,3.54-5.91,6.09-1.47,2.55-2.21,5.65-2.21,9.31s.64,7.04,1.91,9.67c1.27,2.63,3.11,4.76,5.49,6.39,2.39,1.63,5.23,2.81,8.54,3.52,3.3.72,6.99,1.07,11.05,1.07,6.45,0,11.94-.38,16.48-1.13,4.54-.76,8.08-1.41,10.63-1.97v-37.02c0-3.9-.44-7.44-1.31-10.63-.88-3.18-2.37-5.89-4.48-8.12-2.11-2.23-4.92-3.94-8.42-5.13-3.5-1.2-7.88-1.79-13.14-1.79-2.07,0-4.12.1-6.15.3m-.12,50.15c-1.87-1.07-2.81-3-2.81-5.79,0-1.43.32-2.63.96-3.58.63-.95,1.51-1.71,2.62-2.27,1.12-.55,2.41-.93,3.88-1.13,1.47-.2,3.05-.3,4.72-.3,1.2,0,2.51.08,3.94.24,1.43.16,2.51.32,3.22.48v13.49c-.95.16-2.23.28-3.82.36-1.59.08-3.26.12-5.01.12-3.27,0-5.83-.54-7.7-1.61m-25.85.54c-2.15-.16-3.86-.52-5.14-1.07-1.27-.55-2.25-1.27-2.93-2.15-.68-.88-1.13-1.95-1.37-3.22-.24-1.27-.36-2.7-.36-4.3v-68.42l-17.79,2.87v69.14c0,3.34.34,6.35,1.01,9.01.68,2.67,1.95,4.94,3.82,6.81,1.87,1.87,4.42,3.33,7.64,4.36,3.22,1.03,7.42,1.59,12.6,1.67l2.51-14.69Z"/>
</svg>