<?xml version="1.0" encoding="UTF-8"?>
<svg id="Layer_1" data-name="Layer 1" xmlns="http://www.w3.org/2000/svg" viewBox="0 0 182.43 181.16">
  <defs>
    <style>
      .cls-1 {
        fill: #231f20;
      }
    </style>
  </defs>
  <path class="cls-1" d="m67.93,92.35v-36.16c0-1.66-1.34-3-3-3h-8.74c-1.66,0-3,1.34-3,3v47.19c0,1.66,1.34,3,3,3h23.78c1.43,0,2.79-.61,3.74-1.68l7.43-8.36c.86-.97.17-2.5-1.12-2.5h-20.58c-.83,0-1.5-.67-1.5-1.5Z"/>
  <path class="cls-1" d="m125.78,74.78h-31.95c-1.43,0-2.79.61-3.74,1.68l-7.36,8.29c-.86.97-.17,2.5,1.12,2.5h22.34c.86,0,1.32,1.02.75,1.66l-23.93,26.93c-.81.92-1.26,2.1-1.26,3.32v5.81c0,1.66,1.34,3,3,3h41.49c1.66,0,3-1.34,3-3v-6.46c0-1.66-1.34-3-3-3h-21.9c-.86,0-1.32-1.02-.75-1.66l23.93-26.93c.81-.92,1.26-2.1,1.26-3.32v-5.81c0-1.66-1.34-3-3-3Z"/>
</svg>