<?xml version="1.0" encoding="UTF-8"?>
<svg id="Layer_1" xmlns="http://www.w3.org/2000/svg" version="1.1" viewBox="0 0 1000 1000">
  <defs>
    <style>
      .st0 {
        fill: #284060;
      }

      .st0, .st1 {
        fill-rule: evenodd;
      }

      .st1 {
        fill: #e62a2d;
      }
    </style>
  </defs>
  <g transform="translate(196.49, 75) scale(0.85)">
    <path class="st1" d="M128.52,236.77c0,65.38,25.89,124.58,67.72,167.43l161.09,164.97,161.08-164.97c41.83-42.85,67.72-102.05,67.72-167.43C586.13,106.82,483.91,1.32,357.33,0c-126.59,1.32-228.81,106.82-228.81,236.77ZM254.76,237.15c0-56.75,45.92-102.76,102.57-102.76s102.56,46.01,102.56,102.76-45.92,102.77-102.56,102.77-102.57-46.01-102.57-102.77Z"/>
    <path class="st0" d="M204.87,678.99l-28.44,48.82s-6.94,9.79-8.83,28.41c-1.89,18.63,10.75,30.72,10.75,30.72,0,0-2.96,17.82-.65,30.86,5.51,31.01,39.12,24.66,39.12,24.66,0,0-9.18-7.8-10.76-15.69-1.59-7.89,9.81-21.39,9.81-21.39l49.25-65.49c1.19,1.51,2.36,3.04,3.53,4.58v.02c3.14,4.15,6.17,8.4,9.09,12.74,5.43,8.08,10.5,16.47,15.24,25.06,16.07-51.75,41.22-108.92,79.98-149.88,55.82-59.01,143.7-122.22,200.73-198.91h.21c34.65-46.6,57.92-98.18,55.68-156.82-.7-18.34-3.77-35.39-8.64-51.19-2.38-5.56-6.03-13.68-9-18.49-3.45-5.61-7.18-10.38-10.31-13.99,2.81,14.18,4.28,28.81,4.28,43.76,0,19.07-2.38,37.62-6.9,55.38-9.26,52.42-38.29,98.94-75.02,141.35h-.2c-47.71,55.09-108.4,103.26-155.61,148.4l-11,10.99v-.26c-4.08,4.06-8.03,8.09-11.84,12.11-21.85,23.1-39.37,51.35-53.37,80.87l-1.71-1.82C202.17,590.68,34.25,487.09,33.7,336.57c-6.44,4.89-16.55,14.91-25.43,33.93-10.81,23.17-8.5,48.13-6.89,58.29,27.1,101.04,126.12,179.85,203.49,250.2ZM190.73,774.57c-.98-.15-1.87-.56-2.63-1.2,3.01-1.25,5.65-4.93,6.49-9.55.85-4.62-.34-8.85-2.76-10.87.95-.4,1.94-.55,2.92-.41,4.1.59,6.51,5.99,5.4,12.08-1.11,6.08-5.33,10.53-9.42,9.95ZM118.27,922.55s57.26,14,147.7-19.01c17.5-6.38,32.92-13.45,46.4-20.68-3.81-11.16-8.06-22.46-12.78-33.69-17.78,14.53-37.74,28.13-58.51,37.37-69.7,31.01-122.81,36.01-122.81,36.01ZM696.27,823.55s-53.11-5-122.81-36.01c-31.49-14.01-61.12-38.03-84.14-60.15-4.01,4-7.89,7.97-11.63,11.93-5.59,5.91-10.89,12.15-15.93,18.66,19.95,15.24,48.36,32.53,86.81,46.56,90.44,33.01,147.7,19.01,147.7,19.01ZM706.27,886.5s-64-5-148-36c-43.31-15.98-83.69-44.99-112.65-69.35-8.06,12.79-15.27,26.24-21.74,39.94,24.03,15.2,58.19,32.42,104.39,46.41,109,33,178,19,178,19ZM304.21,618.89c-93.3-88.51-236.31-188.9-230.91-330.35.58-15.25,2.48-28.95,5.55-41.52-5.54,5.22-14.45,15.22-22.58,31.48-5.76,11.53-10,20-10.59,37.71-4.8,144.75,144.31,246.46,237.3,336.48,6.44-11.72,13.5-23.08,21.23-33.8ZM341.33,577.15c-83.47-78.68-204.76-166.88-225.63-285-4.51-17.76-6.9-36.31-6.9-55.38,0-14.95,1.47-29.58,4.28-43.76-3.13,3.61-6.86,8.38-10.31,13.99-2.96,4.81-6.61,12.93-8.99,18.49-4.88,15.8-7.95,32.85-8.65,51.19-5.36,140.66,136.03,240.72,229.35,328.87,3.59-4.36,7.29-8.6,11.14-12.66,3.8-4.02,7.75-8.06,11.83-12.12v.26l3.88-3.88ZM333.66,817.96c3.23-10.19,6.82-20.59,10.81-31l.53-1.37.29-.75.58-1.46.92-2.35,2.03-5.06c15.42-37.69,36.07-74.95,63.58-104.03,65.14-68.85,173.9-143.42,226.39-238.44h-.09c19.86-35.91,31.74-74.74,30.33-117.29-.59-17.71-4.82-26.18-10.59-37.71-8.13-16.26-17.04-26.26-22.58-31.48,3.08,12.57,4.98,26.27,5.56,41.52,2.05,53.71-17.3,101.49-47.2,144.96h-.21c-56.46,82.08-150.54,148.75-209.22,210.77-24,25.36-42.77,56.96-57.41,89.62-8.48,18.94-15.58,38.22-21.49,56.88l-2.01,9.7,2,7.36c4.34,9.35,8.33,18.81,12,28.26,2.09,5.38,4.07,10.75,5.95,16.1,2.85-10.99,6.1-22.48,9.83-34.23ZM357.33,1000v-1.48s-.08.72-.08.72l.08.76ZM357.32,998.52c1.83-17.47,21.36-185.34,106.37-275.2,76.43-80.79,212.95-169.46,248.11-289.82h.21c.46-1.56.9-3.13,1.32-4.71,1.62-10.16,3.93-35.12-6.89-58.29-8.87-19.02-18.99-29.04-25.43-33.93-.12,34.65-9.12,66.81-23.97,96.93h-.21c-49.66,100.72-164.77,178.61-232.59,250.29-29.59,31.28-51.26,72.02-66.99,112.57l-.04.09-.03.11c-10.98,28.31-19.07,56.53-24.96,81.36,18.05,59.81,23.99,111.38,24.95,120.61l.08.71.07-.72ZM357.17,998.53v1.47s.08-.76.08-.76l-.08-.71Z"/>
  </g>
</svg>
