<?xml version="1.0" encoding="UTF-8"?>
<svg xmlns="http://www.w3.org/2000/svg" xmlns:xlink="http://www.w3.org/1999/xlink" width="160px" height="163px" viewBox="0 0 160 162" version="1.1">
<g id="surface1">
<path style=" stroke:none;fill-rule:nonzero;fill:rgb(94.901961%,21.960784%,35.294119%);fill-opacity:1;" d="M 20 1.246094 L 140 1.246094 C 151.046875 1.246094 160 10.171875 160 21.183594 L 160 140.816406 C 160 151.828125 151.046875 160.753906 140 160.753906 L 20 160.753906 C 8.953125 160.753906 0 151.828125 0 140.816406 L 0 21.183594 C 0 10.171875 8.953125 1.246094 20 1.246094 Z M 20 1.246094 "/>
<path style=" stroke:none;fill-rule:nonzero;fill:rgb(100%,100%,100%);fill-opacity:1;" d="M 66.863281 100.097656 L 99.648438 43.832031 C 99.804688 43.554688 99.890625 43.246094 99.890625 42.929688 C 99.890625 42.613281 99.804688 42.300781 99.648438 42.027344 C 99.488281 41.753906 99.261719 41.523438 98.988281 41.367188 C 98.714844 41.207031 98.402344 41.125 98.085938 41.125 L 76.949219 41.125 C 76.425781 41.125 75.910156 41.261719 75.453125 41.523438 C 74.996094 41.785156 74.617188 42.160156 74.351562 42.613281 L 40.40625 100.902344 C 40.140625 101.359375 40 101.875 40 102.402344 C 40 102.929688 40.136719 103.449219 40.398438 103.90625 C 40.660156 104.363281 41.039062 104.742188 41.492188 105.007812 C 41.949219 105.273438 42.464844 105.414062 42.992188 105.414062 L 57.757812 105.414062 L 51.382812 116.363281 C 51.121094 116.820312 50.980469 117.339844 50.980469 117.867188 C 50.980469 118.394531 51.117188 118.914062 51.378906 119.371094 C 51.644531 119.828125 52.023438 120.210938 52.480469 120.472656 C 52.933594 120.738281 53.453125 120.875 53.980469 120.875 L 107.164062 120.875 C 107.796875 120.875 108.414062 120.707031 108.960938 120.390625 C 109.507812 120.074219 109.960938 119.617188 110.273438 119.070312 L 119.757812 102.824219 C 119.917969 102.550781 120 102.242188 120 101.925781 C 120 101.609375 119.917969 101.296875 119.761719 101.023438 C 119.605469 100.75 119.378906 100.523438 119.105469 100.363281 C 118.832031 100.203125 118.523438 100.117188 118.207031 100.117188 Z M 78.292969 46.449219 L 91.96875 46.449219 L 60.722656 100.097656 L 47.03125 100.097656 Z M 106.238281 115.5625 L 58.019531 115.5625 L 63.921875 105.425781 L 112.105469 105.425781 Z M 106.238281 115.5625 "/>
</g>
</svg>
