<?xml version="1.0" encoding="UTF-8"?>
<svg xmlns="http://www.w3.org/2000/svg" xmlns:xlink="http://www.w3.org/1999/xlink" width="160px" height="160px" viewBox="0 0 160 160" version="1.1">
<g id="surface1">
<rect x="0" y="0" width="160" height="160" style="fill:rgb(100%,36.078432%,27.058825%);fill-opacity:1;stroke:none;"/>
<path style=" stroke:none;fill-rule:nonzero;fill:rgb(100%,100%,100%);fill-opacity:1;" d="M 105.839844 48.128906 L 82.4375 48.128906 L 82.4375 60.207031 L 105.839844 60.207031 C 107.472656 60.207031 109.03125 60.496094 110.480469 61.03125 L 82.4375 90.269531 L 82.4375 73.710938 C 82.441406 59.609375 70.964844 48.128906 56.855469 48.128906 L 33.453125 48.128906 L 33.453125 60.207031 L 56.855469 60.207031 C 58.484375 60.207031 60.046875 60.496094 61.496094 61.03125 L 24.910156 99.179688 L 33.457031 107.71875 L 69.792969 69.828125 C 70.164062 71.0625 70.367188 72.367188 70.367188 73.714844 L 70.367188 107.71875 L 82.441406 107.71875 L 118.78125 69.828125 C 119.148438 71.0625 119.351562 72.367188 119.351562 73.714844 L 119.351562 107.71875 L 131.429688 107.71875 L 131.429688 73.714844 C 131.429688 59.609375 119.949219 48.128906 105.84375 48.128906 Z M 105.839844 48.128906 "/>
</g>
</svg>
