<svg width="64" height="64" viewBox="0 0 64 64" fill="none" xmlns="http://www.w3.org/2000/svg">
<g clip-path="url(#clip0_1564_11453)">
<path d="M32 64C49.6731 64 64 49.6731 64 32C64 14.3269 49.6731 0 32 0C14.3269 0 0 14.3269 0 32C0 49.6731 14.3269 64 32 64Z" fill="#F6F5F2" style="fill:#F6F5F2;fill:color(display-p3 0.9647 0.9608 0.9490);fill-opacity:1;"/>
<path fill-rule="evenodd" clip-rule="evenodd" d="M31.9375 3.56055C47.7512 3.56058 60.4395 16.2489 60.4395 32C60.4395 48.3135 47.1261 60.4394 31.9375 60.4395C16.249 60.4395 3.56055 47.7512 3.56055 32C3.56055 16.2489 16.249 3.56055 31.9375 3.56055ZM57.9395 38.875C56.5018 40.6876 54.4386 42.0011 52.126 42.5635C48.3756 49.8138 40.8754 54.7519 32.125 54.752C29.2498 54.752 26.875 52.4386 26.875 49.6885C26.8751 48.126 27.6249 46.6883 28.75 45.751C27.4377 45.4229 26.2206 44.9034 25.0996 44.2764L24.625 44.001C23.4999 45.5009 22.8116 47.4384 22.8115 49.5635C22.8115 54.8139 26.8121 58.8145 32 58.8145C44.4899 58.8145 54.6785 50.759 57.7959 39.418L57.9395 38.875ZM14.4365 22.749C9.18617 22.749 5.18555 26.7497 5.18555 32C5.18555 44.7508 13.5617 55.1267 25.25 58.002C23.4373 56.5018 22.0616 54.5011 21.499 52.1885C14.1862 48.3132 9.24805 40.7504 9.24805 31.875C9.24807 29.0624 11.6239 26.6875 14.499 26.6875L14.7783 26.6963C16.1689 26.7827 17.4326 27.5076 18.3115 28.5625C18.6865 27.1252 19.2492 25.8124 19.999 24.625C18.5928 23.5116 16.8022 22.8378 14.833 22.7578L14.4365 22.749ZM32.125 46.126C29.9376 46.126 28.5001 47.5635 28.5 49.6885C28.5 51.751 29.9375 53.126 32.125 53.126C34.1252 53.126 35.5 51.751 35.5 49.6885C35.4999 47.5635 34.1251 46.126 32.125 46.126ZM24.5625 35.8125C23.9999 37.2499 23.1241 38.5633 22.0615 39.6885C24.3116 42.626 27.9373 44.501 32.125 44.501C34.8126 44.501 37.1248 46.8758 37.125 49.6885C37.125 50.8759 36.6876 51.9385 36.0625 52.8135C37.8126 52.501 39.5009 51.9385 41.0635 51.251C42.0008 45.6882 38.0627 40.376 32.0625 40.376C28.8123 40.3759 25.9375 38.5002 24.5625 35.8125ZM43.126 40.6885C42.3761 41.5634 41.5635 42.4387 40.626 43.126C42.001 44.9385 42.8134 47.1887 42.8135 50.3135C45.876 48.5634 48.4384 46.0009 50.251 42.876C47.1887 42.8759 44.9385 42.0635 43.126 40.6885ZM20.874 40.6885C19.0615 42.0635 16.8114 42.8759 13.8115 42.876C15.6241 45.9385 18.124 48.4384 21.1865 50.251C21.1866 47.1885 21.9998 44.9386 23.375 43.126C22.4374 42.4387 21.624 41.5635 20.874 40.6885ZM51.1885 22.874C45.8132 21.8743 40.376 25.8746 40.376 32C40.376 35.2503 38.5002 38.0624 35.8125 39.4375C37.2499 40.0001 38.5634 40.8758 39.626 42.001C42.5635 39.7507 44.501 36.1252 44.501 31.875C44.501 29.0624 46.8759 26.6876 49.751 26.6875L49.9609 26.6914C51.0009 26.7352 51.9307 27.1055 52.751 27.75C52.3759 26.0623 51.876 24.3742 51.1885 22.874ZM38.75 5.99805C40.5001 7.43564 41.8759 9.49888 42.4385 11.749C49.7512 15.5619 54.7519 23.1871 54.752 31.875C54.752 34.6251 52.4387 36.9375 49.751 36.9375C48.1885 36.9374 46.7509 36.2501 45.751 35.125C45.376 36.6876 44.8133 38.1251 44.001 39.4375C45.5009 40.5626 47.5009 41.2509 49.626 41.251C54.8139 41.251 58.8145 37.3128 58.8145 32C58.8145 19.3117 50.4382 8.93576 38.75 5.99805ZM24.375 22.0615C21.4374 24.3116 19.499 27.8121 19.499 31.875C19.499 34.625 17.1867 36.9374 14.499 36.9375C13.4051 36.9375 12.4065 36.603 11.5459 36.0586L11.1865 35.8125C11.5615 37.6875 12.124 39.4383 12.874 41.126C18.4367 42.0008 23.624 38.1254 23.624 32C23.624 28.8123 25.4997 25.9375 28.25 24.5625C26.992 24.0702 25.8293 23.3383 24.8047 22.4512L24.375 22.0615ZM32.0625 25.25C28.1248 25.25 25.25 28.1248 25.25 32C25.25 35.9378 28.1248 38.75 32.0625 38.75C35.9377 38.75 38.75 35.9378 38.75 32C38.75 28.1248 35.9377 25.25 32.0625 25.25ZM14.499 28.3125C12.3114 28.3125 10.874 29.7499 10.874 31.875C10.874 33.9376 12.3114 35.3125 14.499 35.3125C16.4991 35.3124 17.874 33.9375 17.874 31.875C17.874 29.75 16.499 28.3126 14.499 28.3125ZM49.751 28.3125C47.5636 28.3126 46.126 29.75 46.126 31.875C46.126 33.9375 47.5636 35.3124 49.751 35.3125C51.7512 35.3125 53.126 33.9376 53.126 31.875C53.126 29.7499 51.7511 28.3125 49.751 28.3125ZM28 11.249C26.2499 11.5616 24.4991 12.124 22.9365 12.874C22.0617 18.6242 26.0621 23.624 32.0625 23.624C35.2502 23.624 38.0634 25.4998 39.4385 28.1875C40.0636 26.6875 40.9385 25.3117 42.126 24.1865C39.9383 21.249 36.3128 19.499 32.125 19.499C29.2499 19.499 26.8751 17.1866 26.875 14.4365C26.875 13.249 27.3125 12.1241 28 11.249ZM31.9375 5.18555C19.3117 5.18555 8.99824 13.4991 5.99805 25.1875C7.49815 23.3748 9.56138 21.9989 11.874 21.4365C15.6869 14.2486 23.3122 9.24805 32.125 9.24805C34.8127 9.24807 37.125 11.6239 37.125 14.4365C37.1249 15.9365 36.4375 17.3116 35.375 18.249C36.875 18.5616 38.2509 19.124 39.501 19.874C40.5634 18.374 41.1884 16.4989 41.1885 14.374C41.1885 9.18621 37.1879 5.18556 31.9375 5.18555ZM21.1865 13.749C18.124 15.5616 15.5616 18.124 13.749 21.124C16.8739 21.1241 19.124 21.9365 20.9365 23.374C21.6239 22.4365 22.499 21.6239 23.4365 20.9365C21.9991 19.124 21.1866 16.8739 21.1865 13.749ZM42.8135 13.6865C42.8134 16.7489 42.0009 18.9365 40.751 20.749C41.6885 21.4366 42.5633 22.3115 43.251 23.249C45.0634 21.9365 47.2511 21.1241 50.251 21.124C48.4384 18.0615 45.876 15.4991 42.8135 13.6865ZM32.125 10.874C29.9375 10.874 28.5 12.3114 28.5 14.4365C28.5001 16.499 29.9376 17.874 32.125 17.874C34.1251 17.874 35.4999 16.499 35.5 14.4365C35.5 12.3114 34.1252 10.874 32.125 10.874Z" fill="#23232F" style="fill:#23232F;fill:color(display-p3 0.1373 0.1373 0.1843);fill-opacity:1;"/>
</g>
<defs>
<clipPath id="clip0_1564_11453">
<rect width="64" height="64" fill="white" style="fill:white;fill-opacity:1;"/>
</clipPath>
</defs>
</svg>
