<?xml version="1.0" encoding="UTF-8"?>
<svg xmlns="http://www.w3.org/2000/svg" xmlns:xlink="http://www.w3.org/1999/xlink" width="160px" height="160px" viewBox="0 0 160 160" version="1.1">
<g id="surface1">
<rect x="0" y="0" width="160" height="160" style="fill:rgb(100%,100%,100%);fill-opacity:1;stroke:none;"/>
<path style=" stroke:none;fill-rule:nonzero;fill:rgb(0%,0%,0%);fill-opacity:1;" d="M 102.269531 100.921875 C 101.40625 100.058594 100.972656 99.625 100.808594 99.128906 C 100.65625 98.671875 100.65625 98.179688 100.808594 97.726562 C 100.972656 97.230469 101.40625 96.796875 102.269531 95.933594 L 114.84375 83.359375 C 115.417969 82.785156 115.707031 82.496094 116.035156 82.386719 C 116.339844 82.285156 116.667969 82.285156 116.972656 82.386719 C 117.304688 82.496094 117.589844 82.785156 118.167969 83.359375 L 130.742188 95.933594 C 131.605469 96.796875 132.035156 97.230469 132.203125 97.726562 C 132.355469 98.179688 132.355469 98.671875 132.203125 99.128906 C 132.035156 99.625 131.605469 100.058594 130.742188 100.921875 L 129.804688 101.855469 C 125.199219 106.460938 122.894531 108.765625 120.25 109.648438 C 117.820312 110.460938 115.191406 110.460938 112.761719 109.648438 C 110.113281 108.765625 107.808594 106.460938 103.203125 101.855469 Z M 102.269531 100.921875 "/>
<path style=" stroke:none;fill-rule:nonzero;fill:rgb(0%,0%,0%);fill-opacity:1;" d="M 83.96875 82.621094 C 83.105469 81.757812 82.675781 81.324219 82.507812 80.828125 C 82.355469 80.375 82.355469 79.882812 82.507812 79.425781 C 82.675781 78.929688 83.105469 78.496094 83.96875 77.632812 L 96.542969 65.058594 C 97.121094 64.484375 97.40625 64.195312 97.738281 64.085938 C 98.042969 63.984375 98.371094 63.984375 98.675781 64.085938 C 99.003906 64.195312 99.292969 64.484375 99.867188 65.058594 L 112.441406 77.632812 C 113.304688 78.496094 113.738281 78.929688 113.902344 79.425781 C 114.054688 79.882812 114.054688 80.375 113.902344 80.828125 C 113.738281 81.324219 113.304688 81.757812 112.441406 82.621094 L 99.867188 95.195312 C 99.292969 95.769531 99.003906 96.058594 98.675781 96.167969 C 98.371094 96.269531 98.042969 96.269531 97.738281 96.167969 C 97.40625 96.058594 97.121094 95.769531 96.542969 95.195312 Z M 83.96875 82.621094 "/>
<path style=" stroke:none;fill-rule:nonzero;fill:rgb(0%,0%,0%);fill-opacity:1;" d="M 65.671875 64.324219 C 64.808594 63.460938 64.375 63.027344 64.210938 62.53125 C 64.058594 62.078125 64.058594 61.582031 64.210938 61.128906 C 64.375 60.632812 64.808594 60.199219 65.671875 59.335938 L 66.609375 58.398438 C 71.214844 53.792969 73.515625 51.492188 76.164062 50.609375 C 78.59375 49.796875 81.222656 49.796875 83.652344 50.609375 C 86.300781 51.492188 88.601562 53.792969 93.207031 58.398438 L 94.144531 59.335938 C 95.007812 60.199219 95.4375 60.632812 95.605469 61.128906 C 95.757812 61.582031 95.757812 62.078125 95.605469 62.53125 C 95.4375 63.027344 95.007812 63.460938 94.144531 64.324219 L 81.570312 76.898438 C 80.996094 77.472656 80.707031 77.761719 80.375 77.871094 C 80.070312 77.972656 79.742188 77.972656 79.441406 77.871094 C 79.109375 77.761719 78.820312 77.472656 78.246094 76.898438 Z M 65.671875 64.324219 "/>
<path style=" stroke:none;fill-rule:nonzero;fill:rgb(0%,0%,0%);fill-opacity:1;" d="M 65.671875 100.921875 C 64.808594 100.058594 64.375 99.625 64.210938 99.128906 C 64.058594 98.671875 64.058594 98.179688 64.210938 97.726562 C 64.375 97.230469 64.808594 96.796875 65.671875 95.933594 L 78.246094 83.359375 C 78.820312 82.785156 79.109375 82.496094 79.441406 82.386719 C 79.742188 82.285156 80.070312 82.285156 80.375 82.386719 C 80.707031 82.496094 80.996094 82.785156 81.570312 83.359375 L 94.144531 95.933594 C 95.007812 96.796875 95.4375 97.230469 95.605469 97.726562 C 95.757812 98.179688 95.757812 98.671875 95.605469 99.128906 C 95.4375 99.625 95.007812 100.058594 94.144531 100.921875 L 93.207031 101.855469 C 88.601562 106.460938 86.300781 108.765625 83.652344 109.648438 C 81.222656 110.460938 78.59375 110.460938 76.164062 109.648438 C 73.515625 108.765625 71.214844 106.460938 66.609375 101.855469 Z M 65.671875 100.921875 "/>
<path style=" stroke:none;fill-rule:nonzero;fill:rgb(0%,0%,0%);fill-opacity:1;" d="M 47.375 82.621094 C 46.507812 81.757812 46.078125 81.324219 45.914062 80.828125 C 45.761719 80.375 45.761719 79.882812 45.914062 79.425781 C 46.078125 78.929688 46.507812 78.496094 47.375 77.632812 L 59.945312 65.058594 C 60.523438 64.484375 60.808594 64.195312 61.140625 64.085938 C 61.445312 63.984375 61.773438 63.984375 62.078125 64.085938 C 62.410156 64.195312 62.695312 64.484375 63.273438 65.058594 L 75.84375 77.632812 C 76.710938 78.496094 77.140625 78.929688 77.304688 79.425781 C 77.457031 79.882812 77.457031 80.375 77.304688 80.828125 C 77.140625 81.324219 76.710938 81.757812 75.84375 82.621094 L 63.273438 95.195312 C 62.695312 95.769531 62.410156 96.058594 62.078125 96.167969 C 61.773438 96.269531 61.445312 96.269531 61.140625 96.167969 C 60.808594 96.058594 60.523438 95.769531 59.945312 95.195312 Z M 47.375 82.621094 "/>
<path style=" stroke:none;fill-rule:nonzero;fill:rgb(0%,0%,0%);fill-opacity:1;" d="M 29.074219 100.921875 C 28.210938 100.058594 27.78125 99.625 27.613281 99.128906 C 27.460938 98.671875 27.460938 98.179688 27.613281 97.726562 C 27.78125 97.230469 28.210938 96.796875 29.074219 95.933594 L 41.648438 83.359375 C 42.222656 82.785156 42.511719 82.496094 42.84375 82.386719 C 43.148438 82.285156 43.476562 82.285156 43.777344 82.386719 C 44.109375 82.496094 44.398438 82.785156 44.972656 83.359375 L 57.546875 95.933594 C 58.410156 96.796875 58.84375 97.230469 59.007812 97.726562 C 59.160156 98.179688 59.160156 98.671875 59.007812 99.128906 C 58.84375 99.625 58.410156 100.058594 57.546875 100.921875 L 56.613281 101.855469 C 52.003906 106.460938 49.703125 108.765625 47.054688 109.648438 C 44.625 110.460938 41.996094 110.460938 39.566406 109.648438 C 36.917969 108.765625 34.617188 106.460938 30.011719 101.855469 Z M 29.074219 100.921875 "/>
</g>
</svg>
