<svg width="212" height="213" viewBox="0 0 212 213" fill="none" xmlns="http://www.w3.org/2000/svg">
<rect width="212" height="212.312" rx="48" fill="white"/>
<path d="M135.375 44H55.052C48.9481 44 44 48.9481 44 55.052C44 61.1558 48.9481 66.104 55.052 66.104H135.375C141.479 66.104 146.427 61.1558 146.427 55.052C146.427 48.9481 141.479 44 135.375 44Z" fill="black"/>
<path d="M135.375 78.104H55.052C48.9481 78.104 44 83.0522 44 89.156C44 95.2599 48.9481 100.208 55.052 100.208H135.375C141.479 100.208 146.427 95.2599 146.427 89.156C146.427 83.0522 141.479 78.104 135.375 78.104Z" fill="black"/>
<path d="M157.899 112.208H54.1013C48.5225 112.208 44 117.133 44 123.208C44 129.283 48.5225 134.208 54.1013 134.208H157.899C163.478 134.208 168 129.283 168 123.208C168 117.133 163.478 112.208 157.899 112.208Z" fill="#BFBFBF"/>
<path d="M135.375 146.208H55.052C48.9481 146.208 44 151.156 44 157.26C44 163.364 48.9481 168.312 55.052 168.312H135.375C141.479 168.312 146.427 163.364 146.427 157.26C146.427 151.156 141.479 146.208 135.375 146.208Z" fill="black"/>
</svg>
