<?xml version="1.0" encoding="UTF-8"?>
<svg xmlns="http://www.w3.org/2000/svg" xmlns:xlink="http://www.w3.org/1999/xlink" width="160px" height="160px" viewBox="0 0 160 160" version="1.1">
<g id="surface1">
<path style=" stroke:none;fill-rule:nonzero;fill:rgb(47.058824%,33.725491%,100%);fill-opacity:1;" d="M 54.867188 70.183594 L 70.164062 70.183594 C 66.34375 67.796875 64.914062 64.445312 62.996094 58.238281 L 57.257812 36.964844 C 54.632812 27.40625 52.476562 22.863281 41.960938 22.863281 L 19.984375 22.863281 L 19.984375 28.601562 L 23.097656 28.601562 C 29.542969 28.601562 30.265625 30.992188 32.183594 38.160156 L 37.199219 56.808594 C 39.824219 65.894531 43.898438 70.183594 54.886719 70.183594 Z M 90.257812 70.183594 L 105.539062 70.183594 C 116.527344 70.183594 120.347656 65.875 122.988281 56.808594 L 128.003906 38.160156 C 129.921875 30.992188 130.863281 28.601562 137.089844 28.601562 L 140.207031 28.601562 L 140.207031 22.863281 L 118.460938 22.863281 C 107.710938 22.863281 105.554688 27.171875 103.167969 36.964844 L 97.425781 58.238281 C 95.507812 64.683594 94.078125 67.796875 90.257812 70.183594 Z M 70.164062 90.242188 L 90.257812 90.242188 L 90.257812 70.183594 L 70.164062 70.183594 Z M 19.984375 137.566406 L 41.960938 137.566406 C 52.476562 137.566406 54.632812 133.019531 57.257812 123.460938 L 62.996094 102.191406 C 64.914062 95.980469 66.34375 92.632812 70.164062 90.242188 L 54.867188 90.242188 C 43.878906 90.242188 39.804688 94.550781 37.179688 103.621094 L 32.167969 122.265625 C 30.246094 129.4375 29.542969 131.828125 23.078125 131.828125 L 19.984375 131.828125 Z M 118.425781 137.566406 L 140.167969 137.566406 L 140.167969 131.828125 L 137.054688 131.828125 C 130.847656 131.828125 129.886719 129.4375 127.96875 122.265625 L 122.953125 103.621094 C 120.328125 94.535156 116.507812 90.242188 105.5 90.242188 L 90.257812 90.242188 C 94.078125 92.632812 95.453125 95.746094 97.375 102.191406 L 103.113281 123.460938 C 105.5 133.257812 107.65625 137.566406 118.410156 137.566406 Z M 118.425781 137.566406 "/>
</g>
</svg>
