<?xml version="1.0" encoding="UTF-8"?><svg id="Layer_1" xmlns="http://www.w3.org/2000/svg" viewBox="0 0 3849.87 2823.97"><defs><style>.cls-1{fill:#f7943d;}</style></defs><path class="cls-1" d="m75.51,1970.52s1089.99,779.22,1156.26,818.06c63.98,38.85,157.67,47.99,239.93,16,82.26-31.99,143.96-105.11,162.24-178.24,20.57-73.12,269.64-1389.33,269.64-1389.33,2.29-18.28,9.14-70.84-18.28-121.11-38.85-68.55-125.68-105.11-203.37-82.26-61.7,18.28-93.69,63.98-102.83,79.98-13.71,25.14-38.85,66.27-84.55,102.83-34.28,27.42-68.55,43.42-84.55,50.27-139.39,57.13-294.78,9.14-383.9-105.11-54.84-70.84-153.1-98.26-239.93-63.98s-137.11,123.39-130.25,212.51c16,141.68-63.98,283.35-205.66,340.48-75.41,29.71-155.39,29.71-226.22,6.86-16-4.57-73.12-18.28-130.25,13.71-70.84,36.56-107.4,123.39-89.12,201.09,13.71,52.56,54.84,86.83,70.84,98.26Z"/><path class="cls-1" d="m1892.15,263.56s388.47,1284.22,415.89,1352.77c27.42,70.84,95.97,134.82,180.52,159.96,84.55,25.14,178.24,4.57,237.65-41.13,59.41-45.7,1062.57-934.6,1062.57-934.6,13.71-11.43,50.27-50.27,59.41-107.4,11.43-77.69-36.56-159.96-109.68-189.66-59.41-22.85-114.25-6.86-130.25,0-25.14,11.43-70.84,27.42-127.97,29.71-45.7,2.29-79.98-6.86-98.26-11.43-143.96-41.13-239.93-173.67-239.93-317.63-2.29-89.12-61.7-171.38-150.82-196.52-91.4-25.14-185.09,13.71-233.08,89.12-75.41,123.39-223.94,185.09-370.18,143.96-77.69-22.85-141.68-70.84-182.81-132.54-11.43-13.71-47.99-59.41-111.97-70.84-77.69-13.71-162.24,31.99-194.23,102.83-25.14,54.84-11.43,105.11-6.86,123.39Z"/></svg>