<svg width="160" height="160" viewBox="0 0 160 160" fill="none" xmlns="http://www.w3.org/2000/svg">
<mask id="mask0_2583_2558" style="mask-type:luminance" maskUnits="userSpaceOnUse" x="13" y="43" width="134" height="71">
<path d="M146.667 43.3335H13.334V113.333H146.667V43.3335Z" fill="white"/>
</mask>
<g mask="url(#mask0_2583_2558)">
<path fill-rule="evenodd" clip-rule="evenodd" d="M132.632 71.3335C126.093 71.3335 120.597 66.8716 119.039 60.8335H102.953C99.5222 60.8335 96.5947 63.3072 96.031 66.6826L95.4538 70.1351C94.9066 73.4129 93.2441 76.2657 90.8931 78.3335C93.2441 80.401 94.9066 83.2538 95.4538 86.5319L96.031 89.9841C96.5947 93.3594 99.5222 95.8335 102.953 95.8335H105.004C106.562 89.7951 112.058 85.3335 118.597 85.3335C126.349 85.3335 132.632 91.6013 132.632 99.3335C132.632 107.065 126.349 113.333 118.597 113.333C112.058 113.333 106.562 108.872 105.004 102.833H102.953C96.0919 102.833 90.2369 97.8857 89.1088 91.1351L88.5316 87.6826C87.9678 84.3072 85.0403 81.8335 81.61 81.8335H76.0497C74.4919 87.8716 68.9966 92.3335 62.4569 92.3335C55.9169 92.3335 50.4219 87.8716 48.8638 81.8335H40.9619C39.4041 87.8716 33.9088 92.3335 27.3691 92.3335C19.6177 92.3335 13.334 86.0654 13.334 78.3335C13.334 70.6013 19.6177 64.3335 27.3691 64.3335C33.9088 64.3335 39.4041 68.7951 40.9619 74.8335H48.8638C50.4219 68.7951 55.9169 64.3335 62.4569 64.3335C68.9966 64.3335 74.4919 68.7951 76.0497 74.8335H81.61C85.0403 74.8335 87.9678 72.3594 88.5316 68.9841L89.1088 65.5319C90.2369 58.7813 96.0919 53.8335 102.953 53.8335H119.039C120.597 47.7951 126.093 43.3335 132.632 43.3335C140.384 43.3335 146.667 49.6013 146.667 57.3335C146.667 65.0654 140.384 71.3335 132.632 71.3335ZM132.632 64.3335C136.508 64.3335 139.65 61.1994 139.65 57.3335C139.65 53.4676 136.508 50.3335 132.632 50.3335C128.757 50.3335 125.615 53.4676 125.615 57.3335C125.615 61.1994 128.757 64.3335 132.632 64.3335ZM27.3691 85.3335C31.2448 85.3335 34.3866 82.1994 34.3866 78.3335C34.3866 74.4676 31.2448 71.3335 27.3691 71.3335C23.4934 71.3335 20.3515 74.4676 20.3515 78.3335C20.3515 82.1994 23.4934 85.3335 27.3691 85.3335ZM69.4744 78.3335C69.4744 82.1994 66.3325 85.3335 62.4569 85.3335C58.5813 85.3335 55.4394 82.1994 55.4394 78.3335C55.4394 74.4676 58.5813 71.3335 62.4569 71.3335C66.3325 71.3335 69.4744 74.4676 69.4744 78.3335ZM125.615 99.3335C125.615 103.199 122.473 106.333 118.597 106.333C114.722 106.333 111.58 103.199 111.58 99.3335C111.58 95.4676 114.722 92.3335 118.597 92.3335C122.473 92.3335 125.615 95.4676 125.615 99.3335Z" fill="#EA4B71"/>
</g>
</svg>
