<?xml version="1.0" encoding="UTF-8"?>
<svg xmlns="http://www.w3.org/2000/svg" xmlns:xlink="http://www.w3.org/1999/xlink" width="160px" height="160px" viewBox="0 0 160 160" version="1.1">
<g id="surface1">
<rect x="0" y="0" width="160" height="160" style="fill:rgb(1.568628%,54.11765%,14.117648%);fill-opacity:1;stroke:none;"/>
<path style=" stroke:none;fill-rule:nonzero;fill:rgb(100%,100%,100%);fill-opacity:1;" d="M 48.375 101.8125 L 62.078125 101.8125 L 62.078125 126.667969 L 48.375 126.667969 Z M 48.375 101.8125 "/>
<path style=" stroke:none;fill-rule:nonzero;fill:rgb(100%,100%,100%);fill-opacity:1;" d="M 99.839844 37.921875 C 92.535156 34.027344 87.414062 33.332031 75.414062 33.332031 L 48.375 33.332031 L 48.375 89.921875 L 75.308594 89.921875 C 85.972656 89.921875 93.972656 89.28125 101.011719 84.585938 C 108.691406 79.519531 112.691406 71.039062 112.691406 61.226562 C 112.691406 50.667969 107.785156 42.1875 99.839844 37.921875 Z M 78.453125 78.078125 L 62.078125 78.078125 L 62.078125 45.441406 L 77.546875 45.332031 C 91.625 45.226562 98.667969 50.132812 98.667969 61.386719 C 98.667969 73.492188 89.921875 78.078125 78.453125 78.078125 Z M 78.453125 78.078125 "/>
</g>
</svg>
