<svg width="290" height="290" viewBox="0 0 290 290" fill="none" xmlns="http://www.w3.org/2000/svg">
<mask id="mask0_10251_341" style="mask-type:luminance" maskUnits="userSpaceOnUse" x="0" y="0" width="290" height="290">
<path d="M289.56 144.779C289.56 64.8201 224.74 0 144.779 0C64.82 0 0 64.8201 0 144.779V145.142C0 225.101 64.82 289.922 144.779 289.922C224.74 289.922 289.56 225.101 289.56 145.142V144.779Z" fill="white"/>
</mask>
<g mask="url(#mask0_10251_341)">
<path d="M126.099 130.478L126.085 106.588C126.085 105.167 125.522 103.801 124.516 102.796L103.861 82.0752L89.4512 97.9935L123.127 131.71C124.225 132.809 126.101 132.029 126.101 130.476L126.099 130.478Z" fill="#F5FF80"/>
<path d="M80.4705 188.078L39.8788 147.524L25.3721 163.301L79.069 217.014C80.1664 218.111 82.0406 217.334 82.0406 215.78V191.873C82.0406 190.448 81.4755 189.084 80.4705 188.078Z" fill="#F5FF80"/>
<path d="M134.544 0.880787C61.6887 5.91994 3.46441 66.2994 0.72089 139.365C-1.95687 210.707 47.0402 271.067 113.193 285.874L24.9994 197.559C23.7356 196.293 23.0266 194.575 23.0307 192.785L23.0965 164.254C23.0986 163.061 24.5392 162.465 25.3797 163.309L39.8864 147.531C38.9761 146.62 38.9761 145.14 39.8864 144.23L53.8403 130.292C54.7508 129.382 56.2242 129.384 57.1326 130.292L104.276 177.494C106.28 179.5 107.404 182.22 107.404 185.056V234.306C107.404 241.401 110.22 248.205 115.229 253.222L151.174 289.212C160.305 288.821 169.206 287.57 177.813 285.549L132.276 239.942C130.023 237.686 128.758 234.627 128.758 231.437V183.844C128.758 176.042 125.663 168.557 120.152 163.041L72.3031 115.133C71.3927 114.222 71.3926 112.742 72.3051 111.831L86.1625 97.9994C87.0729 97.0898 88.5464 97.0919 89.4548 98.0014L103.865 82.0834C103.596 81.7747 103.34 81.4374 103.086 81.0875C98.9714 75.5278 96.4707 66.359 99.387 56.0194C101.134 49.3999 104.761 44.4081 111.448 38.3422C112.036 37.8093 112.962 37.7825 113.561 38.301L130.881 53.3259L134.293 56.291C135.603 57.4289 137.169 58.2355 138.856 58.6367L192.858 71.4886C193.488 71.6368 194.068 71.9598 194.524 72.4043L249.993 127.808C250.961 128.737 251.511 130.031 251.511 131.377V143.156C251.511 144.967 251.056 146.751 250.185 148.337L222.734 198.413C221.538 200.605 218.86 201.523 216.575 200.526L203.922 195.004H157.679C154.707 195.004 152.302 197.416 152.302 200.389V221.033C152.302 223.875 153.423 226.604 155.422 228.62L203.318 276.942C253.758 254.459 288.935 203.807 288.935 144.93C288.935 61.7787 218.782 -4.95262 134.534 0.874612L134.544 0.880787Z" fill="#F5FF80"/>
</g>
</svg>
