<?xml version="1.0" encoding="UTF-8"?>
<svg xmlns="http://www.w3.org/2000/svg" xmlns:xlink="http://www.w3.org/1999/xlink" width="160px" height="160px" viewBox="0 0 160 160" version="1.1">
<g id="surface1">
<path style=" stroke:none;fill-rule:nonzero;fill:rgb(17.254902%,59.607846%,89.019608%);fill-opacity:1;" d="M 112.011719 34.007812 C 113.226562 33.367188 114.621094 32.550781 115.859375 31.890625 L 87.519531 3.554688 C 82.753906 -1.183594 75.058594 -1.183594 70.292969 3.554688 L 3.558594 70.308594 C -1.1875 75.074219 -1.1875 82.773438 3.558594 87.539062 L 25.816406 109.8125 C 26.960938 108.347656 28.421875 106.59375 29.355469 105.363281 C 30.292969 104.132812 31.554688 102.574219 32.546875 101.289062 C 46.308594 83.632812 62.230469 67.773438 79.9375 54.078125 C 90.226562 46.09375 100.570312 40.039062 112.011719 34.007812 Z M 112.011719 34.007812 "/>
<path style=" stroke:none;fill-rule:nonzero;fill:rgb(17.254902%,59.607846%,89.019608%);fill-opacity:1;" d="M 156.445312 72.460938 L 123.816406 39.835938 C 122.914062 40.605469 121.898438 41.484375 120.96875 42.3125 L 121.699219 41.554688 C 119.136719 43.796875 116.613281 46.117188 114.164062 48.484375 C 97.847656 64.246094 84.160156 82.839844 73.527344 102.765625 C 67.953125 113.210938 62.398438 123.4375 59.160156 135.292969 L 59.023438 135.429688 C 58.675781 135.773438 58.832031 136.070312 58.652344 136.582031 C 58.234375 137.773438 57.421875 139.328125 56.761719 140.753906 L 72.460938 156.445312 C 77.226562 161.1875 84.925781 161.1875 89.6875 156.445312 L 156.441406 89.695312 C 161.1875 84.929688 161.1875 77.226562 156.445312 72.460938 Z M 156.445312 72.460938 "/>
</g>
</svg>
