<?xml version="1.0" encoding="UTF-8"?>
<svg xmlns="http://www.w3.org/2000/svg" xmlns:xlink="http://www.w3.org/1999/xlink" width="160px" height="160px" viewBox="0 0 160 160" version="1.1">
<g id="surface1">
<path style=" stroke:none;fill-rule:nonzero;fill:rgb(35.686275%,5.490196%,100%);fill-opacity:1;" d="M 136.582031 23.429688 C 121.476562 8.320312 101.378906 0 80.007812 0 C 58.632812 0 38.523438 8.320312 23.429688 23.429688 C 8.320312 38.535156 0 58.621094 0 79.992188 C 0 101.367188 8.320312 121.464844 23.417969 136.570312 C 38.523438 151.679688 58.621094 160 79.992188 160 C 101.367188 160 121.464844 151.679688 136.570312 136.570312 C 151.679688 121.464844 160 101.378906 160 80.007812 C 160 58.632812 151.679688 38.535156 136.582031 23.429688 Z M 72.007812 72.09375 L 16.46875 72.09375 C 17.148438 66.582031 18.539062 61.28125 20.53125 56.292969 L 72.007812 56.292969 Z M 16.480469 88.066406 L 72.007812 88.066406 L 72.007812 103.867188 L 20.605469 103.867188 C 18.597656 98.878906 17.1875 93.578125 16.492188 88.066406 Z M 72.007812 16.480469 L 72.007812 40.320312 L 29.804688 40.320312 C 39.984375 27.476562 54.96875 18.625 72.019531 16.480469 Z M 29.929688 119.855469 L 72.007812 119.855469 L 72.007812 143.53125 C 55.03125 141.414062 40.097656 132.609375 29.929688 119.855469 Z M 87.992188 143.519531 L 87.992188 16.480469 C 119.53125 20.433594 144.027344 47.414062 144.027344 80.007812 C 144.027344 112.597656 119.542969 139.582031 87.992188 143.519531 Z M 87.992188 143.519531 "/>
</g>
</svg>
