<svg width="160" height="160" viewBox="0 0 160 160" fill="none" xmlns="http://www.w3.org/2000/svg">
<path d="M78.149 49.8036C59.1952 50.2851 44.3313 66.1489 44.3313 84.8772V135.319L111.773 72.6364C106.892 59.0681 93.652 49.4097 78.149 49.8036Z" fill="url(#paint0_linear_3575_3922)"/>
<path d="M141.401 42.9911C141.808 42.5145 142.036 41.8969 142.036 41.2647V28.0367C142.036 26.641 140.937 25.5127 139.579 25.5127H20.2699C19.1149 25.5127 18.1729 26.4756 18.1729 27.6671V41.2695C18.1729 41.9066 18.4001 42.5194 18.8072 42.996L25.8746 51.2586C26.2817 51.7352 26.5089 52.3528 26.5089 52.985V110.162C26.5089 110.818 26.2675 111.456 25.832 111.937L18.8498 119.713C18.4143 120.195 18.1729 120.832 18.1729 121.488V133.559C18.1729 135.003 19.3137 136.175 20.7196 136.175H44.8332C46.2391 136.175 47.38 135.003 47.38 133.559V83.4483C47.38 64.8756 62.0261 49.8288 80.0995 49.7996C98.1729 49.8288 112.819 64.8756 112.819 83.4483V133.559C112.819 135.003 113.96 136.175 115.366 136.175H139.479C140.885 136.175 142.026 135.003 142.026 133.559V121.488C142.026 120.832 141.785 120.195 141.349 119.713L134.367 111.937C133.931 111.456 133.69 110.818 133.69 110.162V52.985C133.69 52.348 133.917 51.7352 134.324 51.2586L141.392 42.996L141.401 42.9911Z" fill="white"/>
<path d="M139.489 138.388H115.37C112.776 138.388 110.665 136.219 110.665 133.554V83.4432C110.665 66.135 96.9562 52.0365 80.1042 52.0074C63.2568 52.0317 49.5479 66.135 49.5479 83.4432V133.554C49.5479 136.219 47.4367 138.388 44.8426 138.388H20.729C18.1349 138.388 16.0237 136.219 16.0237 133.554V121.483C16.0237 120.268 16.4639 119.1 17.2687 118.206L24.2556 110.429C24.3219 110.356 24.3598 110.259 24.3598 110.157V52.98C24.3598 52.8827 24.3266 52.7903 24.2604 52.7125L17.1976 44.4499C16.4403 43.5648 16.0284 42.4317 16.0284 41.2596V27.6572C16.0284 25.2499 17.9361 23.29 20.2793 23.29H139.588C142.135 23.29 144.204 25.4153 144.204 28.0317V41.2596C144.204 42.4365 143.787 43.5648 143.034 44.4499L135.967 52.7125C135.905 52.7855 135.872 52.8779 135.872 52.98V110.157C135.872 110.259 135.91 110.356 135.976 110.429L142.959 118.206C143.763 119.105 144.204 120.268 144.204 121.483V133.554C144.204 136.219 142.092 138.388 139.498 138.388H139.489ZM80.1042 47.577C99.3373 47.6061 114.982 63.6986 114.982 83.4432V133.554C114.982 133.778 115.157 133.958 115.375 133.958H139.493C139.711 133.958 139.886 133.778 139.886 133.554V121.483C139.886 121.381 139.849 121.284 139.782 121.206L132.8 113.435C131.995 112.54 131.555 111.378 131.555 110.157V52.98C131.555 51.8031 131.972 50.6748 132.724 49.7897L139.792 41.5271C139.853 41.4542 139.886 41.3569 139.886 41.2596V28.0317C139.886 27.8615 139.754 27.7204 139.588 27.7204H20.2698L20.3314 41.2596C20.3314 41.3569 20.3645 41.4493 20.4308 41.5271L27.4935 49.7897C28.2509 50.6748 28.6627 51.808 28.6627 52.98V110.157C28.6627 111.373 28.2225 112.54 27.4178 113.435L20.4308 121.211C20.3645 121.284 20.3266 121.381 20.3266 121.483V133.554C20.3266 133.778 20.5018 133.958 20.7195 133.958H44.8331C45.0509 133.958 45.2261 133.778 45.2261 133.554V83.4432C45.2261 63.6986 60.871 47.6061 80.0994 47.577H80.1042Z" fill="#292E3A"/>
<defs>
<linearGradient id="paint0_linear_3575_3922" x1="44.3313" y1="92.5562" x2="111.773" y2="92.5562" gradientUnits="userSpaceOnUse">
<stop stop-color="#319B9F"/>
<stop offset="0.12" stop-color="#35A0A4"/>
<stop offset="0.25" stop-color="#34989D"/>
<stop offset="0.45" stop-color="#32848A"/>
<stop offset="0.69" stop-color="#2E636B"/>
<stop offset="0.96" stop-color="#293540"/>
<stop offset="1" stop-color="#292E3A"/>
</linearGradient>
</defs>
</svg>
