<?xml version="1.0" encoding="UTF-8"?>
<svg xmlns="http://www.w3.org/2000/svg" xmlns:xlink="http://www.w3.org/1999/xlink" width="160px" height="160px" viewBox="0 0 160 160" version="1.1">
<defs>
<clipPath id="clip1">
  <path d="M 10 0 L 150 0 C 155.523438 0 160 4.476562 160 10 L 160 150 C 160 155.523438 155.523438 160 150 160 L 10 160 C 4.476562 160 0 155.523438 0 150 L 0 10 C 0 4.476562 4.476562 0 10 0 Z M 10 0 "/>
</clipPath>
<clipPath id="clip2">
  <path d="M 35 30 L 125 30 L 125 130 L 35 130 Z M 35 30 "/>
</clipPath>
<clipPath id="clip3">
  <path d="M 10 0 L 150 0 C 155.523438 0 160 4.476562 160 10 L 160 150 C 160 155.523438 155.523438 160 150 160 L 10 160 C 4.476562 160 0 155.523438 0 150 L 0 10 C 0 4.476562 4.476562 0 10 0 Z M 10 0 "/>
</clipPath>
</defs>
<g id="surface1">
<g clip-path="url(#clip1)" clip-rule="nonzero">
<path style=" stroke:none;fill-rule:nonzero;fill:rgb(2.745098%,46.666667%,81.176472%);fill-opacity:1;" d="M 10 0 L 150 0 C 155.523438 0 160 4.476562 160 10 L 160 150 C 160 155.523438 155.523438 160 150 160 L 10 160 C 4.476562 160 0 155.523438 0 150 L 0 10 C 0 4.476562 4.476562 0 10 0 Z M 10 0 "/>
</g>
<g clip-path="url(#clip2)" clip-rule="nonzero">
<g clip-path="url(#clip3)" clip-rule="nonzero">
<path style=" stroke:none;fill-rule:nonzero;fill:rgb(100%,100%,100%);fill-opacity:1;" d="M 98.730469 30 C 113.003906 30 124.992188 37.164062 125 46.636719 C 125 54.660156 117.550781 60.644531 108.390625 60.644531 C 104.585938 60.644531 99.386719 57.796875 99.386719 55.660156 C 99.386719 54.34375 100.058594 53.59375 101.535156 53.148438 L 102.289062 52.902344 C 105.5 51.714844 108 49.164062 108.417969 46.8125 C 108.992188 43.617188 105.121094 41.484375 98.675781 41.40625 C 85.667969 41.238281 71.878906 49.257812 72.382812 58.070312 C 72.691406 63.390625 76.367188 66.898438 85.492188 71.683594 L 88 72.960938 L 94.054688 75.972656 C 108.0625 83.152344 113.9375 89.144531 113.703125 99.773438 C 113.3125 116.5625 90.71875 130 67.734375 130 C 48.230469 130 33.28125 119.988281 35.160156 106.785156 C 36.652344 96.351562 49.347656 87.367188 62.269531 87.320312 C 74.105469 87.28125 82.648438 93.6875 82.648438 101.277344 C 82.648438 107.878906 77.410156 112.757812 69.46875 112.757812 C 64.699219 112.757812 60.734375 110.523438 60.734375 107.816406 C 60.734375 106.535156 61.222656 105.878906 62.433594 104.960938 L 62.902344 104.59375 C 63.550781 104.050781 63.753906 103.664062 63.753906 102.933594 C 63.753906 101.277344 62.355469 100.171875 60.171875 100.171875 C 55.683594 100.171875 50.53125 104.089844 50.53125 107.925781 C 50.53125 113.964844 57.605469 117.855469 68.578125 117.855469 C 82.628906 117.855469 94.898438 108.847656 94.898438 98.082031 C 94.898438 92.351562 90.78125 88.957031 79.855469 83.890625 L 74.148438 81.242188 C 60.957031 74.921875 55.328125 69.46875 55.328125 59.617188 C 55.328125 44.386719 77.105469 30 98.730469 30 Z M 98.730469 30 "/>
</g>
</g>
</g>
</svg>
