<svg width="160" height="160" viewBox="0 0 32 32" fill="none" xmlns="http://www.w3.org/2000/svg">
<path d="M0.0323602 13.9288C0.207677 7.83762 0.295336 4.79204 2.54369 2.54369C4.79204 0.295336 7.83762 0.207677 13.9288 0.0323602C14.6483 0.0116509 15.3444 4.52339e-09 16 0C16.6556 -4.52339e-09 17.3517 0.0116509 18.0712 0.0323602C24.1624 0.207677 27.208 0.295336 29.4563 2.54369C31.7047 4.79205 31.7923 7.83763 31.9676 13.9288C31.9883 14.6483 32 15.3444 32 16C32 16.6556 31.9883 17.3517 31.9676 18.0712C31.7923 24.1624 31.7047 27.208 29.4563 29.4563C27.208 31.7047 24.1624 31.7923 18.0712 31.9676C17.3517 31.9883 16.6556 32 16 32C15.3444 32 14.6483 31.9883 13.9288 31.9676C7.83762 31.7923 4.79205 31.7047 2.54369 29.4563C0.295335 27.208 0.207677 24.1624 0.0323601 18.0712C0.0116509 17.3517 -4.52339e-09 16.6556 0 16C4.5234e-09 15.3444 0.0116509 14.6483 0.0323602 13.9288Z" fill="#191918"/>
<path d="M10.9199 10.2996C12.1721 9.69977 15.338 8.21995 15.4914 7.22711C15.6448 6.23428 15.9108 8.79135 15.9721 9.23859C16.0335 9.68582 15.9926 10.1418 15.8596 10.5803C15.7266 11.0188 15.4914 11.4309 15.1642 11.7904C14.8471 12.15 13.8977 12.6594 13.8977 12.6594C13.8977 12.6594 12.1719 13.3994 9.43697 15C9.43697 15 8.79266 13.2812 9.06879 12.3955C9.35515 11.5186 9.66765 10.8995 10.9199 10.2996Z" fill="white"/>
<path d="M10 16.7982L17.037 12.6119C18.0422 12.0171 19.2417 11.8456 20.3612 12.1429C21.4807 12.4404 22.4288 13.1839 23 14.2018L15.9631 18.3881C14.9578 18.9829 13.7584 19.1544 12.6388 18.8571C11.5193 18.5597 10.5712 17.8162 10 16.7982Z" fill="white"/>
<path d="M21.0801 20.7004C19.8278 21.3002 16.662 22.7801 16.5085 23.7729C16.3552 24.7657 16.0892 22.2087 16.0279 21.7614C15.9665 21.3142 16.0074 20.8582 16.1404 20.4198C16.2733 19.9813 16.5085 19.5692 16.8358 19.2096C17.1529 18.85 18.1022 18.3406 18.1022 18.3406C18.1022 18.3406 19.8281 17.6007 22.563 16C22.563 16 23.2073 17.7188 22.9312 18.6045C22.6449 19.4815 22.3323 20.1006 21.0801 20.7004Z" fill="white"/>
</svg>
