<?xml version="1.0" encoding="UTF-8"?>
<svg id="Layer_1" xmlns="http://www.w3.org/2000/svg" version="1.1" viewBox="0 0 215 215">
  <!-- Generator: Adobe Illustrator 30.0.0, SVG Export Plug-In . SVG Version: 2.1.1 Build 123)  -->
  <defs>
    <style>
      .st0 {
        fill: #010101;
      }

      .st1 {
        fill: #fff;
      }
    </style>
  </defs>
  <circle class="st0" cx="107.5" cy="107.5" r="104.8"/>
  <g>
    <path class="st1" d="M130.6,102.6s.6-.3.8-.3l1.8-.6-24.5-70.3-.3-.8h-.8c-3.7,0-7.4.3-11,.8l-1.4.3,34.5,71.3.9-.5h0Z"/>
    <path class="st1" d="M125.9,106.1s.8-.8,1.3-1.2l.8-.8-56.7-63.4-.6-.7-.8.4c-3.5,1.9-6.9,4.2-10,6.7l-1,.8,66.2,59,.8-.8Z"/>
    <path class="st1" d="M123.1,111.2c.2-.5.4-1,.7-1.6l.5-1-82.9-40-.5.8c-2,3.6-3.8,7.4-5.2,11.3l-.3,1,87.5,30.5.3-1Z"/>
    <path class="st1" d="M122.2,116.8v-2.7l-91.4-5.2v1.2c.2,4.1.6,8.2,1.4,12.2l.2.9,89.9-5.2v-1.2Z"/>
    <path class="st1" d="M123.7,122.4c-.3-.5-.5-1-.7-1.6l-.3-1-80.5,28.1.8,1.2c2.1,3.3,4.5,6.4,7.1,9.3l.6.6,73.6-35.6-.5-.9Z"/>
    <path class="st1" d="M127.1,127c-.4-.3-.8-.8-1.2-1.2l-.8-.8-55.6,49.5,1.4.8c3.1,1.7,6.4,3.1,9.8,4.4l.7.3,46.4-52.1-.8-.8h0Z"/>
    <path class="st1" d="M132.2,130c-.5-.2-1-.4-1.6-.7l-1-.5-26.8,55.5h3.2c.5,0,1,0,1.6,0,2.1,0,4.1-.2,6.2-.3h.7l18.8-53.9-1-.3h0Z"/>
    <path class="st1" d="M137.9,130.7h-2.8l-2.9,49.6,1.5-.6c2.5-.8,4.8-1.9,7.2-3l.7-.3-2.6-45.7h-1.1Z"/>
    <path class="st1" d="M148.1,125.8c-.3.4-.8.8-1.2,1.2l-.8.8,23,25.9.8-1.1c1.1-1.5,2.2-3.1,3.1-4.7l.5-.8-24.7-22-.8.8h0Z"/>
    <path class="st1" d="M151.8,114.1v3.7l31.6,1.8.2-1c.3-2,.5-3.7.6-5.3v-1.3l-32.4,1.9v.3Z"/>
    <path class="st1" d="M146.8,104.9c.4.3.8.8,1.2,1.2l.8.8,30.5-27.2-.3-.7c-.8-2.1-1.8-4.2-2.9-6.3l-.8-1.4-29.3,32.9.8.8h0Z"/>
    <path class="st1" d="M136.1,101.2h2.8l3.6-62.1-.7-.3c-3-1.4-6-2.8-9.1-3.8l-1.5-.5,3.8,66.8h1.2Z"/>
    <path class="st1" d="M143.5,129.3c-.5.3-1,.5-1.6.7l-1,.3,13.4,38.3,1.2-.9c1.7-1.4,3.1-2.7,4.7-4.1l.8-.7-16.5-34.1-.9.5Z"/>
    <path class="st1" d="M151,120.8c-.2.5-.4,1-.7,1.6l-.5.9,28.6,13.9.4-1.1c.5-1.4,1.3-3.1,1.8-5l.3-1-29.7-10.4-.3,1h0Z"/>
    <path class="st1" d="M150.4,109.5c.3.5.5,1,.7,1.6l.3,1,32.8-11.3v-.8c-.3-2-.6-3.9-.9-5.9l-.3-1.4-33.1,15.9.5,1h0Z"/>
    <path class="st1" d="M141.8,102c.5.2,1,.4,1.6.7l.9.5,21.8-45.2-.5-.6c-1.8-2.1-3.8-4.1-5.8-6l-1.3-1.1-17.8,51.3,1,.3h0Z"/>
  </g>
</svg>