<?xml version="1.0" encoding="UTF-8"?> <svg id="Layer_1" xmlns="http://www.w3.org/2000/svg" viewBox="0 0 1000 1000">   <defs>     <style>       .cls-1 {         fill: #fff;       }        .cls-2 {         fill: #f6252f;       }     </style>   </defs>   <circle class="cls-2" cx="500" cy="500" r="496.5"/>   <path class="cls-1" d="M548.52,373.33h-249.74c-1.94,0-3.9-1.95-3.9-3.91v-126.82c0-1.94,1.95-3.9,3.9-3.9h249.74c1.95,0,3.9,1.95,3.9,3.9v126.82c0,1.95-1.94,3.91-3.9,3.91"/>   <path class="cls-1" d="M806.05,564.53h-507.27c-1.94,0-3.9-1.94-3.9-3.9v-126.82c0-1.95,1.95-3.91,3.9-3.91h507.27c1.95,0,3.91,1.95,3.91,3.91v126.82c0,1.95-1.95,3.9-3.91,3.9"/>   <path class="cls-1" d="M677.29,755.74h-378.51c-1.94,0-3.9-1.95-3.9-3.91v-126.82c0-1.95,1.95-3.9,3.9-3.9h378.51c1.94,0,3.9,1.94,3.9,3.9v126.82c0,1.95-1.95,3.91-3.9,3.91"/> </svg>