<?xml version="1.0" encoding="UTF-8"?>
<svg version="1.1" xmlns="http://www.w3.org/2000/svg" width="336" height="336">
<path d="M0 0 C2.16209171 -0.00407493 4.32418133 -0.00942193 6.48626709 -0.01593018 C12.30858305 -0.02950006 18.13073789 -0.02434814 23.95305634 -0.01479292 C30.07629294 -0.00714239 36.1995167 -0.01425679 42.32275391 -0.01895142 C52.6012619 -0.02439336 62.87970501 -0.01725846 73.15820312 -0.00292969 C85.00355289 0.01339375 96.84874769 0.00810414 108.6940937 -0.0084089 C118.90524677 -0.02206839 129.11635348 -0.02392169 139.32751274 -0.0160929 C145.408248 -0.01144084 151.48891066 -0.01072305 157.56964111 -0.02070236 C163.28915836 -0.02943498 169.00847782 -0.02323625 174.72797394 -0.00601959 C176.81394372 -0.00208813 178.89993045 -0.00313065 180.98589325 -0.00980759 C202.65271054 -0.0727112 222.4141921 1.4752886 238.89770508 17.12402344 C243.25423281 21.47387734 246.85047534 26.08467086 249.9609375 31.38818359 C250.55648437 32.39171875 250.55648437 32.39171875 251.1640625 33.41552734 C258.25198153 47.19465353 257.3972309 64.39711535 257.34912109 79.42724609 C257.35319602 81.5893378 257.35854302 83.75142743 257.36505127 85.91351318 C257.37862115 91.73582914 257.37346924 97.55798399 257.36391401 103.38030243 C257.35626349 109.50353903 257.36337789 115.62676279 257.36807251 121.75 C257.37351446 132.02850799 257.36637955 142.3069511 257.35205078 152.58544922 C257.33572735 164.43079899 257.34101696 176.27599378 257.35753 188.1213398 C257.37118948 198.33249287 257.37304278 208.54359957 257.36521399 218.75475883 C257.36056194 224.83549409 257.35984414 230.91615675 257.36982346 236.99688721 C257.37855608 242.71640445 257.37235735 248.43572392 257.35514069 254.15522003 C257.35120923 256.24118981 257.35225174 258.32717654 257.35892868 260.41313934 C257.42183229 282.07995663 255.8738325 301.8414382 240.22509766 318.32495117 C235.87524376 322.6814789 231.26445023 326.27772143 225.9609375 329.38818359 C225.29191406 329.78521484 224.62289063 330.18224609 223.93359375 330.59130859 C210.15446757 337.67922763 192.95200574 336.82447699 177.921875 336.77636719 C175.75978329 336.78044211 173.59769367 336.78578912 171.43560791 336.79229736 C165.61329195 336.80586725 159.79113711 336.80071533 153.96881866 336.79116011 C147.84558206 336.78350958 141.7223583 336.79062398 135.59912109 336.7953186 C125.3206131 336.80076055 115.04216999 336.79362565 104.76367188 336.77929688 C92.91832211 336.76297344 81.07312731 336.76826305 69.2277813 336.78477609 C59.01662823 336.79843558 48.80552152 336.80028887 38.59436226 336.79246008 C32.513627 336.78780803 26.43296434 336.78709024 20.35223389 336.79706955 C14.63271664 336.80580217 8.91339718 336.79960344 3.19390106 336.78238678 C1.10793128 336.77845532 -0.97805545 336.77949784 -3.06401825 336.78617477 C-24.73083554 336.84907838 -44.4923171 335.30107859 -60.97583008 319.65234375 C-65.33235781 315.30248985 -68.92860034 310.69169632 -72.0390625 305.38818359 C-72.43609375 304.71916016 -72.833125 304.05013672 -73.2421875 303.36083984 C-80.33010653 289.58171366 -79.4753559 272.37925184 -79.42724609 257.34912109 C-79.43132102 255.18702938 -79.43666802 253.02493976 -79.44317627 250.862854 C-79.45674615 245.04053805 -79.45159424 239.2183832 -79.44203901 233.39606476 C-79.43438849 227.27282815 -79.44150289 221.14960439 -79.44619751 215.02636719 C-79.45163946 204.74785919 -79.44450455 194.46941609 -79.43017578 184.19091797 C-79.41385235 172.3455682 -79.41914196 160.50037341 -79.435655 148.65502739 C-79.44931448 138.44387432 -79.45116778 128.23276762 -79.44333899 118.02160835 C-79.43868694 111.9408731 -79.43796914 105.86021043 -79.44794846 99.77947998 C-79.45668108 94.05996273 -79.45048235 88.34064327 -79.43326569 82.62114716 C-79.42933423 80.53517737 -79.43037674 78.44919064 -79.43705368 76.36322784 C-79.49995729 54.69641056 -77.9519575 34.93492899 -62.30322266 18.45141602 C-57.95336876 14.09488829 -53.34257523 10.49864576 -48.0390625 7.38818359 C-47.03552734 6.79263672 -47.03552734 6.79263672 -46.01171875 6.18505859 C-32.23259257 -0.90286044 -15.03013074 -0.0481098 0 0 Z " fill="#1F1E1E" transform="translate(79.0390625,-0.38818359375)"/>
<path d="M0 0 C3.98625865 0.65767008 6.98602415 2.77439928 10.30175781 4.98413086 C11.43508545 5.71043701 11.43508545 5.71043701 12.59130859 6.45141602 C14.23677208 7.50700265 15.87772284 8.56964908 17.51464844 9.63842773 C20.35379289 11.47356072 23.22178653 13.25561273 26.09863281 15.03100586 C28.08333178 16.2648599 30.06771185 17.49922706 32.05175781 18.73413086 C32.99680176 19.31630371 33.9418457 19.89847656 34.91552734 20.49829102 C43.45190873 25.88096663 43.45190873 25.88096663 46.17675781 30.35913086 C46.73925781 33.85913086 46.73925781 33.85913086 46.17675781 37.35913086 C42.54652175 41.58640008 38.34266622 44.42521028 33.67675781 47.35913086 C32.95351318 47.8204541 32.23026855 48.28177734 31.48510742 48.75708008 C1.26953055 67.95646152 1.26953055 67.95646152 -4.82324219 67.35913086 C-8.16085264 65.20822635 -9.55795152 64.15500287 -10.82324219 60.35913086 C-10.82324219 56.39913086 -10.82324219 52.43913086 -10.82324219 48.35913086 C-30.29324219 48.35913086 -49.76324219 48.35913086 -69.82324219 48.35913086 C-67.82324219 43.35913086 -67.82324219 43.35913086 -66.70996094 40.98413086 C-65.59107777 37.67184237 -65.59437114 34.84934248 -65.63574219 31.35913086 C-65.6421875 30.16288086 -65.64863281 28.96663086 -65.65527344 27.73413086 C-65.75503315 24.06260411 -65.75503315 24.06260411 -66.82324219 19.35913086 C-48.34324219 19.35913086 -29.86324219 19.35913086 -10.82324219 19.35913086 C-10.82324219 15.06913086 -10.82324219 10.77913086 -10.82324219 6.35913086 C-8.05596545 1.08400958 -5.93290038 -0.18447401 0 0 Z " fill="#FDFAF4" transform="translate(234.8232421875,167.640869140625)"/>
<path d="M0 0 C3.78565822 0.81814591 6.12854827 3.06974552 8.3671875 6.17089844 C9.69453674 8.26136881 10.95198894 10.38194086 12.1953125 12.5234375 C13.15219485 14.13107286 14.11058322 15.73781258 15.0703125 17.34375 C15.56660156 18.1780957 16.06289062 19.01244141 16.57421875 19.87207031 C19.21388245 24.2566245 21.95416213 28.57686411 24.6953125 32.8984375 C25.20779541 33.70869385 25.72027832 34.5189502 26.24829102 35.35375977 C28.18348685 38.40910933 30.1265272 41.45150955 32.1328125 44.4609375 C32.50744152 47.90752447 32.32450788 50.01701135 30.9453125 53.2109375 C29.1328125 55.4609375 29.1328125 55.4609375 24.1328125 57.4609375 C20.5028125 57.4609375 16.8728125 57.4609375 13.1328125 57.4609375 C13.1328125 76.2709375 13.1328125 95.0809375 13.1328125 114.4609375 C10.1628125 113.4709375 7.1928125 112.4809375 4.1328125 111.4609375 C0.71811235 110.99840929 0.71811235 110.99840929 -2.4921875 111.0859375 C-4.05839844 111.07433594 -4.05839844 111.07433594 -5.65625 111.0625 C-9.6311636 111.40481739 -9.6311636 111.40481739 -15.8671875 114.4609375 C-15.8671875 95.6509375 -15.8671875 76.8409375 -15.8671875 57.4609375 C-20.1571875 57.4609375 -24.4471875 57.4609375 -28.8671875 57.4609375 C-34.69279512 52.80045141 -34.69279512 52.80045141 -35.3203125 47.98046875 C-35.22961183 42.05424688 -31.8597415 37.88953061 -28.6171875 33.1484375 C-27.33383167 31.21016735 -26.05129551 29.27135427 -24.76953125 27.33203125 C-24.11839355 26.35862793 -23.46725586 25.38522461 -22.79638672 24.38232422 C-20.94058285 21.5720801 -19.14433898 18.73400301 -17.37109375 15.87109375 C-16.56236816 14.56555542 -16.56236816 14.56555542 -15.73730469 13.23364258 C-14.7180975 11.58294228 -13.7017055 9.93049963 -12.68847656 8.27612305 C-12.22795898 7.53789307 -11.76744141 6.79966309 -11.29296875 6.0390625 C-10.89505127 5.39356445 -10.49713379 4.74806641 -10.0871582 4.08300781 C-7.28047792 0.351252 -4.40953336 0.19021516 0 0 Z " fill="#FCF9F3" transform="translate(145.8671875,62.5390625)"/>
<path d="M0 0 C4.28596069 1.79412308 7.88200587 4.81630789 10 9 C11.02577782 14.98210616 10.39587004 18.97024675 7 24 C5.09974654 26.15495262 3.06957666 28.16398679 1.01953125 30.17578125 C0.16025276 31.0308149 0.16025276 31.0308149 -0.71638489 31.90312195 C-2.53542354 33.71102378 -4.36131378 35.51182119 -6.1875 37.3125 C-7.4268923 38.54185412 -8.66582965 39.77166708 -9.90429688 41.00195312 C-12.93095715 44.00663931 -15.96377921 47.00497624 -19 50 C-18.38511719 50.70576172 -18.38511719 50.70576172 -17.7578125 51.42578125 C-17.21898437 52.04839844 -16.68015625 52.67101562 -16.125 53.3125 C-15.59132812 53.92738281 -15.05765625 54.54226562 -14.5078125 55.17578125 C-11.88424049 58.34989557 -10.69395656 60.34837581 -10.625 64.4375 C-10.59664062 65.19933594 -10.56828125 65.96117187 -10.5390625 66.74609375 C-11.19406798 69.94895952 -12.424515 71.01788654 -15 73 C-18.0390625 74.125 -18.0390625 74.125 -21.625 75 C-22.27380127 75.16169678 -22.92260254 75.32339355 -23.59106445 75.48999023 C-29.53319802 76.9489554 -35.51215746 78.26661059 -41.49194336 79.56152344 C-45.92252018 80.5215057 -50.30553328 81.58330136 -54.6875 82.75 C-58.90792403 83.80510601 -62.63125471 84.62410647 -67 84 C-69.75329021 82.20437595 -71.52627461 80.94745078 -73 78 C-73.34364047 71.63663434 -72.37754856 65.96468158 -70.98828125 59.76953125 C-70.77817917 58.81608322 -70.56807709 57.86263519 -70.35160828 56.8802948 C-69.9063765 54.8766133 -69.45649324 52.87396029 -69.00219727 50.87231445 C-68.31314329 47.81535394 -67.65319281 44.75300259 -66.99414062 41.68945312 C-66.55645559 39.73658206 -66.11706046 37.7840933 -65.67578125 35.83203125 C-65.48284988 34.92048782 -65.28991852 34.0089444 -65.09114075 33.06977844 C-63.8423256 27.72833627 -62.56516998 24.43113858 -58 21 C-53.15896443 20.04766513 -53.15896443 20.04766513 -50 21 C-47.69557811 22.66247579 -45.74770653 24.43845012 -43.76171875 26.46875 C-42.01165459 28.32800649 -42.01165459 28.32800649 -39 28 C-37.03862672 26.26483027 -35.25124474 24.52627278 -33.44921875 22.63671875 C-32.64457939 21.8150396 -32.64457939 21.8150396 -31.82368469 20.97676086 C-29.52732181 18.63137467 -27.24882093 16.26891652 -24.96899414 13.9074707 C-23.30202703 12.18596657 -21.62591837 10.47373676 -19.94921875 8.76171875 C-19.44275314 8.23035812 -18.93628754 7.6989975 -18.41447449 7.15153503 C-12.70671817 1.32843618 -7.95052748 -0.75719309 0 0 Z " fill="#FCF9F3" transform="translate(147,186)"/>
</svg>
