<svg width="160" height="160" viewBox="0 0 160 160" fill="none" xmlns="http://www.w3.org/2000/svg">
<g clip-path="url(#clip0_2362_2765)">
<path d="M26.666 96.32C25.7913 96.32 25.098 97.056 25.13 97.9307C26.218 128.16 51.0606 152.331 81.5566 152.331C112.053 152.331 136.895 128.16 137.973 97.9307C138.005 97.0453 137.311 96.3093 136.426 96.3093H106.698C105.909 96.3093 105.226 96.96 105.162 97.7493C104.202 109.952 94.0046 119.563 81.546 119.563C66.602 119.563 60.5646 106.88 60.5646 106.88C58.634 103.253 58.0793 99.712 57.9193 97.728C57.8553 96.928 57.1833 96.32 56.3833 96.32H26.666Z" fill="#0088D9"/>
<path d="M119.329 16.4267L53.9316 52.5867L57.857 86.5067L120.289 51.9787C121.11 51.5307 121.612 50.6667 121.612 49.728V17.7814C121.612 16.608 120.353 15.8614 119.318 16.4267H119.329Z" fill="#FF932C"/>
<path d="M57.8559 9.21594C57.8559 7.98928 56.5012 7.25327 55.4772 7.92527L26.2612 26.8373C25.5252 27.3066 25.0879 28.1279 25.0879 28.9919V84.9599C25.0879 85.8133 25.7812 86.4959 26.6239 86.4959H57.8559V9.21594Z" fill="#E32851"/>
</g>
<defs>
<clipPath id="clip0_2362_2765">
<rect width="160" height="160" fill="white"/>
</clipPath>
</defs>
</svg>
